<mxfile host="app.diagrams.net" modified="2024-01-29T08:40:53.516Z" agent="Mozilla/5.0 (X11; Linux x86_64) AppleWebKit/537.36 (KHTML, like Gecko) Chrome/118.0.0.0 Safari/537.36" etag="CD5jI11a0mkMqco_WtcD" version="23.0.2" type="github" pages="2">
  <diagram id="UNRsSCxW-_ZCOEk44JVP" name="Page-0">
    <mxGraphModel dx="2390" dy="1530" grid="1" gridSize="10" guides="1" tooltips="1" connect="1" arrows="1" fold="1" page="1" pageScale="1" pageWidth="827" pageHeight="1169" math="0" shadow="0">
      <root>
        <mxCell id="0" />
        <mxCell id="1" parent="0" />
        <mxCell id="crnY2Niqq7wWtRDjp0Mj-1" value="" style="shape=image;verticalLabelPosition=bottom;labelBackgroundColor=default;verticalAlign=top;aspect=fixed;imageAspect=0;image=data:image/png,iVBORw0KGgoAAAANSUhEUgAABgQAAAPjCAIAAAD0j/LNAAAACXBIWXMAABYlAAAWJQFJUiTwAAAgAElEQVR4nOzdf3iU9Z3v/09+TBKSYRIgwAQigok2RNCBNsZK6GpqMBzpKhLaLa22Wb/fxe3KZs/3atx6KHv1HMriSvdcJ1fcHrm+x45Wl1ZJAK/Kl0CstjJYI9aMoCEtE6WYkAEiSSZ3QpKZzHz/uPH2ZmYymcxMcueeeT4u/gj3fOa+3/mhNa++P+9Pks/nEwAAAAAAAEgMyVoXAAAAAAAAgOlDGAQAAAAAAJBACIMAAAAAAAASCGEQAAAAAABAAiEMAgAAAAAASCCEQQAAAAAAAAmEMAgAAAAAACCBEAYBAAAAAAAkEMIgAAAAAACABEIYBAAAAAAAkEAIgwAAAAAAABIIYRAAAAAAAEACIQwCAAAAAABIIIRBAAAAAAAACYQwCAAAAAAAIIEQBgEAAAAAACQQwiAAAAAAAIAEQhgEAAAAAACQQAiDAAAAAAAAEghhEAAAAAAAQAIhDAIAAAAAAEgghEEAAAAAAAAJhDAIAAAAAAAggaRqXQCgSw6pX/K4ncNDzqtDQgjf59eThBBCGFMNhbOzhRCWnFyNCgQAAAAAILgkn8838Sog4dn7euy9PQ6p3yH1XxweWpiRuTAjUwhxW7C4p0PqH/S4JY/7Y6k/K9VQaMy25OQWzs625OQaUw3TXjsAAAAAAF8gDALG5Rwesl3utvV0f9DXc5Mx+/ac3JuM2eaMzKAB0Hg6pP6Lw0MdUv+pvp5TfT0FxmxLTm5l3pJCY/bUVQ4AAAAAwHgIgwB/ksfd1H2+yXneOTx0V27ebTm5d+Xmxaqj5+2e7lN9PW/3dAshynLzqm4oMGdkxuTOAAAAAACEgzAI+IK9r+dI9/ljzvNfzc27KzdvnXnJ1D3rVF/PMef5t3u6C43ZlXlLKqfyWQAAAAAAKAiDACGEsPf1PP9Ju0PqX2desjG/YOF0detIHnez8/zBzg4hxPeXFREJAQAAAACmGmEQEp1D6n/m7GmH1L8xv2BjfoFWA56POc+/eK49SYjHb15ZlpunSQ0AAAAAgERAGITEJXncz3/S3tjZ8d2lRRrGQGrHnOefdZwuNGb/aPlqZgkBAAAAAKYCYRASlK2n+5mzpxdmZP6waPW0bQoLh+Rxv3Su/WBnx/eWFn1/WZHW5QAAAAAA4g1hEBKO3BDU5Dz/8NKijfkFWpcT3Km+nj3t7+dlZNIiBAAAAACILcIgJBaH1P/Umfd9QvxkRemMaggKJLcIHXOe/9Hy1UwRAgAAAADECmEQEoitp/upM++vMy95rHCl1rWES54iVJVfwJYxAAAAAEBMEAYhUTQ5zz9z9vRjhSvX6e349g6p/ycftqzKyf3R8tVa1wIAAAAA0D3CICSEZ86ebnKe32MpKzBma11LJCSPu9Zum51q+OnK0plw6hkAAAAAQL8IgxD/njrzvq2nW79JkEzOg5KE+F+rysiDAAAAAAARS9a6AGBqxUcSJIQwphr2WMp8QvxTq03yuLUuBwAAAACgV4RBiGcNn3bERxIkU/Kgp868r3UtAAAAAAC9IgxC3Gpynn/+XHvcJEEyOQ/qHh4iDwIAAAAARIaZQYhPDqn/n1ptPyxafVdunta1xN7F4aG/f+/Nx29eWTmVJ6M1NjZ2dnZarVb1xdLS0jvvvLOioiI/P3/qHj39Wlpatm7dqvz1tddem9JPcOvWrS0tLfLHmzZt2rFjRzgrA9XU1OTn51dUVIR4VmdnZ3Nzc3Nzc1tbm3Jx06ZNxcXFmzZtmuwb5YeaTKbQ7wUAAAAwk6VqXQAQe5LH/ePTLQ8vLYrLJEgIsTAjc4+l7AfvvVlozC6cgr6nxsbGuro6l8sV+FJLS0tLS0txcXGchUE6VVdXJ4QoLS3du3dv4Ksul6uurq6xsTHwpcbGxsbGRqvVumPHjtLS0sAFO3fuDPpG+aH5+fmEQQAAAIB+sU0MceipM+/fZMzemF+gdSFTqMCY/Vjhyh+fbon5MOna2tqdO3cGTYJmIJfLZbVad+7cuXPnTq1r8dfc3Gy1Wjds2NDZ2TmlD2ppaQn89Ds7O7ds2TJeoKOs2bp1a+Ca2tra0G8EAAAAoGt0BiHeNHza4ZD6f/6Ve7QuZMptzC/4oK/nqTPv/3RlkM6OyOzcubO5uTlWd5tqfputtC1GzW/TWayoN5RZrVa5LUjW2Ngo796S/+pyuZ544okwQ6idO3eaTCZlr1lLS4uOfgYAAAAARIAwCHHFOTz0/Ln2n6woNaYatK5lOvywaPUj7xyz9XSXxWJDnLx1SH2ltLR03bp16pzFarVOdZ8LwlFdXS13RSlXXC6XEgZZrdbAQT/V1dXyx3LLknpBXV1daWmp/PZ33nnH70HV1dXKndva2lpaWvzWAAAAANAXwiDElafOvH9Xbt5tOblaFzJNjKmGHxatfurM+7/+6roo8y95voz6ijo+UARegVaUgMbvr34hkRBi3759xcXFyl8rKioqKiq2bNmi5EGdnZ2NjY3yN1cdEuXn59fU1KhvVVxcXFxczI8BAAAAoGuEQYgftp5uh9T/LytitmdKF+7KzSswZj//SfvjN6+M5j7Nzc3qOUGbNm2a8Bf+wBO45ERJ3rplt9vVi61W6zvvvKPs6iouLq6oqAh8REtLS1tbm3qlXMy6devUc44tFovfG5W2psBpymE+ejzqUcryRi35WXJoYjKZ5N4Z5Vl+mZoQYsOGDfIHe/fuDTqtOTLq1KaiokIJg/zau2pqatRJkOLpp59WChNCNDc3y5+FOmOSQ6Iot+CF/3Min1+mfAHl887y8/PVb/f7uQIAAAAQAcIgxI9nzp5+rHBlgmwQU5M3i1XdUGDOyIz4JoGbgyZ7h66urtra2sDJ052dnU888YTfrqW2tra2trbm5uann35aOZissbEx6BxoOXwJ2qkUWviPDl9tba16pI6ca7S1te3Zs2eyt4qGerqTX/+O+vMNcQZ8fn5+cXGxslj5oLi4WP0J7ty5s62trbq6Olbnx433cxI4aEn+TgVNsgAAAABEg9PEECeanOd9QqwzL4nVDds/+ujg/ldOTsFslK5PP2349a/eOWGL1Q0XZmRWmJdYP2mPqqquLuXjyE6Ob2hoCJoEqbcj+Wlra3viiSfCvL/SSxKmGD5a0djYGHS4cnNz8zQMXW5sbLR8Tmn/qa6u3rdvn/r7debMGeXj5cuX++0mU/NrU5KnQW3atMnvLY2NjRs2bKitrZ3U1388QX9O2traxhu5Pd53EAAAAEDECIMQJ57/pP3hpUUxuVXflSu/OdB4yt7qHh392HF2UJJiclvFOyds3rGx8+fONfxqX/tHH8Xkng8vLTrmPO8cHor4Duqx0MuXL4/gDkHTkLq6OuU3/9LS0tdee81ut7/11ltKDNHW1qbe1rRp06aamhr759QrhRANDQ3yB/Kr6pc2bdokX1T2iE320WEqLS1966237Ha7crCXcjchRHV1tboGmfxov4JjxeVyqdMfcf23MnSo5xf6yIGgyWR69tlnAyOk5ubmrVu3bt26Ncp0ZryfE/Vf9+zZI3/F/CYWAQAAAIgJwiDEg1i1BblHR5ubjhz9/w5fvXpVvpKUlPS7374edYFfeP/kybGxMfljr9d7yt76akPDpYsXo7xt9M1Bgc0aEVBynH379onPR8DIL+Xn5+/du1fOJkwmk/qXfGWHmjyRR70XzG+lX+oRwmQfHSaTybRnzx45KNm0aZNyHLvQroGlsbFx69atfhOjIzN79mz5g+Li4n379gWNrlpaWrZs2RJli1Dgz4n6hjt27FC+sNXV1VFOLAIAAAAQiJlBiAcxaQt6r+Wdjx0OIURSUpL6+qAkdX366eIbbojy/rKzf2r3u//IyPDvXm/OnjOn7Gt/lWU0Rnznh5cWPfLOseplRZFNDjKZTEoeFNnh8eqZ0/KcF/Vv+J2dnYFTn2V+EY88Q1oIIU/2Ub8UfmGRPXpCyvnrMvV4HfU+uykih2Xyx21tbT/96U+VBKquri4/P1/OUCL+Vqo/NTlBk5unAvunamtrX3vtNWV90C/veDOeQv+cmEwmdcQmhLjzzjsjaOACAAAAEAKdQdA9e1+PiK4tqP2jjxp+/Ss5CQqUnJIyKysr4pv7ycoKHvf09/a+dujgibd+H/Gd5eagpu7zkb3db+hMBI1C69at87sy2Zu0tbVt2bJl69atdXV1dXV10UzhiUmjU6AQ83emWXFxsd9mLmUPXfjfSnVjlMlkCtxTVlxcvGPHjrfeesuvPcflckUc0IT+OcnPz/f7Is+crzkAAAAQNwiDoHtHus9XRJEEvXPCdsre6v1865afZQWFVX/z7blz54a+yahPnBkWknfix23YuHH1V0qSU1ICX0pKSur69NNXGxvCqDq4deYlDZ0dkb1XvScosl/1Fy9eHNmjZZ2dnY899pjS6lJTU7Njxw673f7aa69Fc9s4ZjKZ1NOdlC4nv2/leJma3+asEPOMTCbTjh07/Mb3RLwtLsqfEwAAAADRY5sY9E3yuI85z//yTv9eg/AZ0tIGBwczMjJSVAGNz+ebm5v7V/eUp6WnT3iHM8PigyHh9on3BkVRhrg9U6QlhVpf+KUvFX7pS++fPOn485/U171e78jISGYUXUi35eQaUw22nu6y3LzJvvfOO+9Uz52pq6sLcSp5BOQxNCEWNDY2Kh0i6h1G0ff4TPjoOFNRUeH3rVy+fHngAe1+h6kpDTtWq7W0tDRwfXV1tXrMs/r7YrfbY1K5CLavbYqavAAAAIBERmcQ9M3W032TMXthRFNyFB6PR5Kkq1ev+nw+IURmZlbFf7m/onL9hEnQRbd4rV+8NyjcvmtX2ofFgV7RMTLxQ1eXlDxYtTl3/nz5oSMjI5IkjY6ORvOJCCHuys2zXe6O4I2Bv//v3LmztrbWr6/EarXu3LkzzPnB6maTtra20O8a7wysEO9SbyDyiwwm9eiYUyYxy6Yozujs7FTPPFK+aMXFxeqxOy6Xa8uWLep4qLGxccuWLerWHvVbOjs7t2zZsnPnTnV3mMvl2rlzp/rpgWlRxNTfbpfL5ffNUra/AQAAAIgVOoOgb7bL3dEfIiYbHR11u90rb7+99K41Ey6WvOK9QfFpsOjG7RNvS+LMsCjJFAsNoW6Slp5evu6+K1euHHzlZa83jD1mYagwL6m12yJ7749//OMtW7aorzQ3NwfdZBQ49iWo4uLi/Px8JeWpra2trq5WWn6UA78Cxww3NDTIo5qbm5v9Dh1XU4cIzc3NbW1tSkIR8aNjwm/4jtVq3bNnz3iLg05ozs/PD70/rqWlpa6uTh0zqQOgmpqalpYW9avyGKagtzKZTD/+8Y+DVuUXAKnFMAySv9dKtbW1tXv27JHjvNra2mkO8gAAAIBEQBgEfTvR0721cGWs7ubz+VINIfMbeTzQVXFm+ItuoKB6PeKYSxSki9syhTFkB97cuXNjlQQJIQqM2cZUg72vx5KTO9n3FhcX7927d+vWrbEqRghRU1NTW1srf+xyuQIjCWUnmvpkrpaWlq997Wvyx+qYILBg9V/lJKu0tHTv3r2TenTMmUym4uJipfWmublZPm9r7969IUbzTChobCQrLi5WB1v5+fnPPvvsY489Fk5TUnV19WSTnYqKCr8zv6JhMpnUe9BcLldsfwgBAAAA+GGbGHQsJnvEJqVjRLzWJ05dnSAJ8lv/wdAUl3W9iHeKCSFKS0v37dsXw6aPioqKEE0xaps2bQo8zUoIoRymHvTmIUoN/9FTYYp6joIqLS199tln/S7Kk5LCyZ4aGxsndQL9VHxhq6urx8vm/AZXAwAAAIgenUHQMcdA/+2T73+JzBWPeG9IXHRP+o1unzh1VXSMiJIscUPaFFQW4Lac3JfOtUf8djlEaG5u7uzstFqtfsd+y5HNpNpbKioq3nrrLbmrRR06lJaW3nnnnUoEYDKZ9u3bZ7Valek2FRUV1dXVoU8Wl98y3gaoMB89FSoqKvbu3fuLX/xiSnc5yU094zXp5Ofn7927t6Wlpa2tze9bqW5cks9x27dvn/yl3rFjR3FxscvlCnxLRUVF0NnSMSE/99ixY8pXTE6I1HOROGYeAAAAiIkkeXgtoEf/1Gp7ML/grsmfnKX2x5Pvvn/ypPLX1SUlXy65Q71g1CfeGwxrJvSEFhrEVzLF3IAM9v/9+X8oH+ctWrThwY3RPEXyuDfZDr95z4PR3ATxTQ6A1AFZcXHxs88+OwPTlrq6OiUfVPYAAgAAAIgG28SgYx/09RQYs6f0EWfCPh0sHBfd4nC/ODkoRqcygzWmGhZmZNr7eqbwGdC5/Pz8p59+Wn2lra1NGbE0c3R2dqrHJN15550aFgMAAADEDcIg6JVD6s9KNUzpwKADA+I3UrjjgcLXPiz2OYdjfNPr3WTMdgz0T+kjoHfFxcV+43haWlq0mtzc0tJSW1urdADJrFbrli1blK1q8i5FLaoDAAAA4g0zg6BXksc91W1BY0nijx6xOEUsSRLzkmJzz8HR0QOfOAszU7+ftyg2dwymwJjdPTy9Y6uhQ9XV1dM56Dq05ubm5ubm8cY/CSGefvrpGbiLDQAAANAjOoOgV/beKd8jJusaE3/wiD/5xOSHR1/H5/W+2XnphT91Dox6YlPZ+AqM2R0SnUGIE/JQ8ykaXA0AAAAkIDqDoFc+IbJSDdP2uLMe8WmSKEgWyyafoCYJX9sV15tdn01BXcEZUw2SJ8rwCpg+ixcvrqmpaW5uVs44k9XU1OTn5493XBoAAACAyBAGQa8+6Ot5ML9gOp847BMfjYlOn7gtWWSHvWvs8uBQU2fPNHQDqd1EZxB0JT8/f0btWQMAAADiG2EQdMw4jZ1Bin6vOO4Vi1JEUZLIDBkJjXo8R85f7hq8Ol2lfUGTrwwAAAAAQBcIg6BXU3k4+8QujIkLQhSlihuTRJDcxec70f3ZB5+5pr8wAAAAAABCIwwCItfuEeeSxK0pIk/VIuToG/j9hc9Gxrza1QUAAAAAwLgIg4CoDPvEHz1ifrJYliwyRkdfPeec5vFA48lKNTik/sJpOXANAAAAAKAjhEFAtAxCLEgSzjHxpyH3VW13r12PyUEAAAAAgECEQUBUliWLL6WIVCFOecUsY9YsY1Z/T+9Ab79X621igx63OSNT2xoAAAAAADMQYRAQoXlJ4tYUYQo4UCw7d87sudm9Fz8b7B/Qoi4AAAAAAEIhDIJehTzVfWplJoniZGFOHndBcnLyvLz5s+dm9138bHhIg6PlAQAAAAAYD2EQdEzyuKf5iQYhlqWIW8aPgdTS0tMWLMkb7B/o7+n1uKd1qvT0f2UAAAAAAHoR3i+1wMxze05uh9Q/nU+8IVl83RBuEqTIyp5tXpafnTsnOWX6/nH7WOq/LSd32h4HAAAAANAROoOgV0lCDE5X/8u8JHFLipgX6c605OTk7Nw5Wdmz+3t6p2eQkORxa7iNDgAAAAAwk9EZBL2yzJmOzqDMJGFJEV9NjTwJUqQaUuflzV+4ZFFG5qxYlBZKh9R/O51BAAAAAIBg6AyCXpkzMqc6DBrziq+lxvgfkvTMjAVL8nyDU9sf1CH1/2XQZe/rmdKnAAAAAABiaNvNKwuN2dPwIMIg6JU5I3PQ4744PLQwI3OKHvE3JnF4QFwajfE/Jzd5hv/rkqyY3tKfY6Bvw+LCZdPyLxEAAAAAQPR+0XF62s4CIgyCjskzpKcuDBJC3D9b9I2JIwPCMxaDu2WOjvwwN/XWzIwY3Gt8ksd9eeTqhsUFU/oUAAAAAEAMZaUajp22n05Krbxt1XzT1P5f+8wMgo5ZcnJPTf1OqJwU8e0c8VcmMRzFTZLc7m+njViXpN+amRKzysZxqq9nBQODAAAAAEBvXFevfiZJIx7PVD+IMAg6ZpmT+3ZP9/Q8a4lB/N/zxC2ZYmSSb/R5vbd5h399g+HBuelTUlmAU309t2YTBgEAAAAAgiMMgo5ZcnIvDg9dHB6atieWzhL/1zyRmiLCzGnz3MPPzBfbF03tvjA/J3q6CYMAAAAAAOMhDIK+rcnNi2FzUHJy8qAkTbjs2zliY45whzxs3jA6+g+Z7v91Q8YCwwT/lF26eDE1NWbTuzqk/kGPmzAIAAAAADAewiDoW9n8vGPO8zG5VUZGhtFodF648JsDjZcuXgy9OCdF/O1ccUtmkEFCPo9nfcrwS0vSvmYyhL7JoCQ1Nx15s/lYVlbWrFmzkpJCxkvhaXaev2NeXvT3AQAAAADEK04Tg76V5eb925n3ozxgPjU1ddasWcnJ17LRq1evvtl8bG5u7l1la7OMxhBvLJ0lSmddO35eCOHzegu8o/91YdoCw8T7wt45YTt/7pwQQs6A0tLSDAbDyMhkRxL5O9HTXX3TyihvAgAAAACIY4RB0DdjqmGdecnBzo7HCiNMQAwGQ1ZWlt/FpKSk3s8+O/zqoSVLl965piz0HeTj56Xese/PFuEcG9/+0Ucfnj7lHfM/rD4pKSkjIyM1dYJ+ohDkHXN0BgEAAAAAQmCbGHRvfd6SaHaK3WZZdfe9FSkpwU98P3/uXMOv9l25ciX0TXJSxLbclHCOjX/t4MFT9tbAJEh2S9Hyyg0bJrzJeI45z9+zcEnEbwcAAAAAJALCIOieJSfXmGqIJg9asHDhpr/59m2WVUGn9ni93quDg1EUeB1JGgi86PP5zHmLNm7+puXLX474zheHh/7Q0333AsIgAAAAAEAohEGIB99fVvTiufYob1J0662bt3xn0eJ8n8+nvp6ZmbX4hhuivLli+a0r/K5kGY0bHtz4tfJyQ1paNHd+8Vx7+cIlC6KYnQQAAAAASASEQYgHleYlSULE5Fixsrvv3vDgRlN2jhwJ+Xy+eyoqor+t4vbVq1MN16YCJaek3H1vxf0PPBh6THU4Lg4PNTvPb15SFHWBAAAAAIA4RxiEOBGT5iBZltFYuWFDxX+5P2PWrJu/VBR9UuNnzde+ZjAYbrOsqvqbby9YuDAm96QtCAAAAAAQJsIgxAm5OehgZ0esbjh37ty/fmjT6pKSWN1QsdCct/Gb3yq69dZY3bBD6qctCAAAAAAQJsIgxI8fLV/94rl2yePWupDp9r8dp791YxFtQQAAAACAcBAGIX5YcnItObk/a39f60Km1cHOjovDQ/cvKtC6EAAAAACAPhAGIa78aPnqU309b/d0a13INLk4PPTiufbHb1mdlWrQuhYAAAAAgD4QBiGuGFMNP1q++mft7yfIZrGftb9/x7y8W7NztS4EAAAAAKAbhEGIN2W5eZac3P/+YYvWhUy5F8+1O4eHqm9aqXUhAAAAAAA9IQxCHPrR8tWDHnesTpqfmU719bx0rv2J4lI2iAEAAAAAJoUwCHFI3ix2sLPjmPO81rVMiQ6p/ycftjx+y+plWdla1wIAAAAA0BnCIMSnQmP2j5avftZxukPq17qWGJM87p+1v3/PwiX3LFyidS0AAAAAAP0hDELcKsvNe/zmlbV2WzzlQZLHXWu33ZiVzaggAAAAAEBkCIMQzyrNS76/tChu8iA5CcpNz3z8ltVa1wIAAAAA0CvCIMS5qhsKKs1L4iAPkpMgr0+QBAEAAAAAokEYhPj3+M0r5f1ip/p6tK4lQheHh+TdYf+++h6ODwMAAAAARIMwCAmh0rxEzoP0eL5Yh9T/9++9eWNWNj1BAAAAAIDopWpdADBNKs1LzBmZPz7dcqqv54dFuklVjjnP/3v7+39708r7FxdoXQsAAAAAIB7QGYQEYsnJ/T8l93ws9f/9e2/O/BFCksf9kw9bnnWc/h+3lZEEAQAAAABihTAIicWckfl/Su5ZlZNba7cd7OzQupxxnerr+fv33hxwu/93ybpbs3O1LgcAAAAAED/YJoZE9PjNK8vm5z115v23e7ofK1xZYMzWuqIvSB73s47Tb/d0f2tJEQ1BAAAAAICYozMICUreMrYqJ/cH7735s/b3Lw4PaV2RkDzuF8+1P/LOMZfb/bNV95AEAQAAAACmAp1BSFzGVMP3lxVV5i2xftL+9++9uTG/YGN+gVGjg9uPOc+/eK59QUbmPxeXRrkvrOfiRZ/wSS7X6OjIXzocrS3vKC/d9+BD8gdXei6ftB3nOte5znWuc53rXOc617nO9YS9vu6vH8xfuiw7Z05aerpIMIRBSHTmjMwnl6+29/U0fNqxyXa4wrzk4aVFCzMyp+fpksd9sLPjYGfHgozMby4pumfhkmju9t4J2x9+/+bo6Ej5vRXeMY/X4xGjI+oFblef/IFnUOI617nOda5znetc5zrXuc71RL7uHR7qPPunrlRDembW4MDAV9aUiYSR5PP5tK4BmCmcw0PPf9Ju6+lemJG5Mb/grty8qWsUerun+5jz/B96ukvn5d2/uCDKbqCL3RdesT439Pm/2srKym688caMjIykpKQrV67k5+fHomQAAAAA0L3Ozk6v1ytJ0sKFCwcHB10u17m//OXjjo7MLGPlxk03Ly/WqrB/OWXL6enN9SZV3fHV/LnzpvRZdAYBXzBnZP5o+WrJ47b1dDd82vHv7e9/NTfv9pzcu3LzYtIrJHncb/d0n+rrebunOyvVcM/CJY8sW7kg6jtf6en59GOH1zsmhFi2bNnKlSuXLl2qvJqZOU1dTgAAAAAw86n/z/J58+aNjo5eunRJCDE0KB146YXVd95V8Y0HtKtumtAZBIzLOTxku9xt7+ux9/UYUw235eQWGLMLjNk3GbPD7xg61dfjHB76WOr/oK/nY6l/mTH7jnl5JfPylmXF5giz8598fMV5wXN1yOPxZGdnq2MgAAAAAEA4zp0797vf/c7lcq243bKypHTJspumv4bp7AwiDALCYu/rcQz0v9Z9LiM59U8DvUKIlTm5SUJkpRr8Tqa/ODx0cXjIJ8THUv+gx70sK3tBRuZSY/at2blLs7KzYrrv7HDjKwtyc4XHvWDBggULFsTwzgAAAACQUFa/7Z4AACAASURBVEZGRux2e1ZWVuqszHl5i6c/D2KbGDDjWHJyLTm5x3u6q5YU3ZqdO+hxnxvsF0JcGh66dP2x9PmZ2WsXLBFCzE/PjH4LWAiHG175sPWPRqNxw4YNJEEAAAAAEI309PTS0tK+vr7Ozs4rzgtpaenmxYu1LmqqEAYBkchKNcgjn2+NzWavSTt7pu3D1j8KIebPn08SBAAAAAAxkZOTMzo62tLScvS13zz03e9pOE96SiVrXQCASDQdbBRCmEymdevWaV0LAAAAAMSPBQsWfPbZZ+LzX7viEmEQoD+Sy3VTYWFGRsbdd9+dnp6udTkAAAAAEFfuvvtuIcTQoPTeCZvWtUwJwiBAf5wXuswLFzz44IOcHQYAAAAAMbd06dJly5YJIc6c/kDrWqYEM4MAnRkdGZH6er0eT05Ojta1AAAAAEB8+vKXv5yTk7Mgf8noyEha3G3IoDMI0JlPzv7ZfXXIZDKlpaVpXQsAAAAAxKdFixbdeOONPo+7v69X61pijzAI0JkTb77+xuvNn376qdaFAAAAAEA8y8rK8o55JJdL60JijzAI0JnLTqcQIisrS+tCAAAAACCeJScnf3b58plTcTg2iDAI0KW5c+dqXQIAAAAAxLOBgYHW1tbT77+ndSGxRxgE6FJyMv/wAgAAAMAUiuNfuzhNDNCZkrK1nkEpPz9f60IAAAAAIJ7Nnz9f6xKmCmEQoDNzc+e70wxaVwEAAAAAcS497k6UVxAGAQAAAAAABFFeXm4w5WhdRezF7f43AAAAAAAABKIzCNCZo4cOCCFWrFihdSEAAAAAAF0iDAIAAAAAAAiit7c3ddStdRWxxzYxAAAAAACAIFpbW0/ajmtdRewRBgEAAAAAACQQtokBOlNSttYzKGldBQAAAABArwiDAJ2ZmzvfnWbQugoAAAAAgF4RBgEAAAAAAARRXl5uMOVoXUXsMTMIAAAAAAAggdAZBOjM0UMHhBArVqzQuhAAAAAAgC4RBgEAAAAAAATR29ubOurWuorYY5sYAAAAAABAEK2trSdtx7WuIvYIgwAAAAAAABII28QAnSkpW+sZlLSuAgAAAACgV4RBgM7MzZ3vTjNoXQUAAAAAQK8IgwAAAAAAAIIoLy83mHK0riL2mBkEAAAAAACQQOgMAnTm6KEDQogVK1ZoXQgAAICWFi9erHUJALQ0MDDgcrm0rkKvCIMAAAAAAACC6O3tTR11a11F7LFNDAAAAAAA6ExXV9fJkye7urqm9Cmtra0nbcen9BGaIAwCAAAAAABIIGwTA3SmpGytZ1DSugoAAAAAgF4RBgE6Mzd3vjvNoHUVAAAAAAC9IgwCAAAAAAAIory83GDK0bqK2GNmEAAAAAAAQAKhMwjQmaOHDgghVqxYoXUhAAAAAABdIgwCAAAAAAAIore3N3XUrXUVsUcYBAAAoCd2u3379u3KXw8fPqzVo5977jmz2TxtTwcAYPq1trYKIcrXb9C6kBgjDAIAALhm+/btdrtd/riysnLbtm3a1jMpfkmNH4vFsmrVqsrKSqPROJ1VAQCAGYgB0oDOlJStXbVqldZVAAB0xm63W63Wb33rW0raBQAAEhZhEKAzc3Pnz5kzR+sqAAB6tX37dqfTqXUVAABAS2wTAwAAiEPKQB+Hw2G1WtUNQUeOHKmurtauNAAAdKO8vNxgytG6itijMwgAACCeFRYWPvnkk+orkiRpVQwAAJgJ6AwCdObooQNCiBUrVmhdCABAN/yGRjNDGgCABEcYBAAAZpb6+vqmpib5Y/lIr6ampuPHjysbnaqrq6uqqoQQkiQ1NTXt379fbnUxm82bN2+urKyUlz366KPKcJzCwsK6ujr1U2w22+7du+WPjUbjyy+/HFm1TU1NZ8+eVQoWn5/bJVfox263OxyO1tZW9aatysrKtWvXWiyWwPVOp9Nms1mtVvmv8icYwWnuDodD/de1a9dGU9V4GhoahBBKtXLB69ev9/tSOJ3ORx99VPnrc889J4Q4cuSI/HYhRFlZ2fr164M+Wi5V/Qih+nlQOBwOeWC2cqWqqmrt2rWFhYXqZYGHxzU0NMjvCrwnACAx9fb2po66ta4i9giDAADAjLZ7926bzaa+YrVajx8//uSTT/rNQnY6nfX19ZIkyb/Gr1+/XokDHA6Hw+FQZwFnz55VPlbyo0lxOp27d+/2y1mEEHa73W6379+//8knn1QnGk1NTfX19YH3aWpqampqCkwf7Hb77t271Vu65E/QL9GYkN1uVz+3urpafYfJVjUedfSmLthqtR45cmTXrl3jZVgOh0NJ5WQ2m81ms9XV1anrlCSpvr7e7ydBZrVa1UUqgY5aQ0NDQ0ND6E/HarUqgRQAALLW1lYhRPn6DVoXEmPMDAIAADNXU1NT0N//HQ5H0PRBCGG1WuUApbKyUr0fyu9IdXUvj1+nTDicTmdNTU1gEqSQJGn79u0hFvjxm/HsdDq3b98edLhPmPd89NFH77///vvvv1+JzOThQZNqePGrKjJyhjXeq35JkEL9FvmLGfQnwY/Vag1MgtSvjncTSZJIggAAiYPOIEBnSsrWegYZ/AkggZSVlcnzjwMbN5SX1DvLhBB2u72srMxoNJaVlSnXjx8/ruQgDodDyVkKCwsn22sjP1Gd1Gzbtk1uL5LbcJSUavfu3fI2KFllZWVeXp5ShiRJu3fvVtKWI0eOKJ1E6ijEaDRu27atrKxMjNP2EiZJkoLGZ+FXFYK8I6ywsFBZrN6IJ2/vGu/r/OSTT5aVlfnFZ/L3SI7z9u/fr47AKisrle1ydrv9yJEjylvUPyHKN0VdidVqlb+SfsJJmgAAiBt0BgE6Mzd3/pw5c7SuAgCmidFoVE7Cqq6uVnf6mM1m5aVt27apX1Iij/Xr1ysXHQ6Hcv348ePKdfWaMDmdTnW/jBI6CCEsFsu2bdvUK5WUQZ5Ko27MMRqN6iPelbxDkiT1/aurq5X8oqqqKrJNbeLzTVt+HVXhVxXarl27qqqq1LFRWVmZOnYZ7z7KZydnXuqX5Lf49exUVVVt27ZN2XRmsViUHwMlFRLXf1PUlTidzvEqkQdLHT58+PDhw5MalgQAgO7QGQQAAGYuv9/JCwsLlZQkxEvqixaLRblus9nk1EMJaOTuoclWpX6Q0Wj0S2csFkthYaGSOPg148g9MkKIs2fP+nWjKCtD33/VqlXqNqjxPPfcc0piou4nkkcd+Y3TDqeqcCipjTLVWzHeefbq76Nf65D8aL9v6+bNm8d7unplfX39eHvTxutRevLJJ5WvWATNYgCAuFReXm4w5WhdRewRBgEAgJkr+kPQ165dq2QEra2tVVVV6hYheTfZZO+pzjWCvl19sbu7W/7A4XDU19eH02ijzl8C5y5HULAcganHadvtdjmFCb+q0CLevzbhp6P+ahQWFoZYP6ncyo/FYongmDYAAHSKMAjQmaOHDgghVqxYoXUhAKAPlZWVykhpu93utwMrgtHRkfEbCC1veausrPQ7Z33q+LW6OBwOi8USq6rU45wsFsuqVavKysrMZrPfLKeZjCQIw2O+Ea9X6yqAOJdtSNG6BFxDGAQAAOLc5s2blaYVm82mDAwym83Rj4YJuvtJ3aKSl5cnhDhy5Ig6c1FPaw59/8BulwnfEr6Iq/KrR0mCjEbjrl271C9FX6TfNChlqnTQlcoT5aHU0T8diWPE6+1zEwYBU0uPYVBvb2/qqFvrKmKPAdIAACDOqUOB1tZWZUtUBKOjZeoISZIkv+YXu92uTnDkxePt/Ap6cLu6i8evlUlcPyY5fK2treq/yjVMqqrxjHeTwMoj4/fVCNFqpP6+RPZVAgBMqXPnzp07d07rKiantbX1pO34xOv0hjAIAADEObPZrORB6unIoY/lampquj+AvHlKfYC6EMJqtSq3lY+WV16Sh0n73Vnpx7HZbEHn7FgsFnXzS319vZKqqA99D596G5cYZ2z2hFWFw+FwyF8K+Xz6mHQGBX616+vrlTvbbLbt27fLH69atUpZZrfbd+/erZ6F1NTUVF9fH81cIQBAlLq6urq6urSuAkKwTQzQnZKytZ7BmG0QAIAEsX79er9DsiIbHa3Ytm1bTU2NHEnIwUfgGvVZ6TfffLM6MPrWt76lrAmamKi3tsmTfSZbYYihPxFXFZQ81FlZr/5STOo+Iai/2kKIpqamoP1BlZWVR44cUQIgm83m900XIQ8jAwAgcdAZBOjM3Nz5c+bM0boKANCZwLOiohwdbTabd+3aFWLqsN+CysrKoIuVXMZPVVXVeI1L1dXVk6/3C+phOpOtajxBE5aysrJYTe2Z8Kut2LVrV/RzoAAAiHt0BgEAgISwfv16pdcm6D6pySosLHzuuecaGhrOnj2r7kApKyu7+eablWHMyhPr6ur279+vbNcqKyvbvHlziO6kbdu2rVq16siRI8q+sMrKyvXr10fWa1NYWLh27drKykr1EyOoKqiqqiqz2bx//365K8doNG7evLmqqkq9Yy5Kyle7tbVVvVFO/morf5UnWNtsttbWVr/uoerqarPZzKlhAIBJKS8vN5hytK4i9pJ8Pp/WNQC6UdNqq1pSdGt2roY12E+2uF19HC0PAJO1e/duJbJRn5wFQKcWL14cw7v1u8c4TQyYap2t7woh1qxZE5O7tbe3t7e3L1q0KLb/NvDz4YcfGkw5lpLSqXuE4l9O2XJ6enO9SVV3fDV/7rwpfRadQYDOHD10QAhBGAQAk+J0Ov2adzQsBgAAQFuEQQAAIM45nU71VOPxBuUAAAD46e3tTR11a11F7BEGAQguOTnZYDBoXQWgjZGREa1LQAzIR4n7XTSbzVEOYAYAAImjtbVVCFG+foPWhcQYYRCA4AwGQ26ultORAA11dXVpXQKmhNlsfvLJJ6M5UR4AACAOEAYBOlNSttYzGMk5MgDCNzAwIISYPXu21oUglqqrq/3O0gIAAEhMhEGAzszNne9OY/cWMLXa29uFECUlJVoXgqhUVlZWVlZqXQUAAMCMQxgEAAAAAAAQRHl5ucGUo3UVsZesdQEAAAAAAACYPnQGATpz9NABIcSKFSu0LgQAAAAAoEuEQQAAAAAAAEH09vamjrq1riL22CYGAAAAAAAQRGtr60nbca2riD3CIAAAAAAAgATCNjFAZ0rK1noGJa2rAAAAAADoFWEQoDNzc+e70wxaVwEAAAAA0CvCIAAAAAAAgCDKy8sNphytq4g9ZgYBAAAAAAAkEDqDAJ05euiAEGLFihVaFwIAAAAA0CXCIAAAAAAAgCB6e3tTR91aVxF7bBMDAAAAAAAIorW19aTtuNZVxB6dQQAAAPrzaZJt0Hdpsu8qEg9NRTEAAEBfCIMAnSkpW+sZlLSuAgCgsbMjr3cOt072XUUmwiAAAEAYBOjN3Nz57jSD1lUAAAAAAPSKMAgAAAAAACCI8vJygylH6ypijwHSAAAAAAAACYTOIEBnjh46IIRYsWKF1oUAAAAAAHSJMAgAAAAAACCI3t7e1FG31lXEHmEQAAAAAMx0rec8fYNerauYhK/eYsgwJGldBRCt1tZWIUT5+g1aFxJjhEEAAAAAMKP94az7iH1U6yom58yFsR9UzNK6CgDBEQYBOlNSttYzKGldBQAAAKbPma4xrUuYNGef19nnNedwZhEwExEGATozN3e+O82gdRUAAADABK66fVqXACA4wiAAAAAAAIAgysvLDaYcrauIPXr2AAAAAAAAEgidQYDOHD10QAixYsUKrQsBAAAAAOgSYRAAAAAAAEAQvb29qaNurauIPbaJAQAAAAAABNHa2nrSdlzrKmKPziAAAAAAmNG8Pt+YL/Ync31l+azbCtN7+sfefG9wYMgb8/sLDhMDZio6gwCdKSlbu2rVKq2rAAAAwPTx+nxj3lj+udFs+E5l9leWZ6QZkhblpn6nMvvLRRmpKSK2T9FLFvTLnz/zwF0l37nv6xOubHzpBfXKo68efOCukgfuKvl//vaRST3rgbtKGl96Ybw1J954fWvVg0dfPRjmPYEI0BkE6Mzc3PnuNIPWVQAAAGD6jMWuM8iUlVxRYlw83/+/J0uKZ91+c8bv7YNnzo3E5EFCCJ9OWoPWlH+98aUXpAHXiTdeX1N+b4iVxw4dFELc98BGv+sd7Wc+OPnu7SV3hH6QNOAKHfGceOP1o68e/ODku+EVDkSOMAgAJu03v/mNzWbTuoqoZGRkfOMb3/jKV76idSEAgOnT0NBw5MgRp9MphDAajZs3b66srDQajUEXO51Om81mtVrlvxYWFq5fv76ysnL6yoWK1yfGos5V0g1JX12RuermjPEWpBmSKkqMy5em/+Gjq52XYjAxVy+tQQVFy82LFjsvdJ1447chwqCO9jPOC11CCL/QxzjbJKc8E4ZBR189KA245PV+d7a/9+6BF3/pdx0zQXl5ucGUo3UVscc2MQCYnAsXLug9CRJCDA8P/+Y3v9G6CgDANHE6nY8++qjVapWTICGEJElWq/XRRx+12+2B6+12u7xeueJwOOrr6+vr66epYlzP67vWHBTxn+VL0x/dMCdEEqTIn2/YfLdp3R3G1NRoHzoNX5lYWffgRiHEByffDRHHnHjjt0II86LFfqHPwsWLhRAn3nhdjopCkBuL5PVqjj+1//Lnz0gDroKi5f/zF780L/JfAMQcYRCgM0cPHXjjjTe0riKhDQ8Pa11CbMTNJwIAmFB9fb3T6TQajdu2bTt8+PDhw4d37dplNpslSdq9e7ckSerFTqdz9+7dQgiLxVJXV3f48OGXX35Z7glqampqaGjQ5nNIbF7h8/oi/LPYbHjkvpzKO4zphqTwn3jr0vS/+8bcr1qyIn6u16enNMjylTuEENKAK8QWLXmHlxwbqRlnz5bjITnrGY+cFpkXLS78UlHgq2vK733ip7v/5y9+WVC0PIL6gckiDAIAAADimcPhkNt/tm3bpuzzslgsu3btMhqNkiQ1NTWp1+/fv1+SJLPZvGvXrsLCQiGEnCKVlZXJr077ZwDhjWKK8+y5hispySOTD2ZGfKLrxllRDZDWTxpUULRcTmHk9p9AStNQ0H1k8kV5F9h4j1CypMAGovse2PjET3eHHlcErfT29l7puax1FbHHzCAAiKV169YtXLhQ6yq+cOrUqQ8++EDrKgAAWnI4HEIIo9EopzkKs9lssVhsNlt3d7dyUZIkeTd0dXW1332qq6ttNpu8wO9WmGrRHC3vHvMlpSefc4t0t3dJVnI47QAjHt8fR8UffElCiOh2e0X+3g9OvvsvNf8ghHj17ZPOC10HXnxBDlOMs02P/OBxZYTz0VcPHn31YEf7GSGEedHihx7+nvKS80LX1qoHhRDj5Sw//7d/PfrqQbklRwixpvzr8hxoeayP3+ITb7wuPp8uFHir+x7YeODFF+SpQ4HjpcXnE6aNs033PbCR+dD60traKoQoX79B60JijDAIAGLmxhtvvOOOCQYHTrMbb7yRMAgAEJp6hrTdbpckKTA5EkKYzebCwkKHw3H27FnCoGnmFZEPkPZ+/sYRQ/KfrvpyU8X8kPvFPpS8v0v+opMomsHVMWkM6mg/8y81jysdN9KA6+f/9q8Xu7oe+cHjcpqjrHRe6FJeEp8P9/ng5LtBx0JLAy65CWhN+bVz4u97YKM8uCdooOO3ONC6Bzf+8ufPHHjxhaBhkFznfQ9sDIyZAE2wTQzQmZKytatWrdK6CgAAoBtlZWXydjC/AxCcTqe8fUz9nxZnz54VQsi7wwLJ1+VWI0ynsSgGSKvPd09OSbriS2qTvEPeIE+5NOx9ZVgcTbpuT1k0A6RjEgY9/eMnby+54z+P/vbVt0/ubTgkT+dpfOmFX/78maOvHrzvgY2BLyn7sOQM6MQbrwfu3lI6gJScyDjbJN8hsHNHuUPQoEcmBz3OC12Bb1dOlA+cNwRohTAI0Jm5ufPnzJmjdRUAAEA3jEajvOdr9+7dyvhnm822fft2SZKqqqosFouyWD5uzGw2B71VXl6esgbTyRtFIuMNiGRS0pI/9YizktetNA2N+ZqGfC+OJX865r84qjAoFmnQwsWLn/jpbrmhxrxo8f+o+w95o1bjSy+sKb/3B//835SXlGXyli6h6sQJnAQkX3no4UfUF8cLjz5vC7o3RF+PcbZJ7htSNyvJ5Ctryu/lmDDMHGwTAwAASCynT58+deqU1lUg9hYuXHjvvcEH0FZWVhqNxvr6eqvVqj4wvrq6uqqqSr1SPllMDn0CqTeUjec///M/J1F0FEymWG63GR7zDgemJtPi24/+3YRrfD6fN9LyxotkvGnJZ6/65qT4ur1Jb/uSxpswHfFzYyWwGWdN+b2NL70ghJC3gymMs00FRUUfnHz3YleX+u2NL71w4o3X1feRBlxyYOS3fWxN+dcDd4opR4yF2CMme+jh7x199eCJN153XnhcyX2kAdeBF38Z9BOBLpSXlxtMOVpXEXuEQQAQMxcvXrx48eJMGyCtdQkAZpxTp07t27dP6yoQeytXrhwvDJIk6fjx435HyAshjh8/XlZWpu4DCqfrJ/QafromK5wwaCyKAdLjvc2QJBZnJPWPJSULscArPh1nXTQDpH2xmBokb91SyzLNFkKYFy0ObLQxL1rsNytxTfnXG196wW8stNyqc3vJHX53kHeKnXjjdXV4dOKN3/ptKBuPMqXo2KGDSlAlv72gaHngJwJoiDAI0Jmjhw4IIVasWKF1IQhieHj4xRdfnFFh0F/+8hetSwAw49x2221al4ApMd7/AEmStH37dofDYTabq6ur5dnPdrt9//79dru9pqamrq5uvH1hEdiyZUusbhVa3HQGhcPrizyU8Qa8MVmIuSliXooQQvSPiVlJ4vYUkZ8sPhoTroCHRBUGxeIrGrgza1IzmOUz4zvazxx99eCm735Pvihv+wraqrOm/Osn3nhdHR6F2RYk2/Td731w8t2jrx586OFH5LcfePGF8Z4FaIgwCABiaXh4mPwFwAy3cuXKlStXal0Fpo/VapWToLq6OmWfl8VisVgsNTU1Doejvr5+165d8vVwNoKFTo6+853vRF9zOBYvjuX4lX73WJ872FDlmcHri/xUL7/3ZSeLBalBZsfOSxJfSxWdXvHRmHCrrkdzmtgMcd8DG3/efubEG7+Vw6CO9jMd7WfG6/RZU36vcfZueeTzpu9+b7wNZeORu42cF7rkt39w8l3nhS75RPnYflKYNr29vamj7onX6Q0DpAEAAIC4JUlSU1OTEGLz5s2BQY88WNputysHhMlrBgYGxrubCC8wQmyNiRgMkM5MFjcYhDlYEqTITxZfN4hbUlSP1vo0seitKf+6cbapo/2MfMpY0NHRfuvF5w1B8oYyef9XmI976OHvCSGOHTqovD3EszDztba2nrQd17qK2CMMAgAAAOKWkvIEPS1eOUdMWSZ3/Yw3FUgOiWK4pwxh8np9Y5H+8fl8hiRhThU3pIrMpImflSrELcni66liXpIQQkT83DHvTEmDlHO+5B4f5Wyv8dbLL8k7xeRIaFJHwsvZk9wcJD+RtiDMQGwTA3SmpGytZ9B/+iOmU29m9vBX7ta6CgAApoR8jpjdbg/6qnz95ptvntaaIJ8mFmmyMndW8lLD+F0A49x1VpL4aqpwjvnORpXozIw0SIg15fceffXgiTd+a160WBpwBY6OVlNv9fp8YFBYe8Rkxtmmhx5+5Jc/f+aXP39GqI63B2YUwiBAZ+bmznenGbSuIrHNzrEV/5XWRQAAEBZlS5fD4QhsDlJCH2VZWVmZ1WqVJMlutyt9QzKn0yk3EMkjqDGdxqIY5Pzqic/SU5LKlxtTgrUFhbjpx/2epqPO6E4TmyluL7lDGSMtwgh35NPr5SPhC4qWh0iOxnu7fES9oC0IMxXbxAAAAIC4VVhYKGdA+/fvD3zVarUKIYxGo5L7mM1m+ePA9fJii8XCNrHpJw+QjvjPr37fU/tSZ/vl0TAf1+/xHXznyv6GzoEBTzTPnTlhkFBNAgpnnLO8WE5zwjxHTM28aLH8CDmEiqRczBjl5eX3PfiQ1lXEHmEQAAAAEM82b94shHA6nTU1NUorkN1ul8+bFwGzpZWp0rt375aHB0mSVF9fb7PZhBDbtm2b/k8B0cwMkv985nLvfqXrJwe6e4dDHZrm9ok3zwz8h/XcmdP9UT5x5swMkikBUDitOvKB9OGvDyQ3H9EWhBkraWb9AwrMbDWttqolRbdm52pYw79t/2chxD/+4z9O9YPS09Nzc7X8TGesPw6O/d25Ea2riI0/3pqpdQkz1KFDh4QQJSUlWhcCjOuN0Z90DrdO9l2PmF6dimIw89lstt27dwd9qbq6uqqqyu9iU1NTfX194OJdu3b57R3TUEIdLV/TcMneGbP//PjrO+c+sDonPVkIITpHxeDn19t6RpqOXRyUPLF6UF3VAkt+eqzuFiXnha6tVQ8KIfY2HJrsti/ESmfru0KINWvWxORu7e3t7e3tixYtiu2/Dfx8+OGHBlOOpaR06h6h+JdTtpye3lxvUtUdX82fO29Kn8XMIAAAACDOlZWVPffcczabbf/+/fLx8EKIqqqqtWvXBj1lrLKy0mw2HzlyRO4GkhevX7+eDWJakU9qj9XdDv7hs9+f7v/bioWWxRnylUsj3oYj3ZcuDsfqEbIZtVHswIsviM+HQ2tdC/Skt7c3ddStdRWxRxgEAAAQD3xeMdjr8Xmv/eqVmZOaYgjjEGkkDLPZXFVVFdgENB6LxTJzmoDg84mITxMLqmfA/fSBzoK8WVVfX/jbPw+89+5nMby5YubsQpGPBhOTPBcMEEK0trYKIcrXb9C6kBgjDAIAANA9n1e4Lo+Oub/4xct1edQ0P408CIgP8gDpmPvzhav/+uK52N93huloP/MfT+8WQtxecgdDfAAZYRCgMyVlaz2DktZVAABmEJ9XuC5dRVDBGgAAIABJREFUlwQJIXxjwnVp1LSAPAiIB2M+35h3xrTZhE3zirdWPei80CV/bF60+Af//N+0rQeYOQiDAJ2ZmzvfnWbQugoAwEwRNAlSv0QeBMQBb0xnBk2bmVPypu9+76GHHzHONmldCDBTEAYBAADo1bUkaHTc37d8Y8J1cdS0IC0ljTwI0DG9hkFa9wbtbTikbQGIA+Xl5QZTjtZVxB5hEAAAgC7JSZBn/CRIWdZ/adS0IC2VPAjQLa8QegyDAMxYhEGAzhw9dEAIsWLFCq0LSXCT+K8xc6r4frYvL/XaW44PJTUNJkne4IuNyaIyy7c289ris6NJDQNJTs+4d66a7bs57dri1uGkhoFx7wwgzox5Pa6LQZKgjPSk1JQkaei6fxdc6w9amDaNBQKIJa/PF9vTxKaH/ioGEgZhEILbunVrS0tLTU1NdXW11rXEnnxO6t69e0tLS7WuBfoU9n/aVBp9P5p33erb033rs3y7P0t2jPovLkwTdQu9Wcn+i+t7k5ok//8/vyzT9+Q8n9/izbN9NReD3BlAnBkZkzrOtwUmQcbM5FVF6akpSWc+GXX2XBck+7zCdXH0srFjfkbBNFYKIDaMacljOvz/e4oWpGtdAhCt3t7e1FG31lXEXvLES6A3jY2NFotlw4YNWhcCJLqyTP8kSFaQJp6c5zVe/y9gY7J/EiTLShY/muezZFx3n8I04ZcEKYvrFnrN5PxAXBsZk17peGJoeMjnE+o/WbOuJUFCiOXL0szzUv0WeMfEKx1PXL7aofVnAGDSHv/a3My0pDGfT0d//mHtHFMGv29C91pbW0/ajmtdRezxGwMATJVtc8btICpIE5VGX4Pri36f7+cECXcU1dm+muEk9V/HW5yVLL6f7XvqMyaDAPFpZEx6paP28vDHfteNmcmrl19LgmTLb0oTwtd9fX/QyJj0yse137xpz/xZ9AcBelK8MN1eW9DmHHGNjEVzn84//q7zj78LvcaUt7T4G9+P5ilCiPxsQ34OB+ACMxdhEKAzJWVrPYOS1lVgYoVpYmHIf8WunXVdGLR2Vqi9Z7dnCGOyUOYBrckMtXhtJmEQEJ+uJUFXgyZBGeokSLb8pnQhRPfl6/Mgz+ArHbXfLCAPAvSn2BztrquT5zIup09wk3mz0++8MTPKBwGY4WjbA3Rmbu78OXPmaF0FfBP+MSaHM1joi/WhkyMhRGGa+v6hZCWHVSFTHQF9GRmTXu6ovXT1Y79/jI2ZyauLgyRBsuU3pZvnp/q9ZXhs8OWO2kvsFwMST2pKavpEDAaGzQPxj84gAJgRBr0ixDYxIQTHhAGJbGRMetkRpCdodlaoJEhWfFO68AXrD3LUfrNwzwL6g4BEkpKakj5RZ5Ahje1dwBfKy8sNphytq4g9OoMAYEpMeKRX9/UHxtuHQy0e9F53w4vjHDYv6+A0MSC+RJMEyYoL0vPm+/9fgCNjg6846A8CEks4nUHu4atalwlgyhEGJYqWlhaLxSIfqe5yuaxWq+VztbW1bW1tod9bW1urrN+5c2eI9c3NzTt37rSo1NXVBa6XC9i6dWvgHTo7O+U3dnZ2Rll/W1ubupja2tqWlpYQn6kuHD104I033tC6CkxM8oqGgVALnu+/7ve3/QOhfp3bf/2trP2hFod+FYC+jIxJL5+tvTz0sd8uz4y0pDCTIFlxQXpebqrfTUY8g6+cJQ8CEojPOzZhGDQ2yv+tBMQ/toklnM7Ozscee0ydszQ3Nzc3N+/bt6+4uDhwfWNj486dO/2uNDY27tixY9OmTerrLpcraNpitVqtVmtNTU11dfV01m+1Wuvq6tRX5JV79uyJvgwkuvCG7Tzfm7Qq3VcQbN/9Uz1JTvd1V+xXRYNLVJmCLO4YFc/3Xvf7XtOAsKSLSmOQxU2SsA2GVR6AmW9kTPr12SA9QbLzqg7D1BSxJM9/Z8flK2MDQ9dtMQ38t9fw2ODLZ2u/dTP7xYCEMORyTbhNTAhxdVCalRXsvzOAxNPb25s66p54nd7QGZRwdu7caTKZ9u7da7fb7Xb7jh075Os//elPAxfLnTWbNm167bXX5PV79uzJz8+X76NOZIQQjz32mJwEVVdXv/XWW/L6vXv3lpaWCiHq6uoaGxunrf7m5mY5CSotLd23b5+6GL9sC4hIWOOZJa+vxikaXNe986JH/PiSaJKCrH/minjmynVbwAa94vk+8eiFIE98qkc83ycGvdctfuaKeKon3PIYIA3McCNj0q//HKQnSP5zddj38flR5c+fPxntdfkfOH2+261ec+GSJ+itRjyDL/+Z/iAgIQz1907YGZSent5/+ZLWlQIzRWtr60nbca2riD06gxJOV1fXvn37TKZr7Qdyd4+886utrc2vuaa5udmvo6eiomL58uVbtmyR92opWUxjY6O8V0tJf2SlpaWlpaVbt25taWmpq6vzayaauvrlJKiiokLdByQXs2XLltDb4oAYkrzimSvi+T5RmHbtr6FnCTW4RINLFKYJY7IQEw0Ser5PPN8nLBnX/hp6MQB9uZYEjdMTNAWPG3z5z7XfuoX+ICCeXf70L2lpYZ0U9llXp3npTVNdDwAN0RmUcGpqapQkRVZRUSF/0NXV5bc4Pz8/cG+XcrG5uVm5KHf9bNq0SZ0EKeTMyOVyqd8ydfU3NzfLXUs1NTVB7xBlDdoqKVu7atUqravA5EheYR8W9uGJp0rLHKPX1odDXkkSBMSTkTHp13/64aWhDt9kBHb7Tertw55rD9XiMwYw5cY87oufOMJpC0pPTx+RXANXPtO6ZABTiDAo4QSGNSaTSd755XK5/F5ScpagN3G5XPJbXC6X3Gtz5513Bl2fn58v9+z47SyLQDj1y8UUFxfL1ye8g77MzZ0/Z84cratIbD5f/PwBMPNcS4Kmqyfo+kcP/vrP5EFAHBrzeLraP0ryesMMg9LT07vaTg1LIc/CAKBnbBNLOH5tNZEtVq67XC6TyaREPMuXLx/vVrNnzxaxCIPCqV9+SohigGgRowCYGp/3BMUoCZr8cLARz+Cv//TDv/nSzxZksl8MiAfukeHBK5/1dXd5RobDGR2t1nm6dfb8hTl5i9MZJo0EVl5ebjDlaF1F7BEGIRKBPUQzygwvD/GAMAjAFBgZk34VwyRICBHRoPjhscFf/emH3yYPAvTMOzbW13nual+vd2xMCJEiRMokk6D/n737D2vqzPPGf/MjoBCiUiwppO3siC1Q1DgtMjOE9pkoCltn/JH4zPM4Fjfts0vHavNsO+haS2dXi3zVq53NoI58Z2tW67A7Y6I4Y1colpkOsWtk2kTbBmaMHdsGTKttbDig/Mzzx12Px/wiJAdOAu/XxTWXnpyc8wkDlrz53J+bGnBf/9x9nRAimp4y4x7Z9JnoTweYJBAGQTjY6Tx0HRbbrdPR0eF3ZRYhpKenhz0/uMijHJlMZjabA10n8u4kYTU3HiOEFBQUCF3I1IYwCAD41j/M/Ecnz0lQ2NsG9g/1/kfnT/53LvIggJjkGR52Xfrz8OCAKDGRJPL0jm9kuKfr4/iE+OS0GfxcEAAEhTAIgjl79qzvAGl6nHCG78hkMplM5nA4zp4963fMkMPhoHN8vOb1dHR0+J5M96ePBI2caB7ku6ws8uvDVIdpOwDAtwiToOmitKL7Vn3nniXS6Q+zB2+MONPnnG67dLzrq86wSkIeBBCrbn7l8gwPxcfzPx+297MrCINgqnG5XIkDg0JXwT8MkIZgzGaz7/5fZrOZ7h22dOlS9iDd4t1oNPqNWuhG7+wYaXIrr3G73V7nu91uevFI0EDK7Xbr9XqvhxwOh+9BAAAAAfUPM//R8ZPPez/6upHHQ4iHJCbEFTwwbXpyPPeg34/y3Gd+urRl1bwt3CSIEDI9Xvqd+9Zt/p5xk+Lf06dnj3qdtNT4+7NE3CP9Q73/0YF50gCxJy4hQZSSOh4fCSKR0C8OYKJZLJZ2U5vQVfAPnUEQjEwmq6qq0mq1bH+QXq+nyU5+fj4NgCiVSmU0Gh0OR2VlpUaj0Wg0tCXHbDYfPHiQJj67d+9mzy8tLaXNRFVVVdXV1TS+MZvN9OKRl03r0ev1DodDq9XS7Ikeyc7OjvWVYiA8dAYBAE/6h5mGDu+eoMTEuMIF09NS47s+G+y7GfC500Vpz5Ycyp7xYPBb5GQUblYa/+3spovX2oOcdvddiXPuT0oTJ7z/59u3vDnc29Dxk7V56A8CiCXTZsyaNgPDfQAgGIRBEIxKpTp79qxOp/PKaPLz87nJDiFEIpEcOHBg8+bNNptNr9d7dd9IJJI9e/awbUGUVqutqqpyu91VVVXsQZlMVl1dXVlZGWHlWq3W4XDQziZuc5NMJtuzZ8+jjz4a4fUFVKgoGeplhK5iykMYBACE2Gwdb7/dplavnj07I7wr9A8zDR3P+yZBixZMT0ul7dsBp/6EmASxJ28q+fddratHXTKWlZlISDI3D6JFrs17BXkQAADApIFlYjCK+vp6rVbLTt6RyWRarbahocF3FLRMJmtoaNBqtdzBQPT8kydPek0LIoSUlpbW19dzZwxpNJqGhobs7OzIy5ZIJLRytk6JREIrCWVz+miWnjF71iz8qkdodGzQJPgAgMi8/Xbbli3bDIZjvb19Y31u/zDTYHved3XYovkpt5Kg4KvDNnolQX0DnmZb/6/O3filqe+49eYnXw573fHZkkPTE9MCXvOWrEzRvAenea0Xa7A9j/ViAAAAk0acB28GAEKmtZjU9+U+NCPM3wDzwtpuHnRfn4DdxJKTkzMyhHylUetd98A/dLiEroIf7xZlCl1ClGpsbCSEFBYWCl0IRDWbrWP79p30zxkZGevXryssfDj4U1g3aRJ0Z0+QKDFu0YKUNPHt39WdO9/35XXvTIcQMnf2omdL/p17pNnWf/z8zRsDd/xcl5uZqFWmpiTFsUfMHzceefcFvyXlfCM55/4k9q9dnw2+33nHErXkhNS1+a9koj8IogYvv0FkfTU4fH1whMcLAoAvh+UcIaS4uJiXq3V2dnZ2dmZlZfH7r4GXDz74QCSZKS/0bm4YDy9dMM285soYiVMv+o4s/a5xvRc6gwAAxm5kZJJ8AABPrl279sor/7p9e83lyx+PevLNIabhQ++eIOIhCx+azk2CCCHpMxLTZyT4fix+oIJ72q/O3Whov+GVBBFCOj8bes7o7uMcL7p/ZaBh0qKEO56b7bc/6MPnP+tFfxAAAEDMw8wggBjT3HiMEDIBnUEQkMdDPIhRAMAPm63zn/7pxcceK6moWJeamuL3nJtDfnqCCCHzcqelz0zwOpjzjSRCkrwOiuLSHkpXsn/tdA692dEfqKQbA55fmvq0ylT2yOMPl11N+E0oLydbKiKEcPuD+od7G2zPr81/JTMV/UEAAAAxDJ1BAABjN+KZJB8AMA7efrtt06Z/NBiO+T70dRLk0xM0L3caTV5CIUmcy/1rsy1gEkS99+ngNeZ2hH1P6iMh3ogQki0VzctFfxAAAExdLpfry2tXha6Cf+gMApiKDIZj5eVlgX5rDcGJE+ImxwIrcSJ+HxDMp586UlPFQlcBUS3IirC+vj6D4fgf/tC2YcM/5Ofnscc/77v0Wa93T1De3OTQkyBCyF2iOyYTdXw2NOpTOpxDJTlfdxglxaeFfi9CSLZU5GZGLn86wB65Odx7+vL+Hz30ypiuAwAAEIssFgshRFm+XOhCeIYwCGAqom9R1qxZ/dhjJULXEnseFCctvzvl5GeM0IVE6iffTBe6hKj2m9/4aesAGJNr165t377zkUe+9ZOf/OPXh/zuFB9Zl57vqCA/lTARRdg3box4F4nOQgAAgFiGMAggxhQqSoZ6eYghrl279otf/P9vv/1HtXo197fWEIp/yc2o/MbMKzcHhS4kfA+Ik9PQGRSUTJYtkYytgQKmmt7evo8//iT4OXR+UPBzOi72ixLjsu8ZQ3PQWHE3FBurCx03P7s6evMRAAAAxBCEQQAxJj1j9mASb28YbLbO7dt3PvZYiVq9evZsbCQ/BlnTErOm4Z/QyeyHP1Rha3kIjru1vK/8/NyKinXf+Mb93IMzpmUmxaf0D/d6nXzedsNDiCy0PMg99BfuX3MzEztHWymWJ73971X/sDuUu1AXbDccV/wE33djgDQAAEAswzsZACBvv93W3v7u3/7tMrV6tdC1AADEvIyMjPXr1xUWPuz70Ixk6bp5rx55/znfPOiC7QbxyYPevdDn25VzV+p7Dz9++6+KnKTgYdB96Qn3pd/ep+yc/b9//xc/eVD+A9O+ce8dO5cFSoLm3b209G82BLkjAADApKFUKkWSmUJXwT+sEQAAQm7NOt248R/b298VuhYAgFiVkpKiVq/atavGbxJEZabOWTfv1eSEVK8NxYiHXPjQO3wZGvQ+h3jIF0zXxavt7DklOUnfujdgS9H0pLi/L75ju4ALjrd8r0k8ZHDwjjlAF2w3HN2DvqfNm730+3M3j/lTAwAAANEEYRBAjGluPNba2jpOF7927dorr/zr9u01QbbIAQAAvx57rGTXrhq1evWoezXSPCgpMdU3kzl/Zx7kL7QhHkJa/3yIe8G/V6T4zYOmJ8W9sEzMbQs6e7nxWm+X32tynbfd+LR70PeceXcv/f4DSIIAAABiHpaJhe/gwUN6/aHRz4PJ5T2hC6DeeeeJ8bu4zdb5T//04ve+99j27T8dv7sAAEwa+fm5Yx3Gn5k654l5r75+4bn+IZ/5QR/cIB4iyxIREmD3MULOO966+Hn73Lu/HmuVkhSnVaZ2Oofa7APsxmHfuk9UkpPEHR19Y7Dnjff3jroR2PkPbzi6/awOm5+JJAgAAKYcl8uVOBDD+8YEgjAIAPxISUkpKHhI6CoAAKJdSkrK+vXrHnusJIznZqbOeWJ+gDzowxuE3MqDAjhgeubl7781XXR7z7tcaWKuNNiPdofNW7/o7QpeFZIgAAAALovFQghRli8XuhCeIQwK35NPrn/yyfVCVwETSmsxqe/LfWiGkLtu7dq2hRDy7LPPRnKR//W/gjUWqdWrysvL0tNnRXILAIBJ7/7776+r+9moi8KCCN4f5Oge/OLLgJOhb/T3/OytiqdL9qWnZo16oxuDPUffqz3/6VtBzvnr5QG3e9j5uZ87IgkCAACYZBAGAcSYQkXJUC8zThd/5JFvrV//BPaYBwAIRSQxECtTPOeJ+a8e9pcHXQucBFGfujpfblq5vqh2gWxxkNMuft7+m/d2Olydwa82MOS5EigJehBJEAAAwKSCMAggxqRnzB5MCrZwIDwZGRkbNvzDmAZeAAAALzLFcyrmv3r4vJ88aFQ3+nsO/HHjA5mLvvM3qxbcu5i7aowQcvHz9pPv7/3LZ+fCrm1+5tIfIAkCAACYdBAGAUx1dCPkv/3bMqELAQCYujLFcyoWvBJeHkQI+ctn5r98Zn5O/Do7Upp7POyq5mcu/UEukiAAAJjSlEqlSDJT6Cr4hzAIYEorL18Wyi7IAAAw3jLFOU8sePWwNcw8iPjbdsxDiGe0vcMCWSBd+oPcLWE+GQAAAKIbwiCAGNPceIwQUlBQEOF18vNzf/zjSowHAgCIHlJxToU8ojyIL0iCAAAAJrd4oQsAAAE8//z/femlbUiCAACiDc2DkhNSiYeM6UMuW3LvrFyvq8llS+5KzR7rpRZkIgkCAAD4msvl+vLaVaGr4B/CIICpqLDwYaFLAAAA/6TinIqFryYlpoYe4Chz1z/92F6v6dGEENms3Bcfb5TNygv9UvOlS3+QhyQIAADgaxaLpd3UJnQV/EMYBAAAABBdpOKc9QtfTU5MDeXkBzIX/c9HtgZ6dLoo7cf/Y19KkiSUSy2QLl2BJAgAAGAKwMwggBhTqCgZ6mWErgIAAMYXzYMOvTf6/KDvz98U/IS7UrO+881Vb3UcCn7agnuQBAFEO+f1kRuD4Y6Fn1j3zIyfJooTugoACAhhEECMSc+YPZgkEroKAAAYd1JxzvpvjZIH3SXOfiCzMNCjLPm9S4KHQUiCAKKc8/rIwT/cvBkjSRD1vXzR9x5KEroKAPAPy8QAAAAAohTtD0pKSPEEcFdqVijXuXdWbqAreDye+VgdBhD1Wj8ciK0kiBDye9vg9d4YqxnAl1KpXLZytdBV8A9hEAAAAED0kqbl/N23fhbi/KAwLLhn2cp8JEEA0e7moNAVhMXVNyJ0CQDgH8IggBjT3HistbVV6CoAAGDifJ0H+dtv/lpPVyhX+NTV4X8XeSmSIAAAgKkIYRAAAABAtJOm5fzdwz9L9tlv/hrT9QXTPerTLZ+c9s2CFtyzbOVDSIIAAACCcblcX167KnQV/EMYBAAAABADaB40zac/6NfnaoI/8cZAzzsXj3s9S44kCAAAIAQWi6Xd1CZ0FfxDGAQAAAAQG6RpOX/3yM+m3Tk/yPLJ6Xfsx4M8a1/rhr4BN/eIPAtJEAAAwJSGMAggxhQqShYuXCh0FQAAIAyaByUnpHo8hP042PZPv7XuvTHQ43XyF0z3v5xY2XnlHPdkrA4DAACARKELAICxSc+YPZgkEroKAAAQjDQtR1P4s1+2bxgaGmIP/tZSd/rDQ8VzV90llt2bnvtn57lPv+iwfHLa67nyrGWrCpAEAcQej8cz4uF/m/a0lPhH8qb/9crA5e7x2a4MO8sDRCuEQQAAAAAxRpqWs0A+3/KeZWT49jutvn53yweHgjwrbbYISRBAjBr2kGFeg5VkUdz8udMW5CQnieIeuD+p++rQW3/q7eF7J3hkQTAJKJVKkWSm0FXwD2EQAAAAQOwRi8VZD03v/rBvJLQ3iGmzRXfnTBvvqgBgnIwQzzB/nUHfzEp6VJ6SlnJ7ZkjW7MQnymecv3jTbLvRP8jbjWIlDDq8f6/xyCFxmuRXzW8FP9N45NDh/XvZM5tPHN+/aychZE5u3qsHD4d+L0JIxYaNqnXruQ85u7vOtJ4+vH8ve0S1bn2xcvGc3LyxviKAUWFmEECMaW481traKnQVAAAgvOTUhKyHUuLi47gjgfx+iGeL7s6ZLnS9ABC+kRHPMB8f6ZKEVY+lPf5dMTcJYi2YO23938588L4kXu41POIh47C0bTwUKxcTQpge95lW79W1Xt5sPE4IWbZildfxS50d59vPjXojpsfdfML/yH/jkUOV6pXcJIgefO7JikBPAYgEwiAAgGhXWVkpl8v1en2I55vNZrlcLpfLuQd37NgxposAQExITk3ILkiJT4gLck7a3aJMJEEAMW7EQ0Y8nkg+RInkUXnKj5bOkM0ONn0yWRS3dJH4R0tnZM9OjPCOI54YiYIImZObJ83KJoScaQ3WGXSps8PZ3UUIWVC4iHtcnCYhhIQS2TSfOM70uOn5XmiWVLFhY72h8cQ77Sfead+u20d7gvbv2knvC4JwuVxfXrsqdBX8QxgEAMADo9Eo92fHjh0tLS1CV0cIIUajkf3fsT5RLpcvX77c92A0v16AqePrPCg+jniI70fabCRBAJMBXSYW9of8gWn/5/vp33og1H8NZs9MXPO9GUsXicUp8ZHcN1bCIELI0pWrCCHn288xPe5A59CoSJqV7RUGZWbTIOn0qJENbSyi53tZULjoV81vqdatp7EUPbJdt5cmR/SJIAiLxdJuahO6Cv4hDAIAGEdGo7GqqqqystLtDviDxcRQqVTs/46f6Hm9AFNKcmpC9ryUuIQ4rywo7W5R5lwkQQCTwYjn6xnSYXw8LBcvKEhNFgVrIfSr4G+mffd/zAj7vvxOvB5v8kcWEUKYHneQ1V6094fGRlzitDQaDwWPbGhaJM3Kznkw1/dR1br1vh1D4jQJXZJm/dPoa9AAxgQDpAFiTKGiZKiXEboK8E8mk508eZL9q81mMxqNRqPRbDbv2LFjz549AtZWXV1dXV3N7zWj+fUCTDXJqQmyeSmO9/tGhr5++yVBEgQ+DAbDqVOnnE4nIUQsFq9Zs6asrEwsFvs92el0mkwmdn1xTk5OeXl5WVnZxJULHCOe8AdIf3Vz5Jon7vOekW+K45NDToTcA56mkbhP4xMiGVwdQ61Bc3Lz5uTmXersONP6VrFyie8JbNOQ30eLlUvOt59rPnF89RMVfleBEU6WFMp0IVaqJI0Q0otfswHf0BkEEGPSM2bPmjVL6CogJPn5+dXV1RqNhhDS0tJis9mErmh8TbXXCxBtklMT7pOnyual0I/MkNeDwFTgdDqfeuopvV5PkyBCCMMwer3+qaeeslqtvudbrVZ6PnvEbrfX1dXV1dVNUMVwp2FP+FOcaSITnxx/eZDYmZFRd4/vH/K8c5P8cjDu02FCCIlkgLQngv3EzrefW/HdwhXfLSSEOLu79u/aSf/6o2WLudN5mk8cf+7JCvpQpXol9yFndxc9HmgsNL3m7he30r/SMdKBVorRi7DThbwsW7FKmpXN9LgDTR2iE6bZTp/Q9bp7SICVZQCRQBgEADC+aDhCCDGbzcJWMjGm2usFiCqiafHTZyTSD6FrgehSV1fndDrFYvGmTZveeOONN954o6amRiqVMgxTW1vLMHc0HTudztraWkKIXC7X6XRvvPHGr3/9a9oT1NTUZDAYhHkNU9uIh4Q9uGeEk8gMJ8X/+Ybn88Cbx3/AjPxyIO6/h28fEXxm0KXOjuc1t3fUYnrc+3ftpLtu7d+1c/+unZc6O+hDNDNiN+Rih/v4DWjY4IZmQOTWHmGBAh2vk33R5WPHXj/k91Fa/7IVqwL1DQVCF4jlPIjd5QWjVCqXrVwtdBX8QxgEADC+JBKJTCYTuoqJM9VeLwBA9LPb7bT9Z9OmTew6L7lcXlNTIxaLGYZpamrinn/06FGGYaRSaU1NTU5ODiGEpkgKhYI+OuGvAIgnki297oxk4hPiXJ44GzPSd2eP0Cd9I7+5SZrj4vvvPD+S3cQiaAy6bfeLW+lw5RPvtNcbGmm+YzzySVpWAAAgAElEQVRy6PD+vc0nji9bscr3IXaQM13Sdab1tG+zD+0AEqdJ2GVf4jQJvYLvMi72CkH6emjQ4+zu8n06u6O877yh4M60nqZR11ifCDAqhEEAMaa58Vhra6vQVcQA7nbsRqNx+fLldLurqqoqh8NBz3E4HDqdjrsTFvchejDQ3lh0p/aqqqowatPr9XK5vLKy0vch9r5sJV7MZnNVVRW35hBXYwXZn95sNnM/D/T3wFjkBQAwadjtdkKIWCymaQ5LKpXK5XJCyJUrV9iDDMOYTCbC6fRk0SPsCTCRImvP8RPJJCTFfzpELvaODHpI/7Cnqc9z1BP/6bDvicJ3BmVmZ29+uZY21Eizsrfr9tGFWsYjh4qVSzZseYF9iD2NXRfGduL4NvvQI6ufqOAeDBQe3WoLWhKkr0ecJqF9Q757zNMjxcolfpeYBXKps2P/rlpCCHeLMQC+IAwCgElux44d3JSnpaVl7dq1DofDZrOtXbuWG44YjUb6ECFEJpMVFRURQt58803fa7rdbhoSLV26dNQCHA4He80IX4vRaKysrOTmU7TmMDaMZ+l0usrKSq+QSK/Xd3R0hHdBHl8vAABMDO4MaavVyjCMb3JECJFKpbRR6OLFixNaHxAyQsLf0mskcCQzLTn+yiBpHYz7iyfgZOlIdhPjJQzybcZhe3kqNmzkHhenSebk5hJCPuu6vcU7fbrX2CCmx02PeE2DLlYu9g2P2C3GgqwRo1Y/sZ747DHP9LiPvX7Y7wsJ4nz7uZe0G5ke94LCRV4vEyaYy+X68tpVoavgH8IgAJjMjEZjS0vLnj17rFar1Wql22m53W6dTrd582aJROL7EBuL0KCnpaXFd5d0s9nsdrslEklpaemoNeh0OkKIRCKh6VLYbDbbjh07VCrVyZMnac179uyhgQs37RqTqqoq+npVKlVDQwO97MmTJ31/Gxw6vl4vAADwRaFQ0OVgXh09TqeTLh9buHAhe5AGPTT08UWP01YjmEgjkUxx9hfJiOLIvSJybyJJiCPfjCeLReTeAG8NIxkgzct2YnTpFhfdYEuale3bL+N7xO9YaNqqs6Bwkdf57Eoxbnh0pvUtrwVlgbBTirh7zNOnz8nN830hgRiPHHpJ+wzT4162YtV23b4QnwXjxGKxtJvahK6CfwiDAGAyczgce/bsYSMblUpFQ5+WlhaHw7F7927uQ1qtlj7EHpFIJNwjLNouNGpiwm3kqa6uplcLW0tLi1arra6uZjtuSktLDxw4QC/rd/3XqBdka6uurs7Pz6fHZTKZVqtVqVRjvSC/rxcAAPgiFovpf7Nqa2vZ8c8mk2nbtm0Mw6jVarpYjKLbjUmlUr+Xuueee9hzYCIN8zRAmhAST8jdCeSbIpLCaQZKJGRBAvlOIrnLp0NI8GViviuzxjSDme4ZT+5cvUUbf/y26viGRyG2BVGqdevpvdin05HSIbYFMT3ul7TP0BnYm1+u3bDlhVCeBRAG7DQBEGMKFSVDvczo5wEhhJD8/Hyv/pTS0tIdO3YQQlQqFRt/sCcTQtxut8PhoIGLSqXS6/VvvvkmNxlh14j5tgXRiT++ZXADqbDJZDLf+Ike1Ol0LS0tNOcKHX0/UFpaGkbuQ43r6wWA8fP+++9fuHBB6CqAf5mZmUuW+O9cKCsrE4vFdXV1er2e+/sDjUajVqu5Z9KdxWjo44u7oCyQX/3qV2MoOgL8/tbh5vDIzSDrqcbT/37qH0Y9Z4R4hsONVrjPmxFP7k4M2BFwVxz5TiJxjJC/jJC+W88K+76E8LNMLHLLVqza39lxpvUtmtRc6uy41NkRqNOnWLlEnFZLRz6r1q0PtKAsENpt5Ozuok8/337O2d0V4o7yzu6unz77jLO7a05u3uaXazEnCMYVwiCAGJOeMXswSSR0FTHDd6WSRCKRSCRut9srCSKEZGd7/xe3tLRUr9ezi8LoQTqgp6ioaNSZODKZTKVSsR1GEQoUr9DX6Ha7uUWOyu12063fQxl7FCJ+Xy8AjJ8LFy40NDQIXQXwb968eYHCIIZh2travLaQJ4S0tbUpFApuH1AoXT/Bz8FX11iFEgbR3cTCuz4d3ZMST+5OIMkBRwPdJosn0njy0Qj5yzAhhIR93+hRrFx8eP/eS50dzu4uaVa239HRXuc3nzh+vv2cat162k/Erv8Kxeon1u/ftfPNxuPs04Pci8UmQcXKJZtfrg3xXgBhQxgEAJOZ31SChkGhPD0/Pz8/P99msxmNRrYrh7YFef0elZLJZCdPnoyg3mACJSzs8bGGQfQPeXl5YZc0rq8XAMbP/PnzhS4BxkVmZqbf4wzDbNu2zW63S6VSjUZDJ0NbrdajR49arVatVqvT6QKtCwvD2rVr+bpUcJOmMygUdB5zeFKS4qWJZMZYBoQkEvJAPLk3jnw4QuwRfFaiJEei+3w1nzh+pvU0G9AE6fQpVi6hYRA7OnpMO7vT7Ik2B9GuolDaguhTkARFIaVSKZLMFLoK/iEMAgAIRqVS2Wy2lpYWGgbZbDabzRbi6OiJEWKwBQDAmjdv3rx584SuAiaOXq+nSZBOp2PXecnlcrlcrtVq7XZ7XV1dTU0NPR7KQrDgydGPfvSjyGsOhW9LbyS+Ghy+PjjC4wX5NeLxDIebVTk/6x/JTSXJAdKgwFdNJGT4076w70tuNSVFA5rvnGl9S5qVTbfoCrIIi7vU69bAoJDWiFHiNMnqJyoO799LR/+w29sHcamzg8ZG2DgMJgwGSAPEmObGY62trUJXMYWUlpZKJBKbzUa366JtQZFsthVcGMlO163NU8Pbyh1ZEgDA5MYwTFNTEyFkzZo1vkEP/S+a1WplNwij5/T09AS6GgktMAJ+jUQwQPq9S8xPDn7ypo3x21sUKK356Kuh+t843n7rc8EHSPNiQeGiObl5lzo7Rm0LougJdEv4Obl5Yx3fQ59OZ0iH0hZk/dM5EmB/NIBxgjAIACAYtgmIxkB0YBAvbUEdHR2+B+kcH7/Onj0b5PhY93GXyWSB9koDAIDJhE15/O4Wz+4DwJ5Gu34CTQWiIRGPa8ogRCMRJDL0o+EPV6te/9TiuDnqva72jxz77y9+ffTTnp7BCG8aNY1BhHC2CQtlnDM9maY5Ie4jxiXNyqa3oCFUiM9ydnet+G5hoI/9u3aOtQzghcvl+vLaVaGr4B/CIACAUdARy3QjdrfbHcro6ODo09kRziy3203DJr/MZrNvcGM2m+lTwpgDTX8bTCdkj/W5AAAwWdF9xKxWq99H6fG5c+dOaE0Q2f7u7MfVnsFXT3T/9Fi366b/BXGDHtLa0VN/+LLtg694uWM0ZUG3O3RCadVhN6QP8XxftDkovOdCVLFYLO2mNqGr4B9mBgEAjKKoqIiOkaZ7sUe+/VZpaalMJnM4HFVVVdXV1bTPyGw263S6IM+SyWRVVVVarZZdpKbX6+lT8vPzw9geXqVSGY1Gh8NRWVmp0Wg0Gg3tFaIzkujWYOG8PAAAiCbski673e7bHMSGPuxpCoVCr9czDGO1Wtm+IcrpdNIGIjqCGiaSh4S/m5gXe/eNjf/21xXfvmvFt2Zy5wi9133z93/4rJcZ4uUuVCStQQsKF514p93vQ8tWrAoUsmzY8sKGLS/4fYi5tfgxxGnQrx48POo5QSoJUv923T6vI6p16+m29wATBmEQQIwpVJQM9XrvCwvjrbS01Gazmc1miUTCS0Si1WqrqqrcbndVVRV7UCaTVVdXV1ZW+n2KSqU6e/asTqfzyozy8/N3794dRg0SieTAgQObN2+22Wx6vV6v13Mfra6uDuOaAAAQbXJycnJycux2+9GjR8vKyrwepf/4i8ViNveRSqVyuZzuNeYVBtGT5XI5lolNvJERMszreOtj73xx7J0vqlZlZ2Qmf97vOXrqyufO0VeQjVk0tQYde/0QuTUcWuhaAISHZWIAMSY9Y/asWbOErmLKYQMgvpplSktL6+vrubOHNBpNQ0ND8I1R6uvrtVotu5OuTCbTarUNDQ1hL1uTyWQNDQ1arZY7cig/P1+r1aItCABg0lizZg0hxOl0arVathXIarXS/eaJz2xpdqp0bW0tHR7EMExdXZ3JZCKEbNq0aeJfAgxHMEA6yMf/d8zxk19c+vnBj65cuTEe14+eLIhuDUbGuC8YwCQWF03foQDRTmsxqe/LfWhGhoA1WNvNg+7rBQUF432j5OTkjAwhX2lUcTgcy5cvJ4ScPHkywoFBEBMaGxsJIYWFhUIXAhBQ68A/O25axvqsCsmJ8SgGop/JZKqtrfX7kEajUavVXgebmprq6up8T66pqfFqFxLQlNpavvLXzvc+HYfOnXF24IfSh++dJnQV5FJnx77dtZc6OxYULvJdogUTyWE5RwgpLi7m5WqdnZ2dnZ1ZWVn8/mvg5YMPPhBJZsoLx7ZbS3heumCaec2VMRKnXvQdWfpd43ovLBMDABgdbYyPfHQ0AACAIBQKxWuvvWYymY4ePUq3hyeEqNXqkpISv7uMlZWVSaXSU6dO0W4genJ5eTkWiAmF7iYmdBVjJnjFleqVzu4u+mdpVnagcUIAUxDCIIAY09x4jBAyAZ1BwHI4HGHv2AUAABAlpFKpWq32bQIKRC6XR08TEMRoGESipmbVuvWrn6gQp0mELgQgWiAMAgAIxmazvfzyy4SQoqIijNEBAAAAQYx4yEj0LmILSPAoqN7QKHQJEPNcLlfiwKDQVfAPYRAAgH/Lly93OBz0z3SfL2HrAQAAgClrxENisTMo9ioG8GGxWAghyvLlQhfCM4RBAACj0Gg0Go2G3cMLAAAAYILF6DKxtGTsXg0QpRAGAcSYQkXJUC8jdBVTwsmTJ4UuAQAAAIAQQgrvm/bfH/cJXcXY5GUm52UmC10FAPiHMAggxqRnzB5MEgldBQAAAABMnGcfvStrhshxPeLBJd3vk673RzknLZPkLo70RoQ8WTQr8osAwDhBGAQAAAAAABDt1At4WLF+7vfD5zqvBD8n+65pqx67K/J7AUwOSqVSJJkpdBX8QxgEAAAAAAAwJSQkJiQnj7J0SyRCEzrA5IcwCCDGNDceI4QUFBQIXQgAAAAAxJjEhMQQwqCkiSkGAASEMAgAAAAAAGBKCKUziHhGJqQWgNjgcrkSByIe1xV9EAYBAAAAAABMCaF0Bt3ocU9MMQAxwWKxEEKU5cuFLoRnCIMAAAAAAACmhD73V6N3BhEyODAgSsJiMYDJDGEQQIwpVJQM9TJCVwEAAAAAsedmb08oYRBz3TXr7swJqAcAhIIwCCDGpGfMHkzCFg8AAAAAMDa9X133DA2FEgZd/+wKwiCAyQ1hEAAAAAAAwOT3+cd/DSUJIoRcd14Zzn0oAXvMAxCiVCpFkplCV8E/hEEAAAAAAACTnOtKF3Pt8xDDIELIx+9bv/mtwnEtCQAEhDAIIMY0Nx4jhBQUFAhdCAAAAADEgJGhIVe344tPL4eeBBFChm70fmz90+y/yUmZMQl7IgAAYRAAAAAAAMBkc7Pnq5tu90Bfb9/1LwkhSWPfHcwzOPD5X2xJKanT0iRJKakps9LjE/D+EaYcl8uVODAodBX8wzczAAAAAADApHL908s3XF/QP4+pIciP4aH+61/2X/+y79pnd33zwQRsOQ9TjMViIYQoy5cLXQjPEAYBAAAAAABMHoN9zBDjFvE+/tnj6f28WyL7Bs+XBQAhIAwCiDGFipKhXkboKgAAQGDKpH8m+PU8APgz2Ns7Tlce6HGP05UBYIIhDAKIMekZsweTsM0nAAAAAPiXMjszZXam0FUAQFRDGAQAAAAAAAAA4IdSqRRJJuGeevFCFwAAAAAAAAAAABMHnUEAMaa58RghpKCgQOhCAAAAAAAAICYhDAIAAAAAAAAA8MPlciUODApdBf+wTAwAAAAAAAAAwA+LxdJuahO6Cv4hDAIAAAAAAAAAmEKwTAwgxhQqSoZ6GaGrAAAAAAAAgFiFMAggxqRnzB5MEgldBQAAAAAAAMQqhEEAAAAAAAAAAH4olUqRZKbQVfAPM4MAAAAAAAAAAKYQdAYBxJjmxmOEkIKCAqELAQAAAAAAgJiEMAgAAAAAAAAAwA+Xy5U4MCh0FfzDMjEAAAAAAAAAAD8sFku7qU3oKviHziAA8K+/v7+rq6unp6ezs1PoWgAAAAAAAIA3CIMAYkyhomSolxG6CgAAAAAAAIhVCIMAYkx6xuzBJNGE3S4tLa2wsHDCbgcAAAAAAADjDWEQAAAAAAAAAIAfSqVSJJkpdBX8wwBpAAAAAAAAAIApBJ1BADGmufEYIaSgoEDoQgAAAAAAACAmIQwCAAAAAAAAAPDD5XIlDgwKXQX/sEwMAAAAAAAAAMAPi8XSbmoTugr+IQwCAAAAAAAAAJhCsEwMIMYUKkqGehmhqwAAAAAAAIBYhTAIIMakZ8weTBIJXQUAAAAAAADEKoRBAAAAAAAAAAB+KJVKkWSm0FXwDzODAAAAAAAAAACmEHQGAcSY5sZjhJCCggKhCwEAAAAAAICYhDAIAAAAAAAAAMAPl8uVODAodBX8wzIxAAAAAAAAAAA/LBZLu6lN6Cr4hzAIAAAAAAAAAGAKwTIxgBhTqCgZ6mWErgIAAAAAAABiFcIggBiTnjF7MEkkdBUAAAAAAAAQqxAGAQAAAAAAAAD4oVQqRZKZQlfBP8wMAgAAAAAAAACYQtAZBBBjmhuPEUIKCgqELgQAAAAAAABiEsIgAAAAAAAAAAA/XC5X4sCg0FXwD8vEAAAAAAAAAAD8sFgs7aY2oavgH8IgAAAAAAAAAIApBMvEAGJMoaJkqJcRugoAAAAAAACIVQiDAGJMesbswSSR0FUAAAAAAABArEIYBAAAAAAAAADgh1KpFElmCl0F/zAzCAAAAAAAAABgCkFnEECMaW48RggpKCgQuhAAAAAAAACISQiDAAAAAAAAAAD8cLlciQODQlfBPywTAwAAAAAAAADww2KxtJvahK6CfwiDAAAAAAAAQHjn28+t+G7hiu8WCl1IQLS88+3nhC4koJe0z6z4bqHxyCGhC4Foh2ViADGmUFEy1MsIXQUAAAAATELNJ47v37XT97hq3fpi5eI5uXkTX1L0q1SvdHZ3eR2UZmUvXblq2YpV4jSJIFUBBIfOIIAYk54xe9asWUJXAQAAAABTiPHIoeeerGg+cVzoQmKGs7vr8P69P1q2+EzraaFrAfADnUEA4F9CQkJqaqrQVQAIw+12C10CAACAYKRZ2fWGRvavZ1pPH96/19ndtX/XzgWFi6RZ2QLWFrU2bHlh2YpV7F+NRw692Xjc2d21+8Wtrx7MRlNV7FIqlSLJTKGr4B/CIADwLzExMS0tTegqAISBMAgAAIBVrFwyJzevUr2SEHKm9bRq3XqhK4oBqnXri5VLntdUMD1u45HDm1+uFboigDtgmRhAjGluPNba2ip0FQCTXFdXV1eX9+J/AACAKUua9XVvy2f472PIpFnZtFcomgdOw5SFziAAAABv3d3dhJDsbLTBAwAAfE2MnvGxy8zOJoQwPeg4jmEulytxYFDoKviHMAgAAAAAACAanW8/95L2GULIiXfand1dx14/REc4i9MkFRs2shNqmk8cbz5x/FJnByFEmpW9+on17EPO7i66vGvzy7XFyiW+t9i/a2fziePFyiWjrmO61NlJCPGdfePs7jrTeprOx6FHlq1YtWzFqkBTcoxHDp1pfYtWSy9YrFwcfOmZ8cihw/v3EkIqNmzknuns7nqz8Ti7jfqc3Dx6a+5zuZ9DpsfdfOI4vRQhpFi5RLWuwm+dlzo76GeVPXPZilULChcFKXJMzrSePt9+jjuQO/h+bbRy7ic5lM8b8MJisRBClOXLhS6EZwiDAAAAAAAAotqlzo6XtBvZBhOmx71/187PuroqNmykaQ57Jh3zTB8ihEizshcULjrffu5M61u+YRDT4z7T+hYhpFi5OHgBxiOHmB63NCvb60w2auGiMcp23T6v9ORSZ8fuF7d67cJ+qbOj1+0OEmoESoLOtJ7e/eJWr0vt7+w403p6u26f73Wc3V0/ffYZ7t3PtJ4+03r61YOHvSIY9o5eZ4Yx94dmXtzrMz3u3S9u9V04ZjxyyHjkkNdrZO/u9UrplS91dpxpfWvzy7UY6Q1hQBgEEGMKFSVDvYzQVQAAAADAxNn94tYFhYs2bNkqTpPQuOd8+znaEdN84viyFasqNmz0emjpylU0IyhWLjnffu5M62mmZ6s4TcK97Pn2c0yPW5wm8ds0RDE97mOvH6b32rDlBa8r0GyF2wrEJj77d+3kbkl2qbPjuScrCCHSrOylK1exkUfzieNBRuqwjTyBkqAFhYvW/3gjvTUNcejL941U9u/amSqRbN/yAo2omk8c379rJyFk3+7aVw8e5l6Z3pF7ZXrN/bvGFgbR9iJyZ9b2knYjTYhU69avfqKCfj7p9c+3nzu8f684TcJtbmJf6ZzcPNW6Cvb/KfpiL3V2/PTZZ7ifZ4AQYYA0QIxJz5g9a9YsoasAAAAAgImTmZ29+eVaGhxIs7K36/bRoMd45FCxcgmb0Uizbp92pvU0fe6yFatuHXnL67L0yOonKryOO7u7Vny3kH78aNli45FDy1asqjc0+q6TEqelbdft27DlBbb5ZU5u3oYtL9CLsGvBCCH7dtfSR1/RH+YmNctWrArUcXO+/RzNa3z7ZWheU6xcsl23j721at16eutjrx/2HdPzWVfXdt1e9iUsW7GKnkxbbIJfeUHhou26fZkhDxN0dncZjxyi4dec3Dxu8kXvtV23j+Z33OvT2ryakthk6tWDh7mZnWrdetoARe8VYmEALIRBAAAAAAAAUc1rDg4hhM0F6HIwljhNMic3l9y57Rd9OhsPUUyPmx4J0hbEaj5xvFK90jd0KFYu8U2I2CNMTw/9w/n2czQEeWazd3dSIJc6O+gCNN8k6EzradqR5PXaya3ki+lx+3YbccOXW8V/3bDDrh0LcmVCyPof+znI2r9rJ5ugVapXsiHOdt3tcIc2CgUaP0TDKfb/F2499CEvCwoX3fp/1jvmAx4plcplK1cLXQX/sEwMAAAAAAAgqvlmB6mSNEKINCvbd16MNCv7/J1HipWL6SokuiiMHqTBxILCRX6vwF15xM5pPrx/76XOTr+NPGxOxB1yzKLRzJzcvEADkr3QGUmEkGUrVvku+GJHWfudlZOZnc10un1r8NfWJJFmZTu7u9jQKviVxzRAmiY+3KCN6XHTRCzQdaRZ2XNy8y51drDFB6+HXortNgIYE4RBADGmufEYIaSgoEDoQgAAAABggvh204TYX0PRFIaOsGGzFdpO4ttz5EualV2xYeOc3NzdL24903r6fPvtxhZ2SlHwK9BFWzkP5oZY8O4XtzI9bnYllxealVzq7Fjx3cIQL0hC+4zRK4deJ9eGLS8E/2SyvVpBEjFxWhr3zFHrYV+Us7sLY6RhTLBMDAAAAAAAYJLzWk9EB+UEHx3tpVi5hJ2mTI84u7ue11TQv6rWra/YsLFiw8YT77SfeKc9wmrpdB7uDvQTw3fSEIDL5fry2lWhq+AfOoMAAAAAAAAmuWLlYrr5FG0hCTQ6Ojjat8ImJm82Hqf7zb+iPxxK3w27GmtU23X7nnuygi4We0V/2KvnhZZRrFwSxl7vwdEVdoHq9F16Niapkq8/RZc6OwJ18dBbs5Oq6Su1/7kz0DXp/xd0vVsktUEQFouFEKIsXy50ITxDZxAAAAAAAMAkJ06T0HnJdDjxrS3PQ20LougIGzb3sf+5g17EKwnybee51elzOvTWm+26vXNy85ge90+ffcYrhaFXG4+mIXplOlzJ99FRV8MFxw54CnQddv81+SNfr8KjrVjcKUJ+SxrTMCMACmEQQIwpVJQsXLhQ6CoAAAAAIMbQ6OdM61s0lPE7OjqI5hPHaUTiFT345ibGI4e9jrDb2+9+cWuItxOnSTa/XEsHPHvlQXTJ23hsqU4/RUyP+9jr3i/B2d117PVIb7d05SpCSPOJ437zILoBGR0jfauexfTztn/XTt/z6RAogjAIwoIwCCDGpGfMnjVrltBVAAAAAECMWVC4iB0jTcbSFsT0uA/v30vzCO5e8jkP5hFCmk8cZ0OZS50du1/c6tuzI06T0CVp59vPPfdkBXeTe+ORQ4ESImlW9r/8fJ84TeKVB4nTJHQMNq2Ke7vz7eeMRw6FHRJJs7Jp0kSrYu/YfOL4T599hl29FbZlK1bRAO4l7TOH9+9lc7Tz7ede0j5DPy3ctW/BP2/PPVlBCClWLgllCjiAF8wMAgAAAAAAmBKKlYsvdXacbz8nTpMESRCc3V1+N+paULhow5bbwc3qJyrOtJ52dncd3r+XdrVQrx48THMKLja+oYERIbevE6RBSZqVvV239yXtRpoHscOJKjZsZHrczSeO0w+vZ1Vs2BjogqOq2LDR2d11vv3cmdbT3PBFmpW9+eXaHy1bHPaVCSHiNMm//Hwfzct8QyvaDOW111iQzxsZn8FJ4EWpVIokM4Wugn8IgwAAAAAAAKaEZStW0dRmrL0kxcolxcrFXs1E4jTJK/rDx14/zIYay1asWrZiVaCt01Xr1ssfWWT90zlucqRatz74Kqc5uXmbX659SfuMs7vrJe1GunaMELJhywsLChfRVW/cFzgnNy+SThlxmmS7bp/xyKE3G4/TziDankNDmchJs7JfPXjYeOTQ+fZz7GIxaVb20pWr2MV0Xvx+3patWLWgcNFYpz4BsOI8Ho/QNQDEDK3FpL4v96EZGQLWsGvbFkLIs88+O943Sk5OzsgQ8pUCCKixsZEQUljo55eiAAAQJbIjXrPD9dXg8PXBER4vGJ2c3V2V6pWEkHpDI/afgonnsJwjhBQXF/Nytc7Ozs7OzqysLH7/NfDywQcfiCQz5YVF43cL1ksXTDOvuTJG4tSLviNLv7//yEYAACAASURBVGtc74XOIAAAAAAAgCmBjkAe6+hogKnM5XIlDgwKXQX/MEAaAAAAAABg8nN2d4W3ozzAVGaxWNpNbUJXwT90BgEAAAAAAExylzo79u2uJYQsKFyEzacAAGEQQIwpVJQM9TJCVwEAAAAAsaFSvZLdIl2alb1hywvC1gMA0QBhEECMSc+YPZgkEroKAAAAAIgxqnXrVz9R4Xe/KgCYahAGAQAAAAAATFr1hkahSwCIYUqlUiSZKXQV/MMAaQAAAAAAAACAKQSdQQAxprnxGCGkoKBA6EIAAAAAAAAgJiEMAgAAAAAAAADww+VyJQ4MCl0F/7BMDAAAAAAAAADAD4vF0m5qE7oK/iEMAgAAAAAAAACYQrBMDCDGFCpKhnoZoasAAIBodHUk/urI17/qy08cErYYAAAAiFoIgwBiTHrG7MEkkdBVAABA1Pl4OGFHT0qfJ47+9dGkwadTbwhbEgAAAEQnLBMD/yorK+VyuV6vF7qQcSGXy+VyudlsFroQAIDYYLVaH3/88ccff1zoQsaFwWB4/PHHt23bJnQhEfFKggghfxwQHeidLmBJU8S2bdsef/xxg8EgdCHjYnJ8dwAAREKpVC5buVroKviHzqDo5XA4WlpaWlpabDYbe1Cj0eTn55eWlgpYGAAACKKpqenKlSvc95w5OTklJSVlZWVisVjAwkBwvkkQ9ccBESFk0vcHOZ1Ok8nU1tZmt9vZg2q1eu7cuQqFQsDCAAAAohbCoCi1Y8cOo9Hoe5y26uTn5+/evVsmk014XSC85sZjhJCCggKhCwGAiWO1Wuvq6pxOp9dxu91ut9v1er1Go1Gr1YLUBoILlARRkz4Pqqura2pq8j1OY9OcnJytW7dKpdIJrwsAACCqIQyKOm63++mnn6bdQKWlpd/+9rdVKhV9yGaztbS06PV6m822du3aAwcO5OfnR3Ivs9l89uxZm81WX1/PQ+kAU8lHH30kdAkRmTZtWlZWltBVQEiamprq6uoIIWKxeM2aNQqFgn1nazAYaDeEXq+/cuXKpk2bIryX1Wq1WCx2u72mpibSumFCBE+CqMmaBzEMs23bNtoNpFAoFi5cWFZWRh+y2+1tbW0Gg8Fut2u12pqampycnAhvR7/dNBqNXC6PtHQAAIgdLpcrcWBQ6Cr4hzAo6rBJUHV1NRsDUfn5+fn5+SqV6umnn3Y4HJs3b25oaJBIJGHfy2az6fX6oqKiSIsGmGL+9V//9cqVK0JXESmFQvH9739f6CpgFCaTiSZBOTk5NTU1XsvB1Gq1Wq02GAx6vb6pqemee+6JsD/IbrcbDAa8140VoSRB1KTMg9gkaNOmTWwMROXk5OTk5JSXl2/bts3pdNbW1up0ughXU07WQYoAABCcxWIhhCjLlwtdCM8wQDq6GI3GQEkQSyaTHThwQCKROBwOnU43sQUCAPnoo48mQRJECDGZTEKXAKOj7z/9JkEsGgnRk32XksFkFXoSRE2yedJNTU2BkiCWVCql3zhOpxNRDgAAABfCoOhCf1IpKioKlARRMplMo9EQQoxGo9vtnqDiIDoUKkoWLlwodBUAMBGamppouKPRaII3NaxZs4aecOrUqQkqDgQ11iSImkx50NGjRwkhcrk8UBJESaXSNWvWEEKampoYhpmg4gAAAKIelolFEZvN5nA4CCFPPvnkqCerVCraFmQ0GmkwRAihjf319fW+K7/oRGqVSlVdXU0IWb58Ob0XIcRsNrMrAvw+12w2GwyGlpYW9tYqlSrQuKKWlpazZ89yp19rNJrS0lKv8/V6vU6nKyoq8h1X5HA4li9fTgg5efIkOyTbbDZXVlYSQqxWq9vtNhqNbFdUaWkp3WTNtxibzWY0GtliSktL1Wp1rC+LS8+YPZgkEroKAJgItC1ZLpePum5LLBaXlZUZDIampib2Pwp0+ZhcLvcdAOR0Op966ilCyGuvvUYnED311FNsVxHdSJ7+uaamxvfuBoPh6NGj9K21VCotLy8PtDyNYZimpqZTp06xF6c7oPmeP6ZqCSHbtm2zWq10crbJZDp16pTVaiW3JisFqsdgMLDFBD8zmoWXBFGTY72Y3W6n/yfSoCe4srIy+su2pqYm9v9u+hXu98ubTqQuKyujQ7jYoV0Uu8m6369Vq9V66tQptu+yrKysvLw80Lgik8lksVi406/VanVJSYnv+aFXS2ugRb7xxhv0G5DtilIoFGvWrAlUz+T47gAAgBAhDIoiZrOZECKRSEJJKyQSSX5+PpsfjR+j0bhjxw6vI0aj0Xchm9vtrqqqoq+CS6/X6/V6rVbLvj+JhMPhoCOT2CMtLS0tLS0NDQ1+8ybuEXrmnj17Ii8DIJAf/OAH8+fPF7qK2y5cuPDb3/5W6CogTDTdCLEZcO7cuYQQhmGcTuf47Z3EHdlL0QU4bW1tvgvZTCZTbW2t1xXoDmhtbW187fFEUyRuhXq9/uLFi1u3buWeRgfHcCunZ7a1tZWUlERexoQZNQlac1cSIeToFwOBTpgEeRAb/IUy30osFufk5Njt9vFe4esVG9EjTU1NvgvZGIapra2lr4LLYDAYDAa+Ngd0Op10ZBJ7xGQymUwmnU7nlQdNmu8OAIDxoFQqRZKZQlfBv8kQBnU6h3oHPJ98Ocw9mCdNzBDHZ4hjaR0cDThC3zA+Ozs77DDo5MmTJGh7DkX3L1OpVBqNhhbW0tKi0+kcDseOHTuKioq41bKjrzUajUajoZOtzWbzwYMHzWazTqeTSCTBl7+FYseOHRKJhO1gYrOql19+uaGhgT2N1kkIKSoq0mq1NCeixXhlWwA8uv/++6MqCSKEzJ8/H2FQjHI6nWzrTSjns6eFFwa99tprJGh7DlVXV8cwDPvmlr5jpNNb9Ho9dzszNgnKycmhm6DR4/QWdrt927Zt9KaRsFgsVqtVrVbT3zc4nc66ujqr1Urf9LI3JYSw73W577RpMTE0aGnUJGirbFrZTBEhJGd6fK3jZqDTYj0PorFO6F/nUqmUbSYaq7KyMvrVHqQ9hxBy8eJFk8lUVla2Zs0aWpjJZKJfXXV1dXK5nFstm6iq1Wp2jafVaj169KjVatXr9bTXL4xquerq6sRiMVswm1XV1dV5/bZscnx3AADAmMRqGHSNGXn3k8H3Phns/GzI7wmN5wkhZHpS3MP3ir51n+jh+2JgWQ2NddLS0kI8n6YtPT0941dSS0uLV0dPaWlpXl7e2rVr3W63Xq+ni84IZ/S110KzoqKioqKiyspKmgdFHgZ1dXVx91CjF9yxY4fNZrPZbGxzEP0pp7S0lNsHRItZu3YtLTVGNTceI4QUFBQIXQgAjC/2PViIWyCxp43rYBS66zz7tlYsFm/atEksFtMVauzbYHJrCp5vrqRWq3NycmjDgsFgiLADgl0pRv9KBwbTJW9tbW1sGMQOG/bqiVCr1VKp1Ld9KTqFngQRQugfJmsexC5lCvF8eua4fmuYTCavjh6FQpGTk6PVahmGOXr0KBuVsl+NXrkSXRBK1z/q9frIwyCn08ndQ41esK6ujnbnsd8Ik+O7AwAAxiqWGmeoa8zIL019zxvdDe03AiVBrBsDHtOlgZ//vvd5o7vNHrBfOqaFHh6FgZ1U7fcgO0WIEELn8qhUKr9r3Ghm5Ha7uU8Jj1arZZMgqrS0lP6hq6uL/qGlpYUma1qt1u8VIqwBACCaRbh/dnDcuId7kN6UHZViMpno23VurxCLHfrb1tYWYT05OTm+cRLNgLgdDXSudllZme+0FIVCEcpSI8GNKQmiymaKtsqmBbnmZJonHYpx/daQSqW+X4rs+Gru7o3sV6PfLzz6LcMwTOQbPvoOnmfj0Un23QEAMK5cLteX164KXQX/YqkzqG/Ac9x6882O/jCee40Z+bczfW929P99ccp96Qm818YLr4xjVBOwjxibs3ihiY/b7Xa73RKJxO12016bb3/7237Pl8lkfE048g2bJBKJTCZzOBzsJ4QWk5+f73fNXawPkAaAKWKsb1wnZqck7sIrFh3dYjKZ2GbVixcvEkJycnICLeRZuHAh248QCb/vVO+55x7C+YQwDENvFGj60sKFC32nt0SVMJIgarL2B0Xhd4ffbw1y60uUYRiGYcRi8ahfjVKplE44inx9lu93h1gslkql7BJUMim+O3iUGBc3LSGuv7+/v39y/goZAMJDN/RQli8XuhCexUwY9MmXw7880+c1GCiMi1T/rmdt4fRl+cl8FcYjmlx0dHSEeD5thAm0qxcvAuVT7HEaBrERT15eXqBL0Q6myMOgUCIzepcgxQCMk48//vjChQtRNTbod7/7ndAlQJjYGMVut4fyy3nudl3jV1WgN+Fey3BoMUEqYa8T4bjrUNpjJ+YzM37CToKoSZkH0a+Z0MPEUb8gIxfoS5G7flMsFofy1UifEvm461Ais1j/7uBXamJ8amL85SuOz281mwMATGKxEQZ98uXwzmbmxoCHl6s1tN/45Mvhv1ek8HI1HtFYx+12m83mUbtX2GaccQ2Dgtx94m8auigvL0KFipKh3on4/T+E57e//S0GNgMv2C2QLBZLKIN12GaccV0LE8jE9CWFJ5prG1WESRA1+fIgdu88q9U6alTKNr/QZ02wKP/yi/LyBDFt2rRxHcIAABAlYiAM4jcJokyXBggh0ZYHFRUV0SVXBoNh1DCIzugJcR96wnc+wk7nod1MbLdOR0dHoN3Q6NqBUPZKi7xUmUxmNpsDXSfy7iRhpWfMHkyKgYHoABC5kpISu91utVq50179YhimqamJPiWUK/P+DpD2F9D1WeRWS0KQxg1aAF20MurFI6yWvUWg64z3juNh4yUJoiZZHiSXy+mSq1OnTo0aBtFvjRD3oSd8f3ewrTf065DNau12e6AvfloA+90U3JT97hg/Uqk0knZFAIBYEe0DpMcjCaJMlwaOWwP+SCQIiUTCDmYOPmjZZrPR3bLYHdzZK5BbE3O8mM3mMEo6e/ZskONsDiWTyWjKE+h8h8NBq/KKrvyuiQuvVC5aTKA8KPLrAwBMjLKyMvrWkW4IHQTd8d3vdtR+E5mwh4D4faLT6aR3YRMr2oIRZO4JXX7v++ac32opqVTKbt3t94ToHIkyahIkT00IMQmiymaK5KnBxibG0DxpsVjMDmYOPmjZbrfTje3YMefsFQivX2/0SzrQcfZLnQ0aAp3Pfjdxvzt4r5YVo98dAAATSalULlu5Wugq+BfVYVDfgOeXZ/rGIwmiGs/f7HSOsh/ZBNNoNHTZV1VVVaDMwmazbd68mRAik8m8dmoPlMjo9fog7TZBNqc3m82+sZTZbKZ9SUuXLmUP0kqMRqPfsml0RcdIc0ula+K4Z7rdbnrxSNC51263m/78x+VwOHwPAgBEJ7pxOyHEbrdv27Yt0Gl6vZ6+H/Z6u0vfc9KlNNzzaT9FkPsG6TXw+08ozaqkUin79lWhUASJsex2O23W4M6sDbvaUNDhvkePHvUNpwwGQ+STenk3ahJECLHfHNH+tY/92HvFzw4bL35yg3uOtXeU2YsxlAep1WoaPtbW1gYKLOx2O90ZXSqVeuWkgRIZg8EQvNcm0KNWq9U3lrJarb4te+Xl5YSQpqYmv2XTbzE6RjryakMRc98dAADAi6heJnbcejPCidGj+uWZvh3fT0tJCvbD1gTbvXv3008/7XA4KisrS0tL1Wo1201jNpvPnj1Lf0qQyWQHDhzwmqasUqlsNpvZbK6qqqqurqaP6nQ6vV5P99vyuhdNZGw2m9Fo9MqV2BOqqqq0Wi27wbxer6fJTn5+PvcpKpXKaDTSsjUaDduyZDabDx48SBOf3bt3s+eXlpbSkmipNL4xm8304hGiMZnRaNTr9Q6HQ6vV0ldKj2RnZ8f0SrHmxmOEkIKCAqELmbo+n5H57tL1QlcBU4VCodBoNHq93mq1/vCHP1yzZg13fpDBYGhra6P9AhqNxmu0kEKhoDsH1dbWbtq0ib7ls1qtQTJxdi5vU1OTb5MRIYRhmG3btq1Zs4bmPlar9ejRo/Q9LftfCnKrcYOWrdVq16xZw+61ZDAYaAEKhYJ7izCqDd2aNWuampoYhqH/RaP3dTqdR48ebWpqksvlUdX+EEoSRAhhhj3ccMfaO7zxHu/9MdrcY/6lVwytF9u6deu2bducTue2bdsUCkV5eTkbR1qtVovFYjAYCCFSqbSmpsZrllZ5eXldXZ3VaqVfb/RRvV5vMBjo16Hv7egMr6NHj9JFal6PSqXS2tpa7rch+6Wek5PD/VIvKys7deoULVutVrMZLve7aevWrRFWG7rY+u4AAAC+RG8YdI0ZabKN+zKuz3uGm2w3V8uj6JdgMpmsoaGBdgYFWi9WWlrKZj1cNAGx2WxeT9RqtQ6HwzcBKSoqoonMjh07duzYQQipr6/nruRSqVRnz57V6XReGU1+fj432SGESCSSAwcObN682Waz6fV6r5/dJRLJnj17vGZda7Xaqqoqt9tdVVXFffnV1dWVlZWBP0MhoS/Z93Mok8n27Nnz6KOPRnh9mMpE06a5pN8QugqYQtRqNX2fyTCM7z+w5FYDkd+drTUaDX0i7Y+gpFLppk2b/LYayeVy+t6yrq6ONvXU1NRwl6vQJ/q+OdRoNF4F0LfEer2e7c7gUigUXm93w6g2dFKpdOvWrfTi7Etjb0qiaS3Mx8PxO9zT+zyEED46oz3hXOSP/YmETHs6NbpW0/uSSqU6nY52BgVaL6ZQKNj0hIsmMna73euJGo3mypUrtJ3HC53hZbfbf/jDHxJC5HJ5TU0N+2h5ebnFYvH9Ds3JyfH6UheLxTU1NbW1tXa73WAw0MSK++jWrVu9ZoSFUW3oYui7AwBAEC6XK3FgUOgq+Be9y8QMlhvDHjIBH//1YX/fuK1EC49EIqmvr6+vr9dqtV4jgbRabX19/Z49ewLtsN7Q0MB9Vn5+/p49e7i/rfW60e7du7npT3Z2ttc5XmXIZDKtVtvQ0OA7CprGWFqtlntBev7Jkyd9B12XlpbW19fTniBKo9E0NDT41hAG+jlke4LIrc/eyZMnQ9mcHgAgqigUijfeeMM3cKF9Q7/+9a/9JkH0hJqaGu6jarVap9MFGo9K34hy0x+vM+VyuU6n416wrKxMp9P53e+M3svrv0FlZWVbt271TYLCqHZMFAqFTqfz6kWqqakJZae2CfPxUPz2r6b3jhBPWHwvGN51PB7P2zcTf8FMm/jPwFjRYKWmpkaj0XiNBNJoNDU1NVu3bg20vx794mQfpalNkK8HtVrN/WL2/bL0KkMqlWo0Gr9fwDTG0mg0Xt9rGo3mtdde8zvoeqzVjklMfHcAAAjFYrG0m9qEroJ/cX5/dBDcVWZk02+uT9jtflyS+thc785qAF9ai0l9X+5DMzIErGHXti2EkGeffXa8b5ScnJyRIeQrjVrv9g7/w2U/szli0bsPRdemitGjsbGREFJYWCh0ITCFfDwUv/2raaOuDgvijwtmeh159HxEP009mjz047RJ8s8dTEq8/AYRAGJXZ2dnZ2dnVlbWuP5r8POf/5wQsqVm1/jdgvXSBdPMa66MkTj1ou/I0u8a13tF1zKxD68Mnvt44PIXw5e/HBqewJTK/PEAwiCIFYWKkqFenveEBgAAYV0eit9+PZm31WG3RPg7v7dvJhCS9OO0Ab7qAQAAgCgRFWFQ74Dn5Ac3fv+X/qvMiCAFmC8P9A54UqNpjDRAIOkZsweTxrCXMAAARLnLQ/Hbv0ziPQkihJCRSC/4dl8C8ST9WII8CAAAYFIRPgz63Qc3/vPdPsGn9vz1i6GCe/AGGwAAACbU5cFxS4JImAOkvbzdF088oh/PmISzMwEAAEalVCpFEu+F2JOAkGFQ74CnpvmrD65Exc8W73cPjEcYxDCMxWItKfE/1xMAAGKazdaRn58ndBUQwy4Pxv3LF6K+cVsaz9doyD/0xXs8iRtmjnmjei58vwAAAEQPwcKgj74Y2vpbV6/QDUGs8fgx7NSpJp1u39y5OQiDgEfNjccIIQUFBUIXAjClXb167Re/qLfZOv/zP18XuhaIVV8nQT4rue5JTiiZmSROjCeEOPuH/+jqZ4bD/TEl5J9vSmYlz035+sfCNlf/xT7v3OftvnhCwsyD8P0CAAAQbYQJgz66NrQ5mpIgQsiZv/anJMXNz0r6ZgYPnxOLxXrw4CGr9XzklwIAgKjS29tnMBw7dapZ6EIgtl0ejPvna4m+SZD2PvH/lN6xzd+z94kPdvX+2tkXxl1C6QxaKEl68W/SpMkJ7JEns1IsPYM1H7mv9A9zz/xDb5zHk/DMrGGfawSE7xcAAIh1LpcrcSAq1jPxS4AwiOn3/LTpek+/MLOiA7FfG7RfGySE3J2WsPTBaavmp4qTw5kn7XQ6Dx48hB96AAAmpf/6ryaD4XhfXzhvywFYlwfj/vlqgm8StDdv1kJJktdBcULcs/eJ56YkvHzJ/f/Yu/f4tso73/eP74mtKIljgyDmEnAouG4rt02dmcqh9dTULobO1HbbyVxakdeZ0DPHaJ/pi7apG85sjDGQ6Z4tfObMpHOCyuw5TKmlTNomtYL3pqVWZ3ChSNCihEQFAoIISGKiyInvOn88yerK0sWyLHt52Z/3K3/Yuqz1k2Ql0de/5/fM+UyzhUHb1pf03pRkDkLdmqLv15Z/9TenNXnQM6N5Il7w1+UZ5UG8XwAAy4Df7xdCNLa06l1IjukQBt03MHIyOq815wvqZHTq8edi7hdH2z5S9pdbTJnfMRaL/fCHnh/+0D06Orpw5QEAdBEMHnn88X89ceINvQuB4b0+mfe37+YnJkE7qkwyCTo7+fbgO999Y/TXQoib1nzqM1d+fVXBmpaK1W9O5L0Uu+x/ULGp6ePRC+lOpgqDNptXmwoL1Feuzs+774aLXUjPnXnipbMH3x07dm3pR7eUb79pzadMBXldN5j/j+AZzSGfGRVC5P91ebrf6vF+AQBgiVvsMMh79ELgLQPsTnpuPP79X8X84Ynuz60zleTPevuhId+jj/5DJPLOItSGFW6LrWFqNKZ3FZjDKtfmsrh9bfzKS3/dekfzvn82L5IiEq8uFva18U+uvnj8300I19k834XkjYq21XH72viNl9oIfnkhr/+cCIxl09WINN5779Tjj/+P559/Qe9CsBy8NyX+r3fyEpMgIcTnKlcLIcamz+17dfv4zMW/539z9uA748d2bHpCCHFn5aqCy9uGIhcmjp1N13ejXia2ec1qy+rL7v/B1WJ1vhBCDL33Pd+p78kL3zj/whvnX2ir+rub1nyqzlxcXVp4fFTbG//zmCjNy7OvT/IoeL8AAGAIixoGxcZn+n5xdmbBtszIOf9b445/P7PrM2urK1JuNHb8eOjRR/+B8UBYNOUVlZPFud/5DnOT8V9j39oQbzZdduvmsnjD6njv6TzfeW1q02yKf2vDZTe+sVg8UBn3xsRDp7U3/uq6+FfXXnbjT66Of3K1eOi08MbIg3JjdPT8wIDX7f53vQvB8vHulDifbBr05rIiObXnN2d/oiRBF+8yduylsz/58No7LEn/7k//36q01yrbqCpJkGLo1PduWvMpIcS29SXHY0l+jfd6wmW8XwAAMJBFDYOGXh2LLrFRQbM69t5Ez+D7fV/YkNgfFIvFHn30H2YdDxQIvNjQ0LhgBWKxrajfdQ4NPa13Ccb21XXaJEgqyxe7NsS/NJYXU/2NaCkUmiRI0WyK+y4IdXhkK9UmQYpvbYhHpugPyoGXXz7y+ONPnDp1Kv3Nvvzlv1icemBo6l204snagkz5F9+zJ87/OvHasxMn5RfFeUK9/UY8Hk96tKTnShwmLacjvpHsjO+OHbt0t+QFxy//D90zzwz19+/n/YLF1N7+Jw5Hp95VAFj+Ghsbi8xJ5usZ3ewLoHLoB/7Rmbgw3J9j701+66B2wbwQ4uTJyPHjocV8AgEYS8ealB/SyvLFV9dddm2qcEfqvHw5hj3tjTvWZFYf0nrzzfCsn2yBOYsLEY8n/yOEEOLKkg8k3mlVwcUhhkk2Yk04whyuFUIIcUXJTYkXluQrYxNTVHv5AYPBI7xfAAAwkMXrDDr23uQr7xpgWlBSz785fih4/vaay7Z63by52uX65x/+0PPYY99PMzTaav1IX9/fL3yNWAwOv6/92ps/uLZCxxoe7vqmEOKee+5Z6BOVlJQs9CmWN+uqeFnavH1zUVyI3/fvNJSmy3euLBSWQqFMGrpRu93QZT5ZetmRkZ3m5qa/+Is/+5d/+ddg8Giam6k7PoBZXV8iri+KJ66xeuH9sdjUjKkw/8PrWjWLtkryTXLFVixpd/U8lomdnBSWIrGqYM2H1rb+5uxB9VVbyrdfvM2FqcSDlOaLuzZc9hfc1772Vy0tn+X9AgCAUSxeZ9Cv3xyficeN++e7P3//XLI1bl/8Ypvb/W8dHW2L9kwCWALiGfyZ23HSJ0dCCEvhnA6eSYWGmeCml+uvv+6++7q+/vX/UlGhZwSM5aQsX/zXjfnXFYt4gkPvjAoh1hZd3Vb1d0pjztqiq/7suu+tLbpaCHF8TAghTo9NnBwdl39OX5hQHyHxdOprT19Q3XFsQghxbPzizT5z5dc3r7lVudeW8j9tqPwrIURsauaZU+c1da7Oi//Xq/OuT/h9Ae8XAMCyNDIycubUe3pXkXuL1xn0/Jtj08YZHZ3o7Nj0z0MX7vhgWeJVJpPpnnv++otfbOvpeZhJ0gCyMzoj0udBqTYgw0LbsuVjNTW3DAx4f/rTw+fPp9u5CchEWb64f2P+feHp18cv+3/R//va+x9dW7LZVHzTmk/9zQd+Lkf5XFv6MXntmSnx20ubyD/1xrsT05kNYVT91+s/T15c815ckN+66UohRGxaPDsqtpaJVQVr2qu+e3by7bOTJ68ouWlVwcW1pt1HT5+bnFYfrzRf3L+xYFNJYZ27CQAAIABJREFUyt5D3i8AgGXG7/cLIRpbWvUuJMcWrzPo7NiM7tN/5vnnX399Ls0DtFgsfX1//+ij/81iuXLRnlUAS1ZgTIym/bDmH7/s26G0H5rembosDHpxLN2Nf8nnr1wrKyttb//Cww/33Hprg961YDkoyxf3VxVo+oOik9Nf80eUrbuuLf2YkgRFJsWhsxcHBm1YVdy66cqi/LzE3qLEEyXepig/r3XTlRtWXVxr+vIF4b/0N8baoquvLf2YTIJiUzPdR079/L1RTU/Q/VXpkqCLj473CwAAS97idQYF350wdGeQEOLIuxPnxmfWJGwrplZXZ+3v/7fHHnv8hz90pxkkBGRti61hajQ2++2woDL7y6w/Kr6aYueB0RnhPpunPs73389LuvWY1Hfmshu73s/775aUN3a9n8cKsIVQWVnxta/91a23Nrjd+9MPRgFmVZYvuq8p3P3GpLo/6Nzk9J//6q3Wq0y3VpaZCvPzhSgrKT45nX/88vx3w6riO26w/OR3J2fvD7r8v17FBfl33GBRkiDphfPi2LioLpoumJqUh3vmvdFn3jt/cuyydsTSfNF9TdGsSZCC9wsAAEvZ4oVB0bHp2W+05B19d2LLNatmvdldd33li19sy2TjeWCuyisqJ4uL9K4CGfn++3mWwnizSXv56IxwRPI0s2AjU+KhU3nfqkiS4rijwnd5s09gLOWNHzqVFzLqsH5jqKm55b77up55Zujxx/+VVTCYj7J80X1N0e43JjTrxQ6+fe7g2xebkYsL8u+48eoNq7VD4zesKr7jhqt+8ru3Z8mDVGFQcUH+HTdcpUmCpBOxif877aFK80X3NcWZJ0EK3i8AACxNixcGba4sPmrY3cQUw2+MZRIGCSFMJtO3v/3Njo62oaFfLnRVABZdpo03D50SgTHRYb64/9fojBg6L77/vohMJTmCNyZCE8K+Tnzy0taFL44J1/siMJbkjN6YiEyJDvPvb/zL86I/KgJjNAUthltvbfj4xz82MODVuxAYW1mB6L626DtvTLye4p07PjX949Bbd1ZvTJIHrS6+48arfxx6K02Io6wdSxUqCSFOX5hIf5DSfNF9bfGmVdnvUcj7BQBgXI2NjUXmFN3+RrZ4YZCpOG/G4MvExGz7tybavLl68+bqhakFgDF4Y8Kb8cK+0IToejfTGwfGZE4EfcjBKHpXAcMrK8h74Nri75yYeH0seRwzMTX94+PhOzdv3LBau4PXhtXFd1Zf/ePjqaOceFwIUVyQf2d1qiRoPN3dhSjNz3vguuJNq+Y7ZZL3CwAAS8riDZDecm2J7tvDz/9PnDkc0NvhA/uffvppvasAAORMWUHeA9cVX1ecl+r/H+OT0z9+JXz6wnjifTesLrlz88bivLz4TLIB0jPx4ry8pEGSkEnQK+HxyelU512dJx64PgdJEAAAWGoWrzPo5itKpo0fpBi/twnAvMXj/F0AILfKCvJ6NpV0vTqWqj9ofGr6x0ffvPMD12woTewPKrnzpqofv/Jm4r1K8vPuvKkqeRJ0fvzHr7w5nqYnqCCvZ1MJSRAAYIUbGRkpnJjUu4rcW7ww6LabSsuK886Nz7btxdJWf21GA4MALHOEQQByrawgr+eGVV2/u5A2D3rjzpuvTZIHlZbc+YFrEu+SNDwSMgk6+sZsSdAqkiBgSRkKTZyKGenD1GdrSkqLsx83BiwRfr9fCNHY0qp3ITm2eGGQEKLpptL+l84t5hlzrubKJP+jArDiEAYBWABlBXk9N67u+t351y4k/7w3NjX9oyNvfP6W5HlQ4u1TJUE/OvLG+HTKbV5LC/J6bli9aTVJELCEHA6OP/HcBb2rmJsX3pzsvmON3lUASG5R/5n/PxvW6z70Zz5/mjaXmvkVGfS2xdZQV1endxUrnlwptgz+AFhiygryem4s3bQqP9Xbdnxq6kfBE6fPa6fHX1WU5GimAu0lp8+P/Sh4YnxqKtXxS/PFgzeSBAFLzgtvGG+Vyhtnpt84kzJ3BqCvRf2X/pp1RW0fXjMdFwb989kPlC3m0wUkVV5RuX79er2rWNl0T3AIg4Blrawgr6e69PpV+fEUxqamDgRPnFLlQZtXic+tTXKoP1knNqi6wE+dHzsQPDE2NZXqyKvzRU916abVCRkSAGTl/AT/2QCWqEVdJiaE6L6t8qdHYlEDTg6qWlv4pY+Y9a4CwNJAjAJgIZUV5D24uezbx2KvXUj+S/Xxyakfvfz652uuryhbdVWR2Ga6ePlLZ39yduKkEOK6so9dW/qx4jzxubXi398XsWlxanTsR8HXx6fSrQ57cHPZDSRBAACoNDY2FpnX6V1F7i12GLR2Vf6jn7/yL598e5HPO38PfLZS7xIALBmEQQAWWFlB3oM3mb79yrm0edBrn//gptuvvri7xcG3//Y3Zw/Kr32nxJbyP/3MlV8vzhMfLRX7I2M/evm12ZIgE0kQAAArhA4Lwj93s+l/q1+v+5qvOS4QM33uZtPsjw1YeIcP7H/66af1rgIAsODKCvIe/MCa61enXi82OfU/XzlhKRJCiJfO/kRJgqTnzvzbO2PHhBDXFokDv311bDLl6rDSfPHgTWtuKCUJAgBgpVjsziCpt7ny/QvTTwTO6nL2uaq1lPw/f2zRuwoAS0Y8LmaMt9YVgBGVFeT1fsC860j0tfNTSW+wafXFwdHvjh1LvPbYuZ9fueqmknyxoTD/7YnkR5CRE0kQAABJjYyMFE4Yb4L7rPQJg4QQ//gnlmvWFT74s1N6FZChD1lKfmq/Zi2biAFQY5kYgMVSVpDXe4v5W8GzSfOguMjoryPZAZT04A/eYr6hVLf/EAIAsMT5/X4hRGNLq96F5Jie//Z/+9MVtutLv/hEODq2RH/H3nqL6Z+/cNXaVfyuDMDl6AwCsIjKCvIeumXtt4LvJ+ZBr4ycl19cseqmxDteV/Yx+cXbo+NJD9t7y1qSIMAQZkR8egF+F/XxW1Z/uLrk1Nnpnz0/eu587v97w2/PgCVL53/+t20qPfr1G/v+40zff5w5u5QiobWr8v/uc5a//GiybVoBXW2xNUyNxvSuYmVjmRiARVdWmPdQzbpvBUdeG70sDzo3MfXr92IfqzR9eO0db4z+Wj026ENrW68t/ZgQ4icnziT2M5YV5PXWrLuhjCQIMIbpmfj0TC6jlRuuLrZZS9eU5gshrq4o/LPmtc8FL7x4fGx8MpdnSdqTuKS4XC6n05nJLQ8ePFhVVbXQ9USj0W3btgkhHA6H3W5Pf8vW1tZoNKrcsrW1NRwOCyH27NnT1NSU+bmEEIFAIAfVw1D0/x/AulUFuxsrO/+w/F9eOPvoL0+feF/nxXjXrSu655Mb/vKja9fREIQlqbyicrK4SO8qVrw4YRCAxVZWmPdQzfpvvnxGkwc9EnjzyaZbhBCtV//th9fdcWL01+LS1vJCiNjk9D++/Lbm81hZQV7vB9eTBAEGMhMXueoMMpflN20xbazU/n9yS83qj2xe9Uxg9MjrSXoJs7PUo6Clx2w2NzU1DQ4ODg4Opg+DBgcHo9GoEKKtrU1zldvtziQM8ng88ykVRrdU/hOwblXBPX9Yfs8flr8+Mvnz10ZPjEwETo69f2HxPm596obStasKPnVDmfWqVYt2UgBGdFVJwfLoDLpq1VL5JwBAhsoK8x7+4Ppv/vayPOiVkfP3/er1+z9xvRDi2tKLGZAUm5x+xP/m27HLPteVFeQ9VEsSBBjMjBDT805WSory/qC2tG5zys87xUV5TVtMt1xf8p8vXwi/uwwn5iay2+2azGXnzp3Dw8OzNubkhMvlGhwcdDgc9fX1yoVbt24dHBwMBoPBYLCmpibVfZ999lkhRH19vdlsVl9uNpuHh4fT31c5u9lslokS0mhsbCwyr9O7itxbcv8PuH590VfXL8MnGsCycfWqwr+9acPe10dOjiXfmscQbjIV/+3NlXpXAWDOygrzH64t/+Zvzrw6+vvPaT967dTRkfNfq7360xt//5+oH79++h9/+7ZmWlBZYd5DHyq/oYwOU0A3jz32eCwWu+uur5hMpszvNR2f78yg2k2rPl1XVlKUN+stqyqLOj5V9PLr40+/EJvnqjE6g9JLukKtqanJ6XRGo9Hh4eFUgU40Gh0cHBRC3HbbbZqrqqqqgsGgx+NJHwZ5PJ5oNFpTUxMMBrMtH8a25MIgAOkdPrBfCFFbW6t3ISvaHRbTHZY5/AcOAHKorDD/4Q+Vf/Ol0+o86JWR0f8ydFwI8fEr1gghnn/3XIo7biAJAnTX3+/56U+9d9311S9+UbvAJ5V4PD6TbRh0zVXFf/SRsivWze2j3wevL6neWPz8q2O/9Gc/rXLJjwxaisxmc319ffqVYnKFl1xTprmqqalJhkEOh0PTNJR4BHnj3NUOI2HHdAAAAIMpK8x/+MMbbigtFPG45s/z70SffyeaeHlZQR5JELB0jI6O9vX9Q0fHn/r9GQ3unYnH5QzpLP6sKS86U5A/PvdcZjwu3rpuddbnnZ6J0xuUHdnvI1eKJb2BXCPW1NSUGPfU1NTIQddpRgLJdWRms3nWpWQQQoyMjJw59Z7eVeQeYRAAAIDxlBXmP/yRik1lhfEMlBbkPfzhihtMJEHA0hKJvHPPPX+za9fuSCSS/pbT8YsrxbL4MzkdzyvJf31SvD6a6dTD8an4f5yP//Nk3pvT2Z93en57iQ0PD1utVqvVKoQIh8Pd3d3y223btqljDo/Hs337dnlVa2ur+qpwOCwvlyuqEslj3nvvvXMqTH1Gq9XqdDrlHl6J9TudTuVm27Ztc7lcckCPx+NRHpoQYufOnfLbnTt3ykuUlGd4eDjxyOFwWF6+devWpBXKfqI0YZDb7VZuhln5/f7nfEN6V5F7hEEAAACGVFaY//BHKjetLkz/q/nSPPHwR0iCgKXL5/tlR8d2OUso1W1m4jIPyuaPsiX9eFH+Kxfi7802Bui3sZl/nsj7z/jF6UJZn3c6nptlYsFgcPv27Uq0EY1Gu7u75bSd7u7u7u5upX1GZkbKIJ6qqio5mPmpp55KPGyasTupRKPRnTt3qs8ohHC5XK2trZrUxuVy7dy50+Vyqe8rJwFleC65R1jSQEeWnXSNmCSzpHA4nPTu4XBYHiFxGzKsKIRBgMFssTXU1dXpXQUAYEkwFeY/8tErNq0uiE9NJ/1TKuKP1F1xo6lY70oBzMLlery9/U8HBrxJr52ZV3vO7yOZ/IK8M/G8YGzmfLIeoXfHZn44Jg7nXbamTK/OIMU3vvGN+vr6X/ziF4FA4ODBgzLfcblcTqfT4/G0tbUlXqW06sigR9mFXW14eDgajaaJVBLdfffdMvRxOByBQCAQCDzxxBPypPfee69yCtkTJISw2+2BS/bs2aOcqK2tTV4ov927d6/8du/evcq5ZNdPOBxOXCk2a5RjNptl10/SFEwmRG1tbWkmCmElYIA0YDDlFZWTxfx2FwBwkakwf8/Hr/r6cPjVc+Oaq8oK8/d8/Oob15AELXPB4BG9S9DHu+8acopHmhVho6OjDz74yE9/eviuu75SV2dVXzUjst9NbCbhfgXF+W9OifyJmevL8uX2YuPT8Z+Ni5fjSXoF5rmL2fxt3Lhxz5498uuqqqq9e/e2traGw2GXy9XU1LR7927lqj179rS2tsqWH5mGtLW1yX6cwcFBTXoig5LMl0p5PB6ZyzzxxBPKqJ2amhqlHo/HI48mb1ZTU+NwOJS7NzU1ZZ46CSHq6+urqqpkF496so8ySCj90eSWZIl7zEejUSUMyrwYLEuEQQAAAMZmKsr/bv3Gr//HG7+L/j4PKivK/279xhvNJToWhgUVDB756U+9zz//gt6FIMcCgRfvuedv7Pav3HXXV5QLZ2biM4mhTmZSNejMFOcfvxBfXxA/OZP3H/G8VBOmsz5vmlPPSXt7u+aSpqYmuQJLnbYIIcxm8y233DI8PKwe4tPW1uZyuZ566il1/KGsEcs8oFEylMShyzJy0mz+FQ6HZedRhsdPpBxW/TBla1JNTU362c9VVVVtbW0ej0ezx7zcUb6+vp7R0ZlrbGwsMq/Tu4rcIwwCAAAwPFNRwXf/8NpHfv1WbHJaXvK/f/iqG82r9K0KC2R09Px3v/v3weBR+W1FRcUVV1ToW5IuiosNmXVGIpFI5J30t7Hbv6LZdX4mnn2HTqq7FeWJjavyzk7n5QtxxYx4M8Xt5tMZlJOeIrkOS00mLFVVVXLbLLWqqirN+B6ZHCmLwuSFMtmR3TeZ1BCNRmU/TtKZzfIgSgIlu3Ki0ejdd99tt9vn1BCkJh+4HBetPAnKlvCz3v22226TYZB6j3l598R8DSsQYRBgMIcP7BdC1NbW6l0IAGBpMRUV3L/1Wr2rwIJ7/fUT99//4Pnz54UQt97a0N7+hcrKlZgECSE2btyodwnZeOyxx12ux1Nda7V+pKvrmxaLRXP5/JaJae+YL0R5gdhQIIQQZ6fF6jzxkQJRlS9enhbRhJPovkwssblmTu02sokmGAwqy7jEpbE7mWciStCTZusxZWaQXLB27733BoPBe++9V07wyWJGj1L5s88+K8OgYDAoK8kkDKqvr6+vrx8eHlYeuMfjCYfDVVVVWedTWE4YIA0AAAAYg5IEXXfdtQ899MDXvvZXKzYJWn4slisfffS/9fX9fWISJOa5pdflh1qbL24svpgEqW3IE9sKhbVAaIZT5vDUepELxJQN5uXYnTmNjp6rpqamQCDgcDiqqqrkPmLbtm1Ls9d7muMI1Z5i8iFk3tAk52crm5rJMUlMC5qrkZGRM6cMOaEsPTqDAAAAAGP4x3/8nkyC7ruvq6ysVO9ykBtlZWV33fVVzbowDbmbWHbHV2b+lOaLDQWiNC/djavyhSVfvDojjl1ccjq/ZWJLIw2S67ZkW01VVZWMVDIfHS1UvUjq6dGzstvtdrt9eHj4scceGx4e7u7uVna7n1Pl0WhUrhSTqZCMeDIh5yXJ4dZympLZbCYMmiu/3y+EaGxp1buQHKMzCAAAADAAt3v/iRNvlJaWkgQtJx0dbW73v6VPgoQMg2ay/BOPx4vyhKVQXFM4SxIkFQpxU774o0KxIU8IIbI+7/RMfIn0BilNQDIGynzsjqKqqkrmQUeOzHnzvvr6+r1798penqR7vac/rwyPnn32WWXs0Zwql9HPU089xY7y0CAMAgxmi62hrq5O7yoAAMBi+/nPh4QQX/nKn5MELQ9W60cee+x799zz1yaTadYbz8TFTDye3Z/y1fnXF4m1qT75pYhrVueJPygUH8/P8qTyT/bPTq7JbprBwcHBwUG5nVaGK60UMlVxuVzKbKA5SdMQlP6AsnKPx/Pss88KIZqamuaU5sj0Z3h4WAZhtAVBQRgEGEx5ReX69ev1rgIAACyqYPDIqVOnSktLb721Qe9aMF8Wy5UPPnh/X9/fb95cneFd5DKx7P786Jen/1cwNp0imUkT2Lx6dmq/562szzsdz8nO8rkhN1MPBoNut1vMZaWVQqYq4XB4+/btyhQeyeVy7dy5U/nW6XS6XC65+5gkd/USQmiWmMlv0wdMsg8oGo3KIyTdziwNpZMoGo02NTXNNQLDMsbMIAAAAGCpCwaPCCG2bPmY3oVgvj73uc/edddX5nqvmbhIleZk4t+eOTXw6/f/qvmKmyuLM7n92an408+PHHs5mxYYtSWTBQkhRFNTUzAYzHpuTlVV1T/90z/dfffd4XDY6XQ6nc5Ut4xGo5q0SGpra9OcV5YUDAa3bdsmLi0o09xLpjmyoSm7odd2u50d5eejsbGxyLxO7ypyjzAIAAAAWOree++UEOK6667VuxDMV9LNwmYlZwbN57yno5O9P3xr01WrHJ+7cv2qlAtEJuPCd/Tcf/pOzedcS1NbW5tMcLJeKlVTU3Pw4EGPx6Pu5amqqmpra1NnNFu3bjWbzeo8qK2tbevWrYk5jhxireRKqdp2brvttvks8pKDh86dOzen2dVY9vKWUOsesOQ5/L72a2/+4Fo993B9uOubQoh77rlnoU9UUlJSUcFutVihDhw4IITYsmWL3oUAwEX3398TDB69775v19TconctS8XGjRv1LmHxfOlf3x5+YyxXR7tza/nnP7quJF8IIcITYvTS5cFT496n3hmNTeXqRD/4s6u2Xrc6V0ebp3A43NraKoQ4ePAgq6WWh6NHjx49evTqq69e0L8Nfvvb3xaZ11m3LEaUdt9LvnWnRipm8to/8QdV5RsW9Fx0BgEAAADAkjYTn9cW7xr//p+nn/nN2buarrRuXCUveXd8xj1w8t13cpY3SUuq70C26mQxOhor3MjISOHEpN5V5B5hEAAAAAAsaXGR4825Tp2bfGR/+MarVrf/0ZX/69i55391OocHX4LC4bCcm5PF6GiscH6/XwjR2NKqdyE5RhgEAAAAAEva9PwGSKdy7O0LD/6P13N/3EuWSGdQMBh84IEHhBD19fXsrQ5IhEGAwWyxNUyNxvSuAgAAAItnZma+A6R1oft82tbW1nA4LL+uqqravXu3vvUASwdhEGAw5RWVk8VFelcBAACAxTMj4jmcGbRo4kulN0jY7Xa73W42m/UuBFgqCIMAAAAAYEnL7QDplePgwYN6lwDDa2xsLDKv07uK3CMMAgAAAIAlbTpuzM4g45UMrBSEQYDBHD6wXwhRW1urdyEAAABYJPF4jncTWxzGqxhYMQiDAAAAAGBJW1NSMD2jdxFz9+GrSvQuAZivkZGRwolJvavIPcIgAACAlAKBQFdXl/JtdXW10+lMessdO3ZEIhH5dWdnZ3Nzc9Kbeb3evr4+9SVOp7O6ulr5tq+vz+v1Zl7hoUOHMr8xAIPa/UcVP3s1dnbMSIHQfX9UuW5Vgd5VAPPl9/uFEI0trXoXkmOEQQAAAJkKhUJut7u9vT3rIwwNDWkuCQQC6jAIABJ95KpVp++7OXBy7P0L0/M5ztHhp1/51dPpb1OxcdMnv7BjPmcRQly/vvj69WyACyxdhEGAwWyxNUyNxvSuAgBWrv7+fpvNZrFYsrhvJBIJBAKaCwcGBuaTLi2OWCzm9XpPnjwphOjs7NS7HGCFsl61ap5HmHp19eslsyzdqjSv+tQNZfM8EYAljjAIMJjyisrJYn7NAgC6icVifX19PT09WdzX5/MpX5tMplgsJoSIRCKhUGgpNwd1dXUpGVaq5W8ADKGgoKBktjCoqIj/agLLH2EQgOXG4/F0d3cLIaqqqg4ePJjmlq2treFwePfu3W1tbbMeLfFmLpcr1egQjYMHD1ZVVWVUPYQQl552zSuovBYabW1tW7dubWpqWsQCsdIFAgGv15tFLKJeI2az2ZTZQENDQ0oY1NnZqWm9uf3225Wv00wjAoBZFRYWEgYBc9LY2FhkXqd3FbmXr3cBALBQwuGwy+Wa50GeeuopzRdYajwez7333rtz585oNKp3LVhBXC6X7OvJXCgUCoVC8uvq6uq6ujrlqjlNjAaArMnOoPQuXLigd5kAFhydQYDBHD6wXwhRW1urdyHG4HQ6m5qasu7KCYfDw8PDNTU18otwOKw+lN1ut9vt6tvv3LlzeHjY4XBoLl9oLpdrcHDQ4XDU19cv5nl1oWkXCgaDHo/H4/EMDw93d3fv2bNHx9qwcCKRyI4dv59mum/fPiGEz+dTAl+r1drR0WG1WuXlQ0NDyoKs5ubmjo4OOeJHs5PXrl27bDab+kQOh0PJa+x2u2aUj8VisVgscsFULBZzuVxzmp6jbgtqaGiwWq3KSrFYLBYIBGT92YlEIuonpLq6uqWlxWKxqLdCU+87FggEQqGQ3+9XzzBqbm6WhSmXqJuSJK/XK6Mrq9WqWSvndrvVB6yurm5oaFCew1Ao5HA4lBur91BLc5Xb7VYelPKKZFK8enO3xD3gfD5fb2+v/NpkMj355JMCWBmmp6dn7QwaHx9fnGIA6IjOIADLU01NjQxuki4sytDg4KAQor6+XoYs8tslyOl0BoNBvavQR01Nze7du2X6Njg4uGKfh5UmEAg4HA5165/cAN7n87nd7t7eXvVoHq/X29XVJTOX5uZmk8mkXKXZ2CsWiylJkEgxHEed/ni9XvWJZqW+sUyC1LFL4i5jmQsEAjt27FA/IaFQqK+vL1V3pHxOXC6XZpq1vNztds+1gEgkIl8R9QFDoZDL5XI4HDKUqa6uVs9FUt9SU4b62+PHjytfy6crw+JbWlrUlahfWc1hWXaHFeXs2bOzdgaVlJScO3dO70qBpWJkZOTMqff0riL3CIMALE/RaHT37t1CiOHhYY/Hk91B5B23bt162223Kd9iCVJasYaHh/WtBIujr68v6RKt3t7epPFHJBLp7++XX3d0dCiXJ6YJytc2m00dGyksFou69S/zxWKBQEBpVLFYLDIWUa8Um1OupBYKhdTtP5qrsjhgYs6SnkyCUp0rFAopPTjq8Esdx6i/1nyrVKI8aekpxWuCvzSvdUNDw6yHBZaNM2fOZBIGvfvuu3pXCiwVfr//OV/2v7BZsgiDACxb9fX1cuSz0+nMYpqMsi6svr6+qanJbDbLxWILUCnmy2w2M6J7RTGZTD09PYcOHXI6nZot3tVXJc0C1OvCYrGYOoJRZxBpAoL29nYllVDHTOn5/X7la6WGNMVkTpN/7dq169ChQ4cOHUq/XrW5udlutx+65Mknn1QnNQMDA/ILea36qubmZnmhskZMnYhZrdZ9+/ZpDhgKhWT4snnzZuU4SjQmUncGxWIx5cjq5yqT4k0mk/ou6sarUCikHFbTrwQsb6+99lpxZk6cOKF3sQAWFmEQYDBbbA3q3yQbws6dO61Wq/y44vF4WltbrVar1Wq99957w+GwvE04HHY6ndZLuru71VfJC1Ot0uru7pZHS7zK4XCYzeZoNJrhtl9qcmK0skeV/GKeY6RdLpfy8Ldt2yafE5fLZbVTYVw0AAAgAElEQVRad+7cqbmxHICt3F4+LeplUB6PR14uv5XPc+KhNM/t9u3b1S1O0Wg01dM7ODgor0qM0rZt22a1WtXRmNzqSzlLa2ur+gPqfF5EIJEyHkhOxlFfZbfblavUTUBK34rFYlFnBEpGo85iNLdJpF4s5na7M2nAUbeiKH+Na1aKqQOjDEUiEXWS0tnZqVTe3t6eagFUc3NzZ2eneiKSyWRSh0eZtxTJWUXya4vF0tPTI+M5zQHlQ1M/WCWRUb5QQhllvZ76oSlBUubFa1aKKfGTOhjS/PwAy9jk5OSxY8cyaQsqKSk5e/bsqVOn9C4ZwAIiDAIMpryicv369XpXkaXu7m51yjM4OLh9+/ZwOBwMBrdv367ODjwej7xKCCF7c0SKICYajcp8Qa7k0jCbzXIoqRwwnHmpymGVMEgef3BwMLstq8LhcGtrq9PpVB6+jKgSMyBpeHhYc3tx6WmZ0wMZHBzU5DLBYLC7u1s5r9lslo8xcdrOs88+qxSjvjwYDEajUbPZrMyr3rlzZ3d3tzpjkgmUcpb5vIiZCIfDyk9LdkeAsagzBU1bR5qrFOrP/0qQoe7KmTUgqK6uVocRcii1pkdJzefzKa0omgBIs1JsrjuUqeMSTS+M5uBJ7+t2u+WUpdtvv109wlndtpN5AZFI5HYV9QFlQKOpUN5XOYK6G0teqC5DM107k+Krq6vV90p8rROfMWC5mpycfOmll+T06Ay98MILbNMJLGOEQQAWicfjGRwc3LNnTyAQCAQCcqCPDES+8Y1vmM3mxKuUCCNNEDM8PCyDCSW10Whra5NXzWmStDxXTU1NTU2NvKS+vr6qqioajWY3Oegb3/iGTCscDkfgEofDMTw8nHTEibxxW1vbE088IW/8xBNPaEZit7W1yavkt3v37pXf7t27V3kUstemvr5eOY78yKQ+r3yMiRmT0sWjyYnkLdU7l7311ltVVVXqhyZ/S68e2DSfF3FWsvNLnU9heUs6zSdzVqtVCW7kNl4ixTKuNOx2u3KQUCiUfuiyuhUlFoupExP13wBKMZlTh0cWi0XzzKR6ouTuXXIMs8vlynpckaaATCSuFFNW51mtViW/kxcqV6lHOM2peHXAJF9idYtQqslQwHIyNjb25ptv/upXv3r//fczT4JKSkoKCgqee+65YDDIMGmscI2NjZ/94y/oXUXuEQYBWCThcHjPnj3Kp/22tjYZ+gwODobD4UceeUR9lQwslDCira3NbDaLZPt5yU6T9KMx5GIxueoqw2o1a8Qk+W0We4q5XC6ZpzzxxBPqUu12+549e5L+2s1sNu/du3f37t1KGiW3zRJCyF6qTM4rI5Kmpqa9e/cqx7Hb7fI4LpdLnlrpDFIfVrb/yKs0OVFiF09TU9PBgwfVD03Z515pL5rni5iKx+PZuXOnPObu3bvlKYBZqXt//H6/OoVRR0XpqReL9ff3p+qmmVPEM589xTIUiUS6urqUtVR2u72zs/PQoUP79u1b6FOLhBnSypNjMpnUjTyapiElQppr8eox0oFAQPNaMDoay9jU1NSxY8eeffbZ559//sSJE/F4fE5JkOLMmTMvvviiz+fz+/2nT5/W+2EByBnCIMBgDh/Y//TTT+tdRTZqamo0XRvq9EeJKpQbCyGi0aiySEqOgtYsMkpczJVUVVWVDBo0q65SUQZFJw2DNKFJJmSRiQ9THjNpM0vSy5VLMvkdnUzZhBDq1ROSzGWi0ah8mFVVVYnNQUriU1NTEwwG1avb5MNXl5d4CiHE1q1b5e3V5xXZvogKZfyQMkdJlq2OGoFZqTMCn88nYwL5beYBgdVqVYbyxGKxVGHQnBZ/ZbFSTJFYQNJDDQwMKJfb7XZltFDW51VUV1cfSkEJa6qrq5WsTTYSyvPKGEgJfeTzqZ5LnXXx6tFRPp9PidssFotm6RmwbExPT7/88stnz54tKCjILgNKNDU19eqrr46MjOj94ADkBmEQgEWSGG2YzWbZx5EYkWzcuFFzidKiog4X5BIkuYAr/dntdrs8SyaLxWQ2kXhYZdXYnJqDlPREhiOJUl0uuS6Rk6QzP688aU1NTdInR16oRDyJY4OGh4flui35wikPWVkjltiDI5eeuVwuOQ06cWj3PF/EpOTytF/84hckQZgT9bCYSCSiBARzHSKjXiyWylybfea0aEt99sQWJGVTMDV1ZqS+e5r2JfVaKk3sopkJnUkPlPIMx2IxZXWezODUR1O2aVNv+JVF8Zp54UnHSwPLzOnTp6empvIXQCa/VAOWmZGRkTOn3tO7itwr1LsAACtF0vU7sj8lk7vLICYYDHo8HmU9kUwo1GNc0/jOd74jpy97PB7ZopKKjCeGh4dThS8ejydpL0xSygO85ZZbMryLECIcDis9L9mR/10LBoOZREgy8VFOJ7ufZLwi8y8lJ0oabMmtxGY9y/xfRCFEVVXVwYMHM7wxkEZLS4uyw5eSv6g7hjIh97Hq7e1NdQNNQCObWRJv9qUvfUkJWfx+f6pdwBJZrVaTyaTct7e3d9euXfJd39vbO2s0MzAwII/g8/nSLKRVxy4+ny8UCinpjOz0UTKa3t7ejo4O5TEqe42pH7V6bJDyzMua5WIxzVZiqf4Sy7x4m80mT6QO2jJ/kgHDKSgoWLNmjd5VAMuE/L1FY0ur3oXkGGEQAMNoa2sLBoODg4MyR5CBReZTh2tqaux2u8vlcjqdTU1NqYbLDA8Pz/pbL7myKcPzvvXWW5ncTC0cDm/fvl2mSHa7XZYqH/UCLWqoqamRwVwwGKypqZGpkJwKJJuAlJwocXq00+mUH8NqamqU/Ki+vl4+1ZoTzfNFBHJITqjRxCVZDJGx2WxK1pBIvaO8SP0Wttls6mQqFotlmEmZTKaOjg4lConFYl1dXenvsnnzZqXaQCDwpS99STlUqsVW6vhGXFoZarVae3p6hBDqOCwWi8kOQfXtNbGL+klQNpVXHq/VapVhkBIwqc+eRfFCiJaWFs0LxOhoLG8bNmzYsGGD3lUAWNJYJgYYzBZbQ/qtgpcxmeAo82tkR8mcpg7b7Xa5I1hiSKGQWwI1NTUFUkizRXpSypK3VD1QiZd7PJ5oNFpVVfWLX/zC4XDY7fYshivLCCnNA1H2/JJkt5R8VuXUZ/lI5RZdMidS0iJlZZ+y6ZvD4ZDjse12e5otveb/IgI5pIl+1MuR5sRut6dKFtRrxCwWS6rja/5i10RI6Slzc5IWlnhhc3Nz0qVt6nnYGjabLc0zY7PZdu3alUGlF5lMJk0opv5WEzxpbpxF8SLZUHBGRwMAVjjCIMBgyisq169fr3cV+lD6R2SCIBdzzamjxGw2y19oezyepCuwlGHG6q2yNOQKqaRbpCdVVVUlc5lUa74SJxDJpViJ7UtzGlwtR/AcOXIkw9srM6TlYGn12ZWrlPk+yr2U4yeuvEta7fxfRCCHNIvCsg4ILBZL0tglEokoE2pE2h3r5XIn5Vv1PveZ6Ozs7OzsVIcm7e3t+/btUycgyvFNJpPT6VSv27LZbE6nM30Q5nQ60+S2NpvtySefTJygZLVak8bZmvBLHQAl5kTqZya74sXlE4LmOhkKAIDlh2ViAIzktttu83g8g4ODssEni6nDTU1NbW1tqWbcyGxC9sKkOkJbW5tsLFIPvkmvvr5+cHDQ5XI1NTVpCna5XKlWpSWGTWmGYiTeXtYZDoddLlcmdcrlYHKgj7h8qndTU5PT6RwcHJRdTkknXkejUXV0JdeCJT3R/F9ErEAWi+XQoUNJr7JarVlcJYVCIWVtkclkStpfM+tBpObm5sS7pylbw2QyPfnkk6muzboA9QBpdVwiRx0l/s2Q/kTt7e1pxnuZTKb0N8jwUCaTKX0Z2RV//Phx5Wv1/mIAAKTX2NhYZF6ndxW5R2cQACOpr6+XE4jlYq40/TtpOBwOs9kcDocTUxhlH7FUE4VEQm9LhmcUQkSj0bvvvltGLeLSiGin05kYPMkgxuPxKOlPMBi89957U7X5yNu7XC51HmQ2m+WHJafT2d3drdkpLHGohxKBycel7vSRe8+Hw+EjR45okjJlKvY3vvEN5RQul+vuu+9OFfHk5EUEckKdlSy/ITKRSES93GzFLjEWqjnWEm1BAAAQBgEGc/jA/qefflrvKvSkbE9uNpvTbwqWirJYTEMOMxYZxBPyBsrtZ1VVVbV7925xKQCyWq1Wq7W1tdXj8ezevTux0UbONhJCOJ1OeePt27cPDg4+8sgjSY+vbAy/bds2q9W6c+dOebnD4ZBPkcfj2b59u/WSnTt3Jp2apGwcJudJq6+SY4PC4bAmulKezGAwqJxCJlxpXp35v4jA/LndbnVWYtxukUAg0NvbK9NVhdvtdjgcSt+TxWJZsZtnRSIR9XZvqaYOAQCworBMDIDBKKu05hMitLW1PfXUU5ohPrIjJv0aMUnO05EDhtTLqdKf8ZZbbvF4PEpnUFNTU3t7e319vXw46j4as9n8xBNPqJt32tra2traUp1L6QCS36oPJcOmp556St3HJA+V+AQqz23iEB/l1IlJmYyuXC6XjMaqqqra2trkxm1pno35v4hAdnbs2KFsU6VIHHZjLD6fL/326rt27VpmfU+z8nq9fX19mgtTTXcCACCVkZGRwolJvavIvbx4PK53DYBhOPy+9mtv/uDaCh1reLjrm0KIe+65Z6FPVFJSUlGh5yNNJRwOt7a2CiEOHjy4PGbN3HvvvXKr9aT9SsvS0n8RDxw4IITYsmWL3oUg9xLDoPb2dkMHBIFAIM128tXV1Z2dndntkmZoiWGQxWLZtWuXcZ+K++/vCQaP3nfft2tqbtG7lqVC2a8TwMp09OjRo0ePXn311Qv6t8Gjjz4qhPhmz8MLdwrFfS/51p0aqZjJa//EH1SVb1jQc9EZBMBg5K++l83UYbl1l7h8YPOyt8xeRBiX1WptaWkx+gQZ2e0yNDSk3rlMXGp3MvqjyxW73a7ZPA4AgJWMMAgwmC22hqnRmN5V6CYcDstlVstm6nB3d7fch2vWtWnLxvJ7EWEs+/bt07uEHLNYLJlv47VyJN1eDQAASIRBgMGUV1ROFhfpXYU+gsHgAw88IIRIP5x4CRoeHna73XJMjzKYeXBw0O12y7Ygu92eZv+y5cS4LyIAAACwbBAGATCA1tZWZRt4ZWcuYxkcHBwcHEy6h5fD4TD0vJIMLYMXEQAAACtNY2NjkXmd3lXkHmEQACOx2+1GbKKpr693OBzK8ihJ7rrV1NS00ubmGPRFBAAAAJYNwiDAYA4f2C+EqK2t1buQRXXw4EG9S5gv2fuzktthlsGLCAAAACwPhEEAAAAAAABJjIyMFE5M6l1F7hEGAQAAADCqC1Pxn52YCJ+bqVqTvwinOz8phBCfvq5ow+rFOB0A3fn9fiFEY0ur3oXkGGEQAAAAAEMKn5v52YmJT19X/LkbFy+auTAVPxSaqDLnb716hW7wCmAZIM8GDGaLraGurk7vKgAAAHQme4Laby5ZnJ4gxerCvPabSy5Mxl96d2oxzwsAOUQYBBhMeUXl+vXr9a4CAABAZ7InaHVhni5n//R1xS8SBgEwLJaJAQAAADCe8LmZxVwdlmhzecHxM9Obywt0rAHAQmtsbCwyr9O7ityjMwgAAACA8Szy6rBEm9cXHB+hOQiAIdEZBBjM4QP7hRC1tbV6FwIAALCisaEYAOPi7y8AAAAAy9YPgrFK5+udT53K5Ma/fW/ixn9641P/39tnx2cWujAAhjAyMnLm1Ht6V5F7hEEAAAAAlqcfBGOdg6eEED84Etvrj856+897ItHxmZdPTXzeHVn46gAYgN/vf843pHcVuUcYBAAAAGAZUpIg6RrzHEZkvHxqIsNmIgAwIsIgwGC22Brq6ur0rgIAAGBJ0yRBf2U1f+7G0lnv9aM2i7nk4kekHxyJkQcBWK4IgwCDKa+oXL9+vd5VAAAALF2aJOjLt5h6bi3P5I61lcXkQQBWAnYTAwAAALB8JCZBfbdVZH53mQfJ4UFCiB8ciQkh5nQEAMtJY2NjkXmd3lXkHp1BAAAAAJaJeSZBEv1BAJY9wiDAYA4f2P/000/rXQUAAMCSk5MkSCIPArC8sUwMAAAAgOH1vBj77z/PNAkaeu97vlPfE0KsLbqqreq7V666KfE2ievFTk4LdwvrxYCVZWRkpHBiUu8qco/OIAAAAADG5jx6PvMk6KWRn/zinb0z0/GZ6fjI2Nv9J/4m1S01/UHPHIt95iD9QcDK4vf7n/MN6V1F7hEGAQAAADC2X787oXx9+wdmWR125sLbU+Nx5c/p2NuR86+kurHMg0qKL35uevF3sVzVDAA6YpkYYDBbbA1To/wvBAAAIIkrrjdNWitemxSbilLeZnpyZuL8tPqSkvw1aY75dFFxzacsv/lZZGpyprDost+mv/HGmwd+89v5lQwAOqAzCDCY8orK9evX610FAADAEvLwFvP69cVXXG+66RMV5+PiO6fFa6lHfNRV3hkfXX3h7LT8U7umdf2qq1Pd+NH3xc8uiLJ1xR/6tGV1WeH3/8SyIA8AABYXnUEAAAAAjO2q1fn+P7/6O2fE65NCCCHzoAc2JO8PKi/d+LVPuP7nkcdPx96yXvuZz9zylVSHlUmQVLm+eO9XqjQHrKio2HLTlpw9DABLT2NjY5F5nd5V5B5hEAAAAADDK8sXD5SLDPOga8pvsX/yofQHVCdBpXkpDwUARsQyMcBgDh/Y//TTT+tdBQAAwJIj86DrL0U2s64XS4MkCMDyRhgEAAAAYJnISR5EEgRAMTIycubUe3pXkXssEwMAAACWuvvu69K7BMOY03qxRCRBANT8fr8QorGlVe9CcozOIAAAAADLStb9QSRBAFYIwiDAYLbYGurq6vSuAgAAYElLzIP2RWe5y28nSIIArBSEQYDBlFdUrl+/Xu8qAAAAljpNHtRYOsvtNxVevDFJEIBlj5lBAJKbmZkZHx+fnp4+f/683rUAAABkQ+ZBPxkVm4pE/apMb1y/iiQIwEWNjY1F5nV6V5F7hEEAkpucnDx16tS5c+eOHj2qdy0AAABZKssXX16zIDcGAOMiDAIM5vCB/UKI2traxTldQUGB2WxenHMBAABkLjY+rW8B4XMz64rj+tYAANkhDAKQTmlp6Qc+8AG9qwAAANCamZnRt4AX35nYVDKmbw0AFtrIyEjhRAabERoNA6QBAAAAGM+mVRd+dmJCr7NfmIpHL0yuLdI5kAKw0Px+/3O+Ib2ryD3CIAAAAADGU7V64tXTYy+9O7X4p74wFX/8pfOfWHtu8U8NADlBGAQYzBZbQ11dnd5VAAAA6K/5ynPH3on9y28unL6wSB06F6biz749+YPfxj57xblVBQwM0urq6rr99tvdbrfehSTndrtvv/32rq6uxTndEn82sMIxMwgwmPKKysliNjsFAGBB3H777Ukvt9vtVqu1uro68aodO3ZEIpHEy61Wa11dXap7CSG8Xm9fX1/i5c3NzXV1dTabLU2dXV1dgUCgs7OzublZXhKJRHw+38DAgKYY9W3Upz5+/LjX69UU3NnZabFY1OVZLJZ9+/alqUQ+Y0nPsjj+oHz07OSF/3x99bmpglUFC3uusWlRkh/fWDJ+W6Vuy9PSS/VD1d7e3tDQkOpHESKzNwWwnBAGAQAAALNwuVxijpFHIBAIBAJCiOrq6s7Ozsw/h3u9Xq/Xa7Vad+3aZTKZEm8QiUQCgYDJZFICI7fbLStMNDQ0pK45FAr19fWFQqGkBUciESN+7l1bNFNXNKp3FUua2+12u906ZnZL2bJ8UyCHGhsbi8zr9K4i9wiDAAAAgMtoPjP7fD6XyxWJRGSnjNVqnfUuQgi32338+HGfzxcKhRwOR09PT9I7alpvQqHQwMCA1+sNBAJ9fX27du1KvIvP5xNC2Gw2GRUpSVBzc3NLS4uSOsleoZMnTyp3jMVivb298sNtS0tLe3u7cpVsi8jo2cGSp/mhUv8AW61Wog21lfOmCAQCfr8/FAr19PToXQuWBMIgwGAOH9gvhKitrdW7EAAAVgqbzWa1Wnfs2BGLxQYGBpJmOonkp0qZ6UQika6uLqfTOWt/kGwjMplMbrdbBkmJd+nv7xdCtLS0CCFisZj8tr293W63q29msVjUn2yFEF6vNxKJmEymnp4eTSLQ3NxMz8hyZbPZqqurd+zYIYTw+Xyan4oVbuW8KUKhkNvtzvCvL6wEDJAGAAAAZqGsyUq6liQNq9Xa09MjW3hSreRK1NHRIb+QC83UvF5vLBZTRhGFQqFYLCaEaGhomPWwfr9flkRvyEpjsVjkD4y6UwyCNwUyMDIycubUe3pXkXuEQQAAAMDsrrrqquzuaLFYZLgTCAQyzJJMJlOqj6ZDQ0Mis+gHUEs6fwrArPx+/3O+Ib2ryD2WiQEAAACzk9NDstuPqbm5WbYFBQKB+ezopIyOVlavKJ/wh4aGZj2yvDEzcReT3PfNbre3t7d7vd7+/n653ZvNZrPb7fJViEQiAwMDygbkzc3NHR0dylVyedeuXbuSbjDX19fn9XptNlvS8VJqMojcvHmz5vLEfeg0w6c05OgZ9Xbps25VJpdJRiKR6urqXbt2KT97mgdeXV3d0tKiWZkVCATkTvCHDh2KxWJer1fpsLPZbB0dHanO63a7lQdlMpk6OjqSro+b05tC7p2XdP6XfCGam5s7OzuT3jcQCAwMDMiBXyLFk6z+aZEviuwNTFO/yOBpVO94GAgElD0TUw0ywwpBZxBgMFtsDXV1dXpXAQDAyhIKheSnuOz+FTaZTPJTX4bzaCORiPzwpvl0OjAwIIRQf8yrrq6WGUGaDcUUskEpFot1dXXNdb0b5qmvr09Oj5Lf+nw+h8MRiUTkfHF1tuL1euVVQghlYLnsCNOIxWLyx3LWTjG32x2LxSwWiyZRCgQCO3bskOOlNQUkLlEUQrhcrq6uLnW18uBpfpzkz5uMWtRzeXw+344dO9SHkrt6yegnUSQScTgc6h9y+Rwmnlq5pfKgYrGYy+VyOByJh12cN4XX6+3q6lKSIHHpSdbsZK9wu929vb3KSyDr7+3tTbzlXJ9GQEFnEGAw5RWVk8VFelcBAMAKot6uK+uBstXV1cp8n1nJ05lMJvXv7WVbhLg0OlrR2dkpMwW32+31eu12e6oi5XRqGUk4HA51cwoW1MDAQCwWU7p7vF5vX1+f/IQfCoVMJlNnZ6fmqv7+ftlj0tDQEAgEfD5fLBbTLPUKBALywqRNQ5I8lAwL5Gxy9bUyLlF3qYRCIbm7Vl9fn3pLMiFEb2+vjDPUt5dtKWnOrk6ClLP7fD4ZbVitVrvdLg8l32iBQMDtdid2wfT19ckxz/JNIZ8oebnT6dTUKWMd2WIjL5QHV2de0iK8KeSuguqGr/T7u/n9/kAgoIyElzeTPwM+n0/9Wmf4NMrXUV4up5jl8NHBuAiDAAAAgMvIJg71JSaTKU3IkrnEz6IaXq93aGhIdgRoPrrLOCDxo6PJZHI6nXKVSiwW6+vr6+/v7+joSFptc3OzxWKRH33lZ0v1Z9SkBSuLSpC1SCSiXpIjX5q+vj6Zrai3mWtubpYhkc/nk2GQXGMom4A0r6lsF1LGjatPp3nVUr3K6nhFkuGITHDUm9nJnxYhRGdnp7oMi8Wi2cZOTeYymp4gcSnu1Kxua29vN5lM8ge4ubk5MbdyOp3KhcpzGAqF1HV6vV6ZBGk272tvb7dYLEmba+b6ppgrn8+njqXEpf3dHA6HOvVTKCvF5Lfy2ZNLvYaGhtRhUBZPI7LQ2NhYZF6ndxW5xzIxAAAAIJ3q6mqn05mTTaYTP5jJz+0K2QIgks2IkZ/8NW1Bis7Ozn379sm7yFYCZamRhtVq3bdvn5I0eb1ezTIT5Fx1dbVmOIvy4jY3N2sGx8hvY7GYeoiPSFgppqwRS9MWpEj1KttstsSpMcol6kY22f5js9kyfyPIhU6JSZDP55MPLTFFkuFFLBZLXKRmt9s1bx/lgat/zpWllImzhJI+WGlB3xQWiyWx0UmZK69eOyZVV1cn3l55ayuXZPc0Ago6gwCDOXxgvxCitrZW70IAAFi2lN4HOX1DTnVxOp3z6RSQn6tnPYLFYpHDXzWfe0OhkPxcneaTv8Vi2bVrVygU6u/v9/l8suyenp6kE3blkje3293f3y9bUU6ePJk4+9ZisWjWCmnQN5SJxAzCZDLJj+uJE50Tf0gaGhrcbreyKExeKNcMJt0TXfOqKQOGXS7X8ePHk46aVoIP9SRphRIrZL6Nnex7MplM6onRkjKLPenbwWKxhEKhxBqSPocWiyUSiSihVSwWk21BqWZ71dXVpclHMnxTzFWq96x8RLFYTLMAMGliJXczVMdz2T2NgIIwCAAAAEiuurq6p6dHttj09fXNZ9ZG0oHQIoO0RZL9DqnagtTkhk1ymEgsFuvt7U1z/Pb29ubmZtnB4fV6N2/enJMGKGisWbMm8UIZBmVy9+rqajlzyuv1Kj0j6TvF1ORKrs2bN8uhP4FAQIkblHk06Y+g1JnhXngyUZJr0BLvIt8LoVBoTkliJsudlOxjPnv25fxNkfTVF6pHpAmDUt1eI7unEVkYGRkpnJjUu4rcY5kYAAAAkJIc7iuEkJ8MszuIHGsist2MbE4LgiRljIgcg5LmlupP7GkmAUNfMvRRVorJn6j0o6M15JwaIYTf75eXyJHJMgmS44rtdvuhQ4cOHTo0z2pl6BmLxRb5JyrDcG1Wi/OmyFW1WGh+v/85X5Lt/IyOziAAAAAgHavV2tzc7PV6+/v7bTZbFgNZ+/v7hWqb8LmSk6FtNtuc1qnJUtWjZ9JoaGhQEissQTabTW49JnfmSjU6Oj35o6tkEHKPM4vFoh7MnF6G+UVdXV1LS0tvb6/X65XD1xPL0Iw9zgnlDZKqzpMnT2Z+tDm9KbJIdpQ3ZkCVx5AAACAASURBVHbrTxfuacQKQWcQYDBbbA3Z/VIRAABkTX7qjkQiWTQHeb1e2ZuTZtOl9DJfEITlSmkCkj9L8ucw87YgSeYaSu4jv03MNxPjD4vFIm+jGWKdhs1mky11brdbM4lZjr9ZiORRqTPVwrd5DlSWB09aeZojK61YSS/PLiAWC/k0YoUgDAIMpryicv369XpXAQDAyqLsn+1yueY0k9Xtdstd6tvb2+f60V0KBAJyc+6kHxqVDb+TXiW7FZT5KXKH8qQ3lh/ys/5cikUghzcPDQ3JVzbp6Og0ZH+ZSFirmPgjIRvZNGQeKudYZ3jG5uZm5V2jzoPkCJ5IJLIQe9jJd1l/f3/i+9TtdideOKc3hXzCE8Mdt9udpjMoEAgkvkmVZaeZz+TWyO5pZG0aFIRBAAAAwOyUHb5cLtesN5af0Hbs2CFvrHwqzkL6tiA5ItrhcGg+ELrd7t7eXiGE1WpVPs36fL4vfelLLpdL/Xk+EAh0dXXJ/oK5LjvCYrJarXKMtJxik3mIIDfGkqGkent1mRJ6vV7lhycUCvX29iZtNmlubpZRSFdXlzpACYVCLpcrVcdce3u7nHitzoNMJpNyodytT7l9IBBI7CSaE/kzHIvFHA6HUpWck+1yuRLjzjm9KeTbMBAIyOns8kKXy+VyudIEcxaLpbe3V/2g3G53V1eXEKK6ujrr6dRzfRplhXIMeXZnXLEaGxs/+8df0LuK3GNmEAAAADA7k8nU0dHhcrk0+zFJfX198sN24r06Ozuz6wkSQsRiMfnJLf0nRjnZJDGlslqtifNEUn3Y3rVrF51BS5ycYhMIBEwmU5ofiUgkknSHKavVqt4ovaOjw+fzRSIRGWcolzudTofDobmvnKkso6LEH6E0+6/b7Xb5YyxPIfML5UIp8S6pjjYri8Wya9cuGdZo3pXysEk7mzJ8UzQ3Nw8MDIRCIU1Hnt1uP3nyZKqQpaWlxe/3a55kcWnjvzk+vsvM6WmUrWQyF5NPS09PD2/5lYwwCDCYwwf2CyFqa2v1LgQAgBWnvb1d7pnd19c3637wdrs9/Sf2TChJUKr5vs3NzdXV1YFAYGhoSN0a0N7evnnzZk0ItW/fPrfbfe7cOfXn3urq6oaGhjSnwNLR3Nys9JrN6Y42m62hoUHz82AymZxOZ39/v/Lz0Nzc3NLSkmpfdjlq2u12+/1+JVJRfn7SnL2zszMSiQQCAXUe1NnZWVdXJ1e9qR/g/Ldyt9lsTqdzYGBAyUdsNltLS4vVak1MfOb6ppDPQH9/v7IGs6Ojw2azJc2CFT09Pep7WSyWlpYW+TzMU+ZPo8lk2rVrl7oHKrvB1Vg28uLxuN41AIbh8Pvar735g2srdKzh4a5vCiHuueceHWsAAACLY8eOHZFIhF/gQ4pEIjt27BBC7Nu3j0/ywOIYGhoqLDM1trQuwrnue8m37tRIxUxe+yf+oKp8w4Kei5lBAAAAwFIUCAQikUh1dTVJECQ52nmuo6MBzIff73/Ol+k+egZCGAQAAAAsRXJOMDvKQ4pEIvPcfwoAFMwMAgxmi61hapQtIQEAWP7mOVwWy0koFJJTaaxW6zxH6gCAIAwCDKe8onKyuEjvKgAAALAY5Nwo+bXFYkmzbxcAZI4wCAAAAACWuvb29o6ODjZ9AxZZY2NjkXmd3lXkHmEQAAAAACxR+/bt07sEAMsQYRBgMIcP7BdC1NbW6l0IAAAAAMCQCIMAAAAAAACSGBkZKZyY1LuK3GNreQAAAAAAgCT8fv9zviG9q8g9wiAAAAAAAIAVhGVigMFssTVMjcb0rgIAAAAAYFSEQYDBlFdUThYX6V0FAAAAAMCoCIMAAAAAAACSaGxsLDKv07uK3GNmEAAAAAAAwApCZxBgMIcP7BdC1NbW6l0IAAAAAMCQCIMAAAAAAACSGBkZKZyY1LuK3GOZGAAAAAAAQBJ+v/8535DeVeQeYRAAAACw1N1/f8+Xv/wXweARvQsBACwHLBMDDGaLrWFqNKZ3FQAAAAAAoyIMAgymvKJysrhI7yoAAAAAAEZFGAQAAAAAAJBEY2NjkXmd3lXkHjODAAAAAAAAVhA6gwCDOXxgvxCitrZW70IAAAAAAIZEGAQAAAAAAJDEyMhI4cSk3lXkHsvEAAAAAAAAkvD7/c/5hvSuIvcIgwAAAAAAAFYQlokBBrPF1jA1GtO7CgAAAACAUREGAQZTXlE5WVykdxUAAAAAAKMiDAIAAAAAAEiisbGxyLxO7ypyj5lBAAAAAAAAKwidQYDBHD6wXwhRW1urdyEAAAAAAEMiDAIAAAAAAEhiZGSkcGJS7ypyj2ViAAAAAAAASfj9/ud8Q3pXkXuEQQAAAAAAACsIy8QAg9lia5gajeldBQAAAADAqAiDAIMpr6icLC7SuwoAAAAAgFERBgEAAAAAACTR2NhYZF6ndxW5x8wgAAAAAACAFYTOIMBgDh/YL4Sora3VuxAAAAAAgCERBgEAAAAAACQxMjJSODGpdxW5xzIxAAAAAACAJPx+/3O+Ib2ryD3CIAAAAAAAgBWEZWKAwWyxNUyNxvSuAgAAAABgVIRBgMGUV1ROFhfpXQUAAAAAwKgIgwAAAAAAAJJobGwsMq/Tu4rcY2YQAAAAAADACkJnEGAwhw/sF0LU1tbqXQgAAAAAwJAIgwAAAAAAAJIYGRkpnJjUu4rcY5kYAAAAAABAEn6//znfkN5V5B5hEAAAAAAAwArCMjHAYLbYGqZGY3pXAQAAAAAwKsIgwGDKKyoni4v0rgIAlq6CgoKysjK9qwByrKCgUAhRWlpmNpv1rgUAloTx8fHx8XG9qzAqwiAAALCsFBYWrlmzRu8qgBwrKCgQQpSWrubHGwAUixAGNTY2FpnXLfRZFh8zgwAAAAAAgMFEo9G33nrr3LlzehdiSHQGAQZz+MB+IURtba3ehQAAAACAbs6dO/f2228LIWiZzAJhEAAAAAAAQBIjIyOFE5N6V5F7LBMDAAAAAABIwu/3P+cb0ruK3CMMAgAAAAAAWEFYJgYYzBZbw9RoTO8qAAAAAABGRRgEGEx5ReVkcZHeVQAAAAAAjIowCAAAAAAAIInGxsYi8zq9q8g9ZgYBAAAAAACsIHQGAQZz+MB+IURtba3ehQAAAAAADIkwCAAAAAAAIImRkZHCicn/v737j2+6vvf+/y70B4UklNJCaZnOtWjRDtppcbPtnBGlTM6FSDlsU8s6rs0N6TiXu848iHNnU2S663gdLLLj8as9MHbOdiilbDhaBp27CG60c0nVUYQyUSmEn8E2/Z0m3z/e8DEkaZqWT/rJJ3ncb/2j/eST5JWQRvPs6/16a12F+lgmBgAAAAAAEIDVam22HNC6CvURBgEAAAAAAMQQlokBOlNYXOLqcmpdBQAAAABArwiDAJ1JTUsfSEzQugoAAAAAgF4RBgEAAAAAAARgNpsTTClaV6E+ZgYBAAAAAADEEDqDAJ1pqKsVQuTl5WldCAAAAABAlwiDAAAAAAAAAnA4HPH9A1pXoT6WiQEAAAAAAARgtVqbLQe0rkJ9hEEAAAAAAAAxhGVigM4UFpe4upxaVwEAAAAA0CvCIEBnUtPSBxITtK4CAAAAAKBXhEEAAACBnelz9Q56tK4CEEKIZd965L6urglZ13/QHYVzTAOaMD5uepKan1Zi56kDItb1E/X3V22z2ZxgStG6CvURBgEAAACR7vrsbK1LAABED8IgQGca6mqFEHl5eVoXAgAAEEYdHZ1tRw8bjcY5c+ZoXQsAdRw8eFAIUVRUpHUhIAwCAAAAAAAIxOFwxPdH4SJTtpYHAAAAAAAIwGq1NlsOaF2F+giDAAAAAAAAYgjLxACdKSwucXU5ta4CAAAAAKBXhEGAzqSmpQ8k6m9HRgAAAABAhCAMAgAAAAAACMBsNieYUrSuQn3MDAIAAAAAAIghdAYBOtNQVyuEyMvL07oQAAAAAIAuEQYBAAAAAAAE4HA44vsHtK5CfSwTAwAAAAAACMBqtTZbDmhdhfoIgwAAAAAAAGIIy8QAnSksLnF1ObWuAgAAAACgV4RBgM6kpqUPJCZoXQUAAAAAQK8IgwAAAAAAAAIwm80JphStq1AfM4MAAAAAAABiCJ1BgM401NUKIfLy8rQuBAAAAACgS4RBAAAAAAAAATgcjvj+Aa2rUB9hEAAAQBTq6ff896He3gFPZsr4v/tcktblAACgS1arVQhhXrhI60JURhgEAAAQbXr6PT/b333q0qAQ4tgZV1e/+yufT9a6KCB6tJ94/9SJ97Wu4ppkfvqGrE/foHUVADRDGAToTGFxiavLqXUVAIDI1dPv2bSvq90xqBz50/F+t0d87QvkQYAK2k+8v2vLq1pXcc3+IBYuf/CG3Nla1wFAG+wmBuhMalr6lClTtK4CABChevo9/7rX+cEFl8vt8f56s61P69KAKHHE9hetS1BHy5/e1LoEAJqhMwgAACBKdPd7XmjoPOnVEwRAdZ2XLmldAoCxYzabE0wpWlehPsIgAACAaNDd7/k/9R0fXQycBN2RwwxpYCykpKRMnjxZ6you6+3tPXPmjNZVAIhEhEGAzjTU1Qoh8vLytC4EABBBuvs9P9nT8dFFV8BLi3KSKoonjXFJQAyaPn16eXl5UlIEZa+/+c1vWlpatK4CQMRhZhAAAIC+dfd71r9+6f3z/S632//rC9mJ/7PEoHWNQEy46aabIioJEkLMmTNH6xIAfXM4HBfPn9O6CvXRGQQAAKBj3f2eH+92fHAhcE/QF2+c8K0vGse4JAAAoobVahVCmBcu0roQlREGAQAA6FVXv+eff3PxxBBJ0JduTP7OnaYxLgkAAEQ+wiBAZwqLS1xdTq2rAABor6vP/YNfD5kE3XVT8qNfIgkCxlRvb6/WJfjq6+vTugQAkYgwCNCZ1LT0gcQErasAAGhv/R5H27mBgBeZb0quvCtS9jMCYkdTU1NKSsr06dO1LuSyvr6+X//611pXASASEQYBAADozwv7L9naA//Bf37uxH+4O2WM6wEg7d27V+sSAKjJbDYnmKLwv6qEQQAAADrz032O37V2B7zontkTHyMJAgAAQREGATrTUFcrhMjLy9O6EACANp773cW9QyRB986e+I/zp4xxPQAAQHcIgwAAAHRjw96L9Ye7Al5UevOkx+9JHeN6gBjU6/FoXYI6ouaBAGHlcDji+wNP6NM1wiAAAAB9eKb+wp4hkqCFN09aey9J0FjY/NyzDbt2lq9avfShFVrXAm38tfTrf+2NhhjllglxWpcQJY4faX1qzWqD0fijF1/KyMzSuhyozGq1CiHMCxdpXYjKCIMAAADUd/qS+7U3ensHPBkp41Z+acKEhGv90PXd7ecPfRg4CbrvFsOTpVOv8fYjTcOunZufe9b/+NKHVhSZ787OnT32JUkNu3YKIfbW7RzLMOiRsvvtp9pXPf7EgsVLhjpnx7YtWzdvysjMermmbswKA8aY/F3wOZidO7vIfLeG+aztz03Ozg5nZ0dLc1PG0L+k6pJvkv6/8gGfoozMrHvvX7Jg8RKD0TQ25SHyjdO6AAAjU1hcUlBQoHUVAIBgTl9yv9LY09XnHnR72i8OvtLY0ztwTX0Eq355/s0TzkG3x/9r4c2Tnoq6JCiIHdu2PPaNcpnIaELGMffeP0af9wAM6/iR1q2bNz32jXJnZ4cmBeTfNs9gNGVkZs0tnKdJAcOyn2rfunnTgwvuPti4T+taECnoDAJ0JjUtfSAxQesqAABDcnS5f7a/2zv9+cgx+LP93d82T0xOHE1/0CO/PPunD50BL/ofecZ/Xpg2ykL1wOeP3gcb923dvMl+qn3zc8/OLZwX1uUYO7ZtOdi4f8V3Vvt8ulv1+BOrHn8ifPerCy3NTS3NTW3vtf5440ta14JY5N0l5+zs2Lp5U8OunTISCuuv51Cv/Ozc2b9o2B+++x0Fn0bCHdu27K3baT/V/vyTa194LUvD5kpEDjqDAAAA1HTB6Xb2uV1uj/fXRxcHX9rf3dM/mv6ggyc6A/YELbrF8PSX01WvP5IVmef/6MXLn8HC/fftrZs3HT/SGta70K+291p3bNuidRWAEEIYjCYl+DjYGN5ERr+v/KUPrfjRiy/JNWI7tm3VuhydMZvNC+5/QOsq1EcYBAAAoKbkxDiX2+3/9eGFgRd/5xxFHuSTK8mvO7MN6++bFo76I1xG5uW/aZ9p9x2KASBmyQ4+Z2eH/7gcSBmZWTIya2lu0roWRATCIEBnGupqGxsbta4CADCkrCnjv/aFiS6Px//rg4uu/7u3c6R5kP/t3DLN8PkZ046fCdMjiHQGo1HrEgBEFuYih2J6VpYQQqvJSog0zAwCAABQ2eezE90ez5aDATb/+uCC6/80dHxvgWliyPODphsS2zv6lB8LMkz3504XQrx5zCNEXPZ0VUoeRktz01NrHhVC7Hqz2X6qvfbnW+QIZ4PRVL5qtTKZomHXTjm5QwiRkZn1wMMrlIvsp9ofKbtfCPH9ZzYUmef734Xcsr3IPP/7z2wIXszxI0eEEP4zL+yn2g827pNzMeSRBYuXLFi8xP9MOfhDWe5hMJoeeLhc7rPjs4uZfNRCiLmF8+SUkKfWPNrS3BRwa3lnZ0fDrp3eBQy1yZH3jRxs3Newa6f8W72sJBybIh1s3NfS3OQ9eDvIvmxyXpKySq7IPL/IfLf8V/PeqKiluWnxHYXy+x9vfCliR+cifLxfyQ27dtb+fIt8eRSZ55evWi2netlPte+t26n8ui1YvOSBh1coA7/kL3527uwXXguwdkl533jhta3Bx9y0vXf5bcd/lJh8U1Je/HJfrYC/ZaN+5Xu/Q/rcZuhvC943Iq+1dfMmpZKlD5Uz6EcrDocjvn9A6yrURxgEAACgvjtykjxCvGYJMPj5xAXX8/Ud3y8NNQ/atfJTi1/9SOZBBRmmB2Z/Ev+MZR4kHT/S+tSa1coflp2dHZufe/ZMe3v5qtXyQ51yphzzLC8SQsh9dlqamw427vcPg5ydHXLYR5H57uAF7Ni2xdnZkZGZ5XOm8jnKmwynfHIKuQW7z71v3bypyDz/WpoLDjbue/7JtT4Hjx9pPX6k9WDj/u8/syHguGufYmQlx48cGTYRC52zs+P5J9f6LwzZsW3Ljm1bfFIt+6n2H373UZ+FNgcb9xmMxoARHiD5/PrL8PFfqrd2dXR4v2MIIRp27TzYuP9fqrfK34gi83wZ1hw/0uofdsjRYNm5s4PnIM7Ojr11O0Wgbf5kXOV9RO6r1dLc5D0EOkyv/NG9LfgXc7Bx38HGfcMmYsOSOReh0khZrVYhhHnhIq0LURlhEAAAQFgU5SS5PZ7/70CAPOj98wMbfvvx2i9PDiUPSjOMk3nQtIlJ3kmQNMZ50PNPrp1bOG/V42sNRpOMe5QWm4ZdOxcsXlK+arXPRffev0T51NfS3HSwcZ+zc61P7NLS3OTs7DAYTUE+dzk7O2p/vlXe16rHn/C5BfnBybsV6PiR1uefXCsrUbYka2lukuHL0odWyJRKXP6gdXnurLwFIYT8y3+IDS/KR77s3NlLHypXHoXMeo4faf3hdx/13hZNKaaluUmpRHnSDjbuO9h4t1rhy1NrVstPgEsfWvHAw+XyeZP/NPLZMBhNSgPX5ueetZ9qz86drWyjJjsUujo65QnyUcjHpXRLIcbtrdvp7OxUmv5ke92VZLPVYDSuenytz0W1P98it/2S2wLaT7UfbNwfKAwaPiM+2Lhvx7at9lPtcwvn+bfbnGlv92kF2rp5k3zxy7cseTAcr/zRvS3IYiaZTD9+/AlZidKu+NLzGwL2T4VIaY8aNnNHjCAMAnSmsLjE1RV4g2EAQKQpmTXB4xEv/79O/4v+dn7g6d2XfrAoJcQ86PePXr/3HY8jwMqzMc2DpmdlKU0rGZlZP974klw9sWPbliLzfGVT54zMrO8/s+GRsiXOzo6Djfvkx7AFi5ds3bxJNgF573ksrnzke+Dhcp+7s59qV5ZjSD5rTBQGo9EnuMnOnb3q8SeeWvOo/VS70nQg15Jk585WkiBxeTHINSUvMmDy/4i49KEVOTfNljXs2LbF55Oqz3Iz7+czYP/U5uee9V7CFgpl1Z7PkzO3cN7cwnmyaWLr5k3KP4fsoVj6ULlyssFoCseyNUQT+6l27xeYfDltfu5Z2dfj3c+yYPESGRIdbNyvvF3ce/+SrZs3HWzc5/1bKa500HiHlQqf34WMzCyfndQVcsGa95HyVavb3muVUWxYX/mje1sQQpxpb/+X6q1K3q08n0P1Tw1LLqGV9WTnzuY3GhIDpAGdSU1LnzJlitZVAABC9cUbJ3zri8ZBj8f/6/0LAz/a7egKbZ50Yry497NxUyYFvvTNY56xmSft/3FLySx8PnEZjKbs3Fxx9bZfV7Z/vmpXeBkYed9UEA27dj5Sdr//7s5F5vn+LTzKEWfnVXncmfZ2FUeoHmzcJ/uSlA+3PjUMtel1wE9l8klQa0ck2QiwYPGSgP1NsmDl+VewH5PqMuJF/gRP/gRPRgh/izeMu3xyTuLwbw4jOjlMsnNn+7zAlN4T/6FdOTfNFldv+yV/Qeyn2n3WcyltQcOu35RddY99o1wZ96PweV+SlN4f/9sJfkehG/XbghBC9ld6H1Gez9Ar3Pzcs4vvKJRfj5Td75VMbRr2uogRdAYBAACE1503TnB7PC+9ESB9OH5u4Ie/vvij/5E6KYT+IJkHadsf5J8pTDIZxRBzWzMys1quPlJkvlsu0JCLwuRBGVjI1SL+t+C9jEKZRBtksI6SE3lPbPUqYL7sTnpqzWrvhRvXQhloHXD8hxBibuE8pUPHW/5tAQIaud1PV0eAV8tQvQ9SwFlI8k6HWumWkZmVnTv7+JFW74/lcmxtV0ensqYMfjxChJq85CSKyinuuUmfHGnpE1WOcW39AU42jBNfn+wpM35y42dcosoRZ+kJ8P5gGCdWT/GUTrrq5A0X42y9oQ6nV4v/K9lgNBmMJmdnh38bi3yF+5xcZJ4vxwx5v1avrGkK8Evq87ugjK5/7BvlAQfrtDQ3ya7AM+3t3rONFKq/8kf9tiAC/cIajCa5mM4n1w6dTISZ/DU6ZrM5wZSidRXqozMIAAAg7O66KXnVnSaX2+P/1XZuYF3dha4+dyi3o3l/kP9npBF9alIGwV49a3a/CNRz5C8jM6t81WqZAcmPjspF9lPtT615dPEdhVs3b5JfAf+ELteviSsThR5ccLecSB36Q/An7yjnptyhTlCeIp+SZI4WPkpPVpB1JQaj0fvM8lWXB6bs2LblwQV3P//kWp+mIQhxJQsK4SsnQWycdlUSJISYmyQ2TnPnJPiebIgTG6e5vZMgIcT0ePFMuqd0ksf/5F9lur2TIHnyv04LcHKwLzUEfCXLl1aIZOeLzwhqmSWFMrRrweIlSga05WdXRaINu3YuvqPwqTWPyreFgEmQCMMrf9RvC2KEb6pDWfX4E7vebFa+Vj3+BEkQfBAGATrTUFfb2NiodRUAgBEz5yavvmuyy+Px/2o7P/BPuy7qJQ+6Rj6LI5SxIKF/UCkyz5ef+pQwyH6q/XsV5VemfqwoX7W6fNVq+REo4NV3vdks972W40seXHD3UB8RY43BaPrxxpd+vPElZUHf80+ulcNNtC5Nl9anuycF+rw1aZxYn+77+/71FE92YuDb+aepnpyrLxrqloUQlVM8Br19yCsyz5e/j0oEE+L2gt6WPlQurkyjl0e2bt4kRwvJMWHlq1b/eONL8tff57q88hGD9PY+AQAAoFvzc5PX3DV50O3x/2o72//9nbrpD7oWcgKIsjRpqNHRwcmmA+Uj3966nXK/+V807JcjmYedkLr0oRUv19QpU2/lNl6jeDhKMW3vHRnqBFmnXOgxursYnUmmy/0FAZeiSHLVic/KnbmF82RbgfzM3NLcNNLB1RBClBo804eeyTE9XhRPvKozx6cnyIf3pRnxYu6EIc+cNE6UGjSbHzRqcld4+WsoU6GAo6ODUBpq5Kva2dkhF42Wr1r9wmtb5dtC8D4jFV/5Efu2gFFwOBwXz5/Tugr1EQYBAACMnXtmT/xfd6cE7A86eq7/sdrzzmjPgwxGk/xrv2wBCDIWJAg5j0P57CengRSZ5/ssrwgSgkhyox/5YWzUq0KUneyHaiKQn29DWe2iLmWQ01A5l9xnTQwxvUgIsfShFXL8bUtzEy0SVxt+CVZG/DCJTE7iJyfnTxjm5FkjObkkeQwXialEvgkcbNwv93QXoY2O9ibfB8SVIEa+S4hAS1CVi4Zy7a/8iH1bwChYrdZmywGtq1AfYRAAAMCYunf2xO/dneJyu/2/jp7tW1Nz9mJXlOdByqc+ORYk4OjoIBp27ZR/VPf5HOU/+mfHtq2h3GCQz2OhjBNSPrIGbCI4fqRVmZAdSjHqkt0WDbt2BsyD5MBpOUZ6qFsI+uSMcpYtRsF7G7JhYyY9ysjMmls4z9nZ0dLcdGWN2Mgy4r11l3/RfCIknxfq8SOtoSS/1/jKj+S3BUAiDAJ0prC4pKCgQOsqAADXpPTmSd+fnxpwnvTRs/3f/M8z0Z0HzS2cJzexGmlbkBzxIz9cee8lLzerbti1U9lKTM6H9u8M2rp5045tW7yPy32IhN+UZfnjjm1bh82DDEaTXObW0tz02DfKvT9n7ti25bFvlMtqR7TgRS0LFi+RQZscoKs8lpbmpqfWPCpLVTZls59qf/7JtcpzKK7s2C38douT3yv/ghgdpzvO6/thTvbefWzY/cJOu0ZflYbk74jcY0tmQyFe8WDjvse+US57cFZ85/I8oOzcy8Obvd8Kdmzb8tSa1T7pczhe+ZH8tgBIbC0P6ExqWvpAYoLWVQAArtXCWya5heeZhgv+F53q7P/GL8689uD01KEmxHqJhP3mR6HIfPfxI60tzU3Bx4LYT7UvvqPQ//jcUciB1gAAIABJREFUwnmrHl+r/PjAw+UHG/fZT7XLDYOU4y+8tlV+6FLIMSL+/UILFi/xKUNWePxI64ML7hZXFpQNVaccUbR18yYZQgmx1vvSIvN8JXAZYwaj6UcvviQ/DO/YtsX746689PvPbPBOwQ427jvYuM9ni3p5mvcR2cwlPzDLz8zK9CUo6p1xX58crIXH0v3J92394oxLBJkxdMBrd/m2ftHlFkHeHgJuRR/5iszzDcYNsotNNrUNRXnh+fB+PRuMpvJVq+Vvpff7QJF5fnZurs+LPByv/Ih9WwAkOoMAAAC0cd8thnX3Tg04T/pUR9/3as+HeDt67A9SkpeR/mFcfoL68caXvFeCGIymf6ne6j002nuraW9zC+f5zJZesHjJ95/ZIOeDeJO7kik/DruQbelDK154bavPLkXyxrX9yJeRmSUL8/7ImpGZVb5q9cs1O70PGozG8lWrvZ805TSfZ1J+SPa+rs8I6ugXwkAe+4CoGbqrrKZD2AeuOr/q4pAJzhmXqO/85EznoKi+NOTJLb3C0qW7kUGXje6dQeY+v2jY79NmuPShFd7xkHw9+/8+hu+VH7FvCxgRs9m84P4HtK5CfXEeT0S+DQARaY3VUnZd7i2T0zSswdZ8aKDjUl5enoY1AEAkS0pKSktT5436TJ+rdzDs/6f063ed/7wnwDYln0mdULNyRui30+8SQ/UHCSHumBVZ/UH2U+2PlN0vhHi5po7NdBBQf5fz7NHDRqNxzpw5qtzgB90DqtzOD071/7UnpIWchnFibZoomuh7vN4pfhIo7C01iH/ye/c64xLrzl61TExanSrK/MYrH+8Xa+zDLzqTbkke93TmELvZa2Tzc8827Nq5YPES/3wW0eGktUkIUVRUpMqtHTly5MiRI5mZmVnhzKPffffdBFNKfuHt4bsLxVNvW1LOO9LccWXzvjAzdWpY74tlYoDONNTVCiEIgwAgapTmGmwfeGre9c2DBt0jy6GGXS+WGB/3qfD+j+UI1P58i7iy5kLrWoBwcbrFurOieKJYaBCGcZePbO8Qtt7A59c7ha1XfD1FzLjyKe1At6h3Bg53Nl0Ulm5Rarh8stN9+WT9sp9qH932ggBGgTAIAABAM7Kd54bJhgU5ntePXpUHDY68fTt4HnSxy/OpqRExSYSPfIgplu6rxgMFZ3cFbhoKyNY7ZK6kRzIjHtHoaGAMOByO+H51+gojCmEQAACANrwXds2ZbvQI8Zv3ziqXfvlm4yhuM0gelBgfEUnQ8SOtLz2/QQgxt3AeO+lAlzweER2jNiLpUezYtkVmxCwQQ6SxWq1CCPPCRVoXojLCIAAAAA34j/iZO93o8XjqjpwVQvzvO6d/u9hvHEhoAuZB2dPE7MxrKvjaPVJ2v9z7WQiRkZnFRz4ADbt2eu8L5jPpHED4EAYBOlNYXOLq0vNycADA0MOe8zNMHiFypsd9p2SUSZDkkwdlTxN33BgRbUHS0odWPPBwufd2YICe0BkUBtm5s5c+VM7SUWDMEAYBOpOalj6QmKB1FQCA0Qu+7dejJZNV2fZL5kHyXqZPVuEGr93LNXValwCowRNZMcroRcCDWLB4CctFAU0QBgEAAIydsdwAPjE+UmIgILpES2dQJKRBQMQzm80JphStq1AfYRAAAMAYGcskCEC4sEwMgP4RBgE601BXK4TIy8vTuhAAwMiQBAFRgjAIgP4RBgEAAIQdSRAQPZgZBMQSh8MR3z+gdRXqIwwCAAAIL5IgILpES2cQaRAQAqvVKoQwL1ykdSEqIwwCAAAII5IgINqwTAyA/hEGATpTWFzi6nJqXQUAICQXu8TedzwDrsCXkgQBuuT2CLdb6yLU4CYMAmIXYRCgM6lp6QOJCVpXAQAYHkkQEKXcwhMVYZCIjkcBYDQIgwAAANRHEgRELbcnSnpqouNRAGFmNpsTTClaV6E+wiAAAACVkQQBUWzSOBEly8SYGQTEMMIgQGca6mqFEHl5eVoXAgAIjCQIiG7zJic1OXq0rkIFeQYmDwCxizAIAABATX/+G0kQEM3MaROF8Pz+XLfWhVyTPFPS8kyj1lUAOuBwOOL7B7SuQn2EQQAAAGOBJAiIGua0Sea0SVpXAWAsWK1WIYR54SKtC1HZOK0LAAAAiCrZ0+L8D5IEAQCAyEFnEKAzhcUlri6n1lUAAIaUPV0IEffmsU8ms5IEAQCAiEIYBOhMalr6QCLT/gAgosk86PhZjxAiexpJEAAAiCyEQQAAAOrLni6ypwdYLwYAAHTEbDYnmFK0rkJ9zAwCAAAAAACIIXQGATrTUFcrhMjLy9O6EAAAAACALhEGAQAAAAAABOBwOOL7B7SuQn0sEwMAAAAAAAjAarU2Ww5oXYX6CIMAAAAAAABiCMvEAJ0pLC5xdTm1rgIAAAAAoFeEQYDOpKalDyQmaF0FAAAAAECvCIMAAAAAAAACMJvNCaYUratQHzODAAAAAAAAYgidQYDONNTVCiHy8vK0LgQAAAAAoEuEQQAAAAAAAAE4HI74/gGtq1Afy8QAAAAAAAACsFqtzZYDWlehPsIgAAAAAACAGMIyMUBnCotLXF1OrasAAAAAAOgVYRCgM6lp6QOJCVpXAQAAAADQK8IgAAAAAACAAMxmc4IpResq1EcYBAAAENj0pHghxNtvv93Z2al1LQCu1fUTE4QQBw8e1LoQANAeYRCgMw11tUKIvLw8rQsBAAAAAOgSYRAAAEAwc+bM0boEAKopKirSugQAeuJwOOL7B7SuQn1sLQ8AAAAAABCA1WptthzQugr1EQYBAAAAAADEEJaJATpTWFzi6nJqXQUAAAAAQK8IgwCdSU1LH0hM0LoKAAAAAIBeEQYBAAAAAAAEYDabE0wpWlehPmYGAQAAAAAAxBA6gwCdaairFULk5eVpXQgAAAAAQJcIgwAAAAAAAAJwOBzx/QNaV6E+lokBAAAAAAAEYLVamy0HtK5CfYRBAAAAAAAAMYRlYoDOFBaXuLqcWlcBAAAAANArwiBAZ1LT0gcSE7SuAgAAAACgV4RBAAAAAAAAAZjN5gRTitZVqI+ZQQAAAAAAADGEziBAZxrqaoUQeXl5WhcCADpw7OLgMYere0BMDPP62u4BMTU5bs60+KnJ/KUNAABEOsIgAAAQhXpcnpojfbNSx991fWJyfNwY3OOFHvdvj/dPTY77cnbSGNwdAAAYAw6HI75/QOsq1McfrwAAQLTpcXl+/m5vWW7S5zMTxiYJEkJMTR73cN6EmcbxP3+3d2zuEQAAhJvVam22HNC6CvURBgEAgGjzelv/w3kTxiwG8jZnWvxM47hjFwfH/q4BAABCxDIxQGcKi0tcXU6tqwCAyHWpP25igtAkCZLuuj5RrlDTqgAAAIDgCIMAnUlNSx9IDPMcVADQs4+6E+ZM530SAABgSIRBAAAgqjj6xEyjxgvhw715GQAAGBtmsznBlKJ1FepjZhAAAIhRvz3e/fyfLn3c5w7l5HfP9Yd+MgAAQCSjMwjQmYa6WiFEXl6e1oUAgL798rCz8nfnhRC/Pd79xoOZwU9+91z/4h32jj73b4937yrLmJzEn9MAAICO8b8yAAAg5ihJkBDir+f7hz3/t8e7O/rc8uTFNXb6gwAAiBEOh+Pi+XNaV6E+wiAAABBbvJMgIUTVPWnDXuWRAtMtaYnye/IgAABih9VqbbYc0LoK9REGAQCAGOKTBH1ltuErNxuGvdbkpHG7yjLIgwAAQHQgDAJ0prC4pKCgQOsqAECX/JOgqnuHbwuSyIMAAEDUIAwCdCY1LX3KlClaVwEA+nMtSZBEHgQAAKIDYRAAAIh+154ESeRBAADEFLPZvOD+B7SuQn2EQQAAIMr9+7sjSILe/vg3NSe/t/vUP3/Y/VbAEwLmQad7yIMAAIBuEAYBOtNQV9vY2Kh1FQCgG0+1ONftDzUJOnD233ef/NHRj//wtmP3tvcf+aAr1Dzozu3kQQAAQDcIgwAAQDT72RsjWB32x7O/GHR5lK9D5/5zqDN98iCHo//x5g61agYAABHC4XBcPH9O6yrUF691AQAAAGpyuwN36Ez7tGFJyTBzgpzOj6/6MeFSkJMnJ4378j0ZJ/bYuy71+19qsViGqxQAAIxed3f3GNyL1WoVQpgXLhqD+xpLhEEAACCazc02tBx3Tvu04cZ5aVWXhBDCnDzkyZnjC/7m+LPy46fSbw1yyy9eEn8cHPfZuzLe+b29r8v14KyJ3peeP39+qCsCAABoizAI0JnC4hJXl1PrKgBAN/YtSlv55wkXswzyx+B50Ir8F1+2PHrsXLMQ4q5Z5fdkrxrqZl+8JH7fI4QQ8QnjbjdnfCPetWBGovcJubm5qtQPAACCSEpK0roEXSIMAnQmNS19IDFB6yoAQE9evc2gZDciaB6UnGD8h7u2DnuD3rc2MU48kzHuhoREn3OMRuOoCwYAAAgrwiAAABD9vpsihAgpDxqWbxI0VdxARA8AQJQym80JphStq1Afu4kBAICY8N0UcZdX+lN1STT2DH32EEiCAABAFKAzCNCZhrpaIUReXp7WhQCA/lxjfxBJEAAAiA6EQQAAIIaMOg8iCQIAIAY5HI74/gGtq1Afy8QAAEBs8V8v9v5w/4/3agdJEAAAschqtTZbDmhdhfoIgwAAQMzxyYOGdXbw8jckQQAAIAqwTAzQmcLiEleXU+sqAED3lPVilSnDhzvfnSyeHBRnXSRBAAAgGhAGATqTmpY+kMgHEQBQwXdTLkdCw5o0TvzftDBXAwAAMFYIgwAAQLS50OOemqzlWniPx6PhvQMAALWYzeYEU2h/O9IVZgYBAICo8qnkgWOOweHPC6cPP9a4AAAAgCAIgwCdaairbWxs1LoKAIhcM5P73zvXr2EBJzvd05JcGhYAAAAQHGEQAACINjdM7G080afJXfe4PPv/1pNv6tLk3gEAgLocDsfF8+e0rkJ9hEEAACDaZE/sHex11hzp7XGN6eyek53u//5r91yTc8J43c8MamtrW758+cqVK+12u9a1XCubzXbffffdd999WhcCANAfq9XabDmgdRXqY4A0AACIQjcbeztdrrrWiePHjzckjQ/33Xk8ng8/HpyW5Cqe0jWiJKi+vr6qqsr/eFlZWUlJSU5Ojno1jozNZnM6nU6n02azlZaWjuVd19fXHzt2rL6+3vtgfn5+ZWVlRkbGWFYCAEC0IgwCdKawuMTV5dS6CgDQAWO864upHWN2d/nJat5aTU1NTU1NZWXlGAcxivz8fIPBYDAY8vPzx+xO29raqqqq2tra/C+y2Wx2u50wCAAAVRAGATqTmpY+kJigdRUAADVlZGS8+uqryo8Wi6W6utput1dVVeXn54c1AampqTlw4EBFRYVP6JOTk/OrX/0qfPfrz+l0btiwQSY+CxcuLCsrUy6SvUJjWUxY2Ww2q9Xa1ta2fv16rWsBAMQowiAAAIDIUlxcnJOTs3LlSiGExWLxjkVUV11dHb4bH5H6+nq73W4wGNavX++Tf5WWlmrVIRUObW1tNTU1Y9lyBQAYNbPZnGBK0boK9TFAGgAAIOJkZGTIgUGnT5/WupYxYrVahRDh7oQCAACCziBAdxrqaoUQeXl5WhcCAAgvg8GgdQkAACA6EQYBAABEIjlHedasWT7H7Xa7xWLZs2ePsul7aWnpwoUL/bcek7Npampq5I8Gg2HZsmWlpaUGg8FnF7N169bJb/Lz8+UgG5vNJg++/vrrPjfrdDrr6+u9C8jJySkpKfFfzrZu3TqbzVZRUVFWViZrttlsSiU+58vwK8RB0XKf+PXr1/svtqqqqqqvry8tLa2srAx43Zqamu3btzudTiGE/3yiUVSusNvte/bsUZ7wnJychQsXei9wW7lypfKkyQ3v5fcBHwgAIBI4HI74/gGtq1AfYRAAAEDEqampcTqdGRkZxcXF3seVjMZbfX19fX29T6BQU1PjMw/I6XRWV1cXFxdfS8+RxWLZsGGDz8G2tra2trYDBw6sXbs2YI7jU4ys5NixY2vXrlUOLlu2zGKxOJ3OdevWrV271j/bunbyxr13K7Pb7dXV1QcOHFi/fn3ApyWUyiX/Z0ZujiZvXNXHAQAYO3IVs3nhIq0LURlhEAAAQARxOp3bt2+X3SWVlZU+CYXsK/FuBWpra5ObcFVVVSlbktlsNhlhlJWVVVRUyIMWi+XAgQPye2Ukc5AWG39K3pGTk7Ns2TIlqJKJSVtb27p167y3RZOsVqvNZlMqkaXabDaLxWKxWJQbycnJqaysrKqqstvta9asKS4urqioUHd+UFVVldPprKyslI9dJjv19fVtbW3V1dX+nUQhVu79zOTn51dUVMh/Gvm02Gy2mpoa2Uwknxx5XGnCAgBg7DFAGtCZwuKSgoICrasAAKjJbrffd8Xy5ctrampKS0tfffVV/4BGbrZVWVmpNM7IDEXeiNLzIr/JyclRkiAhRHFx8VCdOyGSAVN+fv7GjRu9o5CysjKZa9jtdmWRlEKut1IqycjIUPYLU8IpqbS0VLnIYrGsXLlSZkOjLtiH3M1dWbdlMBgqKytlTCP3Mht15fKZKS4uXr9+vfJPU1ZWJv9plFVpAABECMIgQGdS09KnTJmidRUAgPCqr69fuXKlf7BSXFzsnxApR3wSB7vdrmIGYbFYZFwScBZPfn6+DFl8UhIhRE5Ojv+QHZkl+ecv+fn5r776qtISNdTzMDrLli3zz8KWLVsm78tisYyucuWZ8Y7eJDmhyel0ypFDAABECJaJAQAAaCwjI8N7dZUyh3io8TRCCCUf8R7krCguLq6urpYjcrzXc12LY8eOCSFycnKG6i0qKCiQS658jgdcgDZjxgzhl14p5Co2ZdJzdXX16dOnhxoIHbqAz4PBYMjPz7dYLJ2dnaOrPPgzk5GR0dbWpmJ/EwBgLJnN5gRTitZVqI8wCAAAILJkZGRUVFTMmjVrw4YNFovFZrMpqYQytmbYW1i7du2GDRvkRCHvfcRGXZWMM4LMdVZu3Gc7MKPROLp7LCsrKy0t3bBhg81mq6+vnzVrlvfOXKMw1MOXx/2TqRArl89MW1ubsjsYAAARjmVigM401NU2NjZqXQUAIOyKi4tl8iL3MRFCyMnKMgmSU40rKipef/11/93f5dVff/11OYNZNtcsX768vr5+LB/CtZMzkuTzsGfPnjDdCwN9AACxhs4gAACACOXTsbJnzx653/zGjRtD7PEpKysrKyuz2Wzbt2+32WxVVVUZGRmhbBw2VDH+q8AUsk6DwaDuFmBCiJKSErl7fSgnjyLZka09cv3XKMhnRs7nHt0tAAAilsPhiO8f0LoK9dEZBAAAEKFk/KHkPvLH4uJinyRo2JRE7mIecBus0M2aNUve11Djb2QH0+iSppEKkkwFWUMX8CJlF7YgK+CCkylSiFkVAEBfrFZrs2WU/+mMZIRBAAAAkai+vl42uRQUFHgf9+982b59eyg3GCSmCaWbRgmhqqqq/C9ta2uTa9B8qg2dnHgd8CIZYHnXL4MtZQGdoqamJshjkRvA+5APZ9QNU0IIOcnIbrePaNcz1qYBADREGAToTGFxyaj/PxsAoAtyxI8MKbz3kpetK/X19UroIOdD+/ekVFdX19TUeB+vr6+XYY1s8FHI25SbdgWvSk6hFkLYbLY1a9Z4b8ReU1OzZs0aWe2oZzxbLJbly5dXV1d79+/YbLZ169bJByLvXVq4cKG8dMOGDUrl1dXV1dXVQRapye3VlNuXNy5/9N8VPnQGg0HuQC//1byfdpvNVlNT4xMSyQqV+AwAgLHHzCBAZ1LT0gcSE7SuAgCgJrvdHnAjqvz8fO/91JctW2axWOx2u0w9lOMbN26UWYzC6XQG7FKRW7Z7H1HG8SxfvlxcWVA2VJ1K5CFDKJ9LVRma4x+dSGvXrvXu3CktLd2zZ09bW5vFYvGOpSoqKk6fPj1UyFJZWekdBnlfK+Cu86GrqKhwOp31V/hf6v1jfn5+RkaG3BhORn7r168fm+V1AABIhEEAAAARp7i4uKSkxCehMBgMGzdu3L59uxKXlJaWLly40H/YTUFBgcFg8E5VSktLCwoK/CMPJd+RPw47+7msrCw/P99ms3mnUUPd+Ii8+uqrNTU1nZ2d3mXn5OSUlJSUlpb6D8zeuHFjTU2N0tOUk5OzbNmy4uLigKvYpPz8fPkEKvnRUE/gKFRWVhYUFBw4cMA7nCotLZ01a5ZPAGcwGNauXevdA6X6yG0AgFrMZnOCKUXrKtQX5/F4tK4B0I01VkvZdbm3TE7TsAZb86GBjkt5eXka1gAAAAAAseDdd99NMKXkF94+Bvf11NuWlPOONHdc2bwvzEydGtb7ojMI0JmGulohBGEQAAAAAGB0CIMAAAAAAAACcDgc8f0DWlehPnYTAwAAAAAACMBqtTZbDmhdhfoIgwAAAAAAAGIIy8QAnSksLnF1ObWuAgAAAACgV4RBgM6kpqUPJCZoXQUAAAAAQK8IgwAAAAAAAAIwm80JphStq1AfM4MAAAAAAABiCJ1BgM401NUKIfLy8rQuBAAAAACgS4RBAAAAAAAAATgcjvj+Aa2rUB9hEKBjvYNxZ3vHa12FuG6SS+sSAAAAAEB9VqtVCGFeuEjrQlRGGATo0smexMPO5GmG+BvTNN5ZrMfl2X9mIEG45k3unDDeo20xAAAAAIBhEQYBOlNYXHIpMeu8MFbkT9C6lsvmTIu/0OPe+s64u9Kd6Yl0CQEAAABARGM3MUBnxk+blfGZ3PtyIiUJkqYmj/v25ya2dBi0LgQAAAAAMAw6gwCdOTd++rdmJWtdRQDJ8XF3fGpC67mJsw3dWtcCAAAAACowm80JphStq1AfnUGAnvS6PJmTI6snyNus1PHnBzSeYQQAAAAACI4wCNATe6f7pqkRnbbExfGuAgAAAAARjWViANSUzJsKAAAAgGjhcDji+we0rkJ9/A0f0JNR7Nze2Tf4D7uO//SNj0Z0rffOda/876MjvRYAAAAARI2TJ09ardZmywGtC1Eff8QHolln3+DK/37v6LkeIURH7+DTpZ8O5VoyCXL2Db51sjP0awEAAABANHG73VqXEC50BgFRyzsJEkL85vCFEK/4+7ZLzr5B5Vo/qD8RjvIAAAAAIJJdvHhR6xLChTAIiE4+SZAQ4u9unhride/KSTEkjVd+JA8CAAAAEIMcDocQIj0jQ+tC1McyMSAKBUyCQl/tdVP6xFf//ka5UkwekV1FrBcDAAAAEDuys7NTpqZNnZGldSHqozMIiDbXmARJMg+iPwgAAABAbOrv7+/o6JhoNN0w60ata1EfYRAQVVRJgiTyIAAAAAAx69KlS+Pi4w0pUxKTkrSuRX2EQUD0UDEJksiDAAAAAMSgEydOvP766x93OjMyo3CNmCAMAqKG6kmQRB4EAAAAIKb09fW98cYbnZ2df337bYPJpHU5YUEYBESDMCVBEnkQAAAAgNixd+/ejo4OIUTpkqVa1xIu7CYG6N65bteD/3Xk7Md9yhHvJKjtouWt09s9QqRPnFX0qa9PiDcop7350X981GF1e+JmTS2+bUaZcrzP5dxzfMNHH9uMSTPumPn1G6cWB9xf7KNu1388kDMWjxAAAAAAxsTJkyfPnTsnhMgruHXW7Ju1Lidc6AwC9O1ct2v5f7YGSYLq3nvyw46WDz5++4+navf87SXltMYTm948+R8ffPz2hx0te45vtp5pUC765eE1bRcP9ri6TzuP/7L1qfcvtYhA/UG2Ex9/Z/ffwv0AAQAAAGBsnD179tKlS/PuKMr73K33lf291uWEEWEQoG9/PNl5saNf+fHLs69aHfbuuT0eIdyeuAFP3IA77k8f/E656K9n97g9cW4h+t1x/e64P314OQw629V2ruu42xM3KMSAJ67PFXfsXIu8SOZByYmf5EEnLvSG9dEBAAAAwBg4ceJES0vLuXPnEiZOmn7dp+9bGs1JkGCZGBBNMmcY0j+T0jPoSR4fJ4/0upxKEtTbG9fbE6ecLJOgAXdcvzuutyeuP+6qiwblRa64vp4418And9E5ftzc/Gl//ssZl8s9Vg8LAAAAAMLlxIkT77zzzvvvv280Gu8w333dZ2alpqVpXVTY0RkE6NsXZhpTTYlCiMwZhltmTz3V4/q3to97Bj3y0ltnLPNOggrS71GueMu0UiUJ6u2OK8y8Vx6fNiln6qRsmQT19sT1dsXNu+7yRX++2PurD51GQ+Jtn5seHz9OCFE6O3VMHy0AAAAAXJuTJ092d3d3dXVduHDBYrH8+te/fv/994UQg27PjE9dHwtJkKAzCNC79Inxv/ra7P+9/8Npn7q85aHMg76dMzl5fNys1OKy3Kf/8P4Oe+/ZW7PuWJRXrlxx/g2rx40ztrS/2Zcgbv7MHXdkL1AuevCWf3297aWzH5/pj4srLShPM2SIK0mQPEHmQbcaEr6Zn+5Tz8DAwIsvvqj8WFBQMGXKFPl9Y2MjxznOcY5znOMc5zjHOc5xjkfI8XHx8SmpU4UQEycZvnDnXbcVFYuYQRgE6F76xPh/+/IN/9b28akelzzinQflTi3KnVoU8Irm61eYr1/hf3xCvGFp7uPeR7yTIOl/3px6W+oE/+vGjbuq3zB+kiHBlOJ/Gsc5znGOc5zjHOc4xznOcY5reNyUkZmYmGQwmVbe/Nm06dP9z4lucR6PR+saAN1YY7WUXZd7y2TN+gbfdwyaxotZqeP9L+oZ9HjnQUKIzOR4mQdd4536J0HLrzMETIKEELvb+u74dNI13iMAAAAAxJqn3raknHekuePK5n1hZurUsN4XM4OAKJE8Pu7bOZMzkz9p9/OZHzQ6I0qCAAAAAACRjzAIiB6q50EkQQAAAAAQfQiDgKiiYh5EEgQAAAAAUYkwCIg2quRBJEEAAAAAEK0Ig4AodI150Lsf95MEAQAAAEC0IgwColOC6Gc7AAALY0lEQVTAPMh7r7EgfE4jCQIAAACAaEIYBEQtnzwoMzneOxsKIm9y4oQrG9KTBAEAAABAlAnpkyEAnZJ50K8+7BRCLL/OmHwl4gkuMzn+OzmTd7V3FaYmkQQBAAAAQJQhDAKiXPL4uK/fYBrptWQeFI56AAAAAADaYpkYADVd7B3xHvYAAAAAgLFEGAToyQzjuKOOkIZAa4UoCAAAAAAiHGEQoCcT4uPO90Ru3nLs4uD1KeO1rgIAAAAAEAxhEKAzczISXj/ep3UVAfS4PH88NTAnI2HYMx9cvMh8W775tvw/7PtdKLfc2dEhzzfflj/Sql6p2mi+LX+x+YvDnvlfW6p9zlTq3F27I8gVd9fuMN+W/+DiRSOtDQAAAAA0QRgE6Mz1KeMnJo2LtDzoQo/7ZWvPbTMTR3St3bU1IZ22M1gWE9yd8+8RQnR2dAwbPMnEZ9GSpf4XvbJpY2dHx6hrAAAAAICIwm5igP7MzUj44NLglnd705Ljbpyi8W9xj8tjO+tKio/7+88mT4gPaet6yWgyvdV06Gjr4Rtn3xz8zF9uqTaaTKOLY26cffOMrJmn20++sW+vDIYCOtp6+HT7SSHE527/vP+lnR0dr2za+NgTPxhFAaF4q+nQXw796Wjr4Z9ufjlMdwEAAAAACjqDAF26PmX83+VOKMhKdLpFt3ZfXW4xEBe3KHfCPTlJI0qChBAzsmaKELp+dtfu6OzokCePzqIHlgoh/tJ0KEicJPuGZmTNvHXe7T4XyQhpd+2Ot5oOjbqG4I62Hv6vLdVhunEAAAAA8EFnEKBjE+Lj9Duw+c759xxtPby7dsc3V68xmkxDnSbTInny6O7o1nm3vyJEZ0fHX5oODdUcJO9FxkZ+V/+8s6PjraZDL6x/+he7do+uBgAAAACIHHQGAdCGXMAlgjYHyXVkRpNp2KVkwe9IXv2NfXuHuhfZNPSlIaKix9b9QAhxuv0k/TsAAAAAogBhEADNfHVFhbgyuTkgOWH6KysqfI6fbj8ZfD+yF5592nxb/o/+6R/lj7IhaKiVYn/Yt1d4hVP+ZmTN/GblGiHEK1Ub5WihEJ1uPym3M5Nf3374az4PVm5Y9krVRiHEW02HlDPDtyQNAAAAAAiDAGjmzvn3GE2m0+0nA+ZBp9tPyqzHf4cvZbhPwGYfZe+wL82/Vx6RtzDUnmLyYJDx0kKIr66okFHRC+ufHv6BXbnZBxcv8m4mOtp6+IVnn/7HVY+EeAsAAAAAEA6EQQA0YzSZZNfPHwJlOpf3en9gacCJQnfOv1cI8Yd9v/Nv9pEdQEaTScl3jCaTDI/eavqTz8nKLQTcVN7bD3/yvBDiraZDQVqZvG9W9iXdOu/2f/v5fzb+2db4Z5tsL3qr6ZCSEP1i127l+K3zbpenNf7Z5j/HGgAAAADUQhgEQEtyTI+cDeR9vLOj4/JQ5yEyGiUk8m/2ke1CPovLhgqP5MmyRyl4qTfOvlmua3tl08Zh97n/96qN8mZ/uvllZeDRV1dUyP3pf7mlethbAAAAAIAwIQwCoKUZWTPlHl4+Y6R379zR2dFx67zbg4yOljmRT1eR1xqxq5Z9KXGPd3gktxgTXgvKgvvKiooZWTM7Ozpe2bQxyGl/2Pc7OVroW5VrfGt+YKnRZFLuFwAAAADGHmEQAI3Jnp3dtTu8m2WurBErC3rFy11FV11x5w4hxK3zbveZBm00mT4373ZxdXgkG4W8F5QFZzSZZL6zu3ZHkBnPsstpqInU8uCpkQyiBgAAAAAVEQYB0Nit826XI3KU5qDdtTtOt5+ckTUzeEaj7Bnv3VV0eeZ0oBRJtv94h0dyhFCISZB05/x75PlBJknLoOdo62FldzDvL58FcQAAAAAwxgiDAGhPNgf98spYZdm8I5ePBXdlpdjllV9HWw8fbT08VKePslJMhkfKgrI7Q1sjpvhW5Rq5CZr3TmEAAAAAoBeEQQC0t+iBpXIWz+7aHUdbD7/VdMhoMg27vZe4ku8cbT0sZ/TIcMdndLTP+UKIvxz6k7gSCSm71IduRtZMeRevVG08HWi1l4yc7px/j7I7mP/XV4cuEgAAAADCijAIQESQfUB/2LdX2URs2O29hBBKE9Ab+34nruQ7Xxp62dedXivFZCQUSv+Rv6+uqJAr1AIuFpNTgY62to7ilgEAAAAg3AiDAEQEmf681XToytCfUDMaZc94OQ3af3S0N+XS3TsvT4AOkhwF98OfPC+EeKvpkM92ZuLK4rWRriPr7OwcXSUAAAAAMCKEQQAigtLj09nRcef8e4IEOj7k9vNHWw/vrq0RIQwAkumPnE801IZfoZiRNfOblWuEEP7bihlNpq9eWUf2wrNPe0+Mfqvp0H9tqfYJiTIvdxIdlnuoAQAAAEBYEQYBiBTKGJ3gO8r7U/aYN5pMw7YUKZGTGOE+Yv6+uqJiqCzpm5VrZCW7a3d8++GvKVuJ/eOqR16p2uhz8ueu9Cu98OzT8rQg+9YDAAAAwDUiDAIQKeQs5xtn3zzSic7KqOlQZk4rG9KHeH5wj637wZAXPfGDH/7kpz5506IHlj72xA98pkcbTaYf/uR570edmZV1jYUBAAAAwFDiPB6P1jUAurHGaim7LveWyWlaF4KrnG4/+eDiRUKIX+zaPeplXwAAAACgoafetqScd6S548rmfWFm6tSw3hedQQB0T47gCT46GgAAAAAgEQYB0LfT7Sfl3OVhR0cDAAAAAIQQ8VoXAACjd7T18AvPPiOEuHXe7aHvRg8AAAAAsYwwCIAuPbh40en2k/L7GVkzgwxyBgAAAAB4IwwCoG9fXVHxlRUVRpNJ60IAAAAAQB8IgwDo0i927da6BAAAAADQJQZIAwAAAAAAxBDCIAAAAAAAgBhCGAQAAAAAABBDCIMAAAAAAABiCGEQAAAAAABADCEMAgAAAAAAiCGEQQAAAAAAADGEMAgAAAAAACCGEAYBAAAAAADEEMIgAAAAAACAGEIYBAAAAAAAEEMIgwAAAAAAAGIIYRAAAAAAAEAMIQwCAAAAAACIIYRBAAAAAAAAMYQwCAAAAAAAIIYQBgEAAAAAAMQQwiAAAAAAAIAYQhgEAAAAAAAQQwiDAAAAAAAAYghhEAAAAAAAQAwhDAIAAAAAAIghhEEAAAAAAAAxhDAIAAAAAAAghhAGAQAAAAAAxBDCIAAAAAAAgBhCGAQAAAAAABBDCIMAAAAAAABiCGEQAAAAAABADCEMAgAAAAAAiCGEQQAAAAAAADGEMAgAAAAAACCGEAYBAAAAAADEEMIgAAAAAACAGEIYBAAAAAAAEEMIgwAAAAAAAGJIvNYFADrz2vF3JsUnaF0FAAAAACCqvN/1ccFY3RdhEDAClbM+63QN7H3H1tHTo3UtAAAAAIDoUSDEZHfc2NwXYRAwAjmGyUKId+LiE8fqVxQAAAAAAHXFeTwerWsAdOZcx8d9LpfWVQAAAAAAolC60ZSUEN7hJIRBAAAAAAAAMYTdxAAAAAAAAGIIYRAAAAAAAEAMIQwCAAAAAACIIYRBAAAAAAAAMYQwCAAAAAAAIIYQBgEAAAAAAMQQwiAAAAAAAIAYQhgEAAAAAAAQQwiDAAAAAAAAYghhEAAAAAAAQAwhDAIAAAAAAIghhEEAAAAAAAAxhDAIAAAAAAAghhAGAQAAAAAAxBDCIAAAAAAAgBhCGAQAAAAAABBDCIMAAAAAAABiCGEQAAAAAABADCEMAgAAAAAAiCGEQQAAAAAAADGEMAgAAAAAACCGEAYBAAAAAADEEMIgAAAAAACAGEIYBAAAAAAAEEMIgwAAAAAAAGIIYRAAAAAAAEAMIQwCAAAAAACIIYRBAAAAAAAAMYQwCAAAAAAAIIYQBgEAAAAAAMQQwiAAAAAAAIAY8v8DI3SFxXdnIJMAAAAASUVORK5CYII=;" vertex="1" parent="1">
          <mxGeometry x="236" y="470" width="355.98" height="230" as="geometry" />
        </mxCell>
      </root>
    </mxGraphModel>
  </diagram>
  <diagram id="wFE0QG_FPsp0jaGvCLVb" name="Page-1">
    <mxGraphModel dx="1434" dy="918" grid="1" gridSize="10" guides="1" tooltips="1" connect="1" arrows="1" fold="1" page="1" pageScale="1" pageWidth="850" pageHeight="1100" math="0" shadow="0">
      <root>
        <mxCell id="0" />
        <mxCell id="1" parent="0" />
        <mxCell id="imf6OhMry2nviHnOa693-1" value="" style="rounded=0;whiteSpace=wrap;html=1;" vertex="1" parent="1">
          <mxGeometry x="20" y="80" width="810" height="470" as="geometry" />
        </mxCell>
        <mxCell id="imf6OhMry2nviHnOa693-2" value="MyVNet" style="text;html=1;strokeColor=none;fillColor=none;align=center;verticalAlign=middle;whiteSpace=wrap;rounded=0;" vertex="1" parent="1">
          <mxGeometry x="30" y="50" width="60" height="30" as="geometry" />
        </mxCell>
      </root>
    </mxGraphModel>
  </diagram>
</mxfile>
